<svg xmlns="http://www.w3.org/2000/svg" viewBox="0 0 92.66 31.45"><defs><style>.cls-1{fill:#404041;}</style></defs><g id="레이어_2" data-name="레이어 2"><g id="Layer_1" data-name="Layer 1"><path class="cls-1" d="M7.49,16a3.58,3.58,0,0,1-1.09,2.7,3.71,3.71,0,0,1-2.67,1,3.66,3.66,0,0,1-2.63-1A3.58,3.58,0,0,1,0,16V9.24H2.43v6.69A1.66,1.66,0,0,0,2.77,17a1.16,1.16,0,0,0,1,.4,1.25,1.25,0,0,0,1-.39,1.6,1.6,0,0,0,.36-1.12V9.24H7.49Z"/><path class="cls-1" d="M16.43,19.63H14.31l-3.16-5.22v5.22H8.72V9.24h2.12L14,14.47V9.24h2.43Z"/><path class="cls-1" d="M20.26,19.63H17.83V9.24h2.43Z"/><path class="cls-1" d="M29,18.74,27.77,20l-.76-.8a3.91,3.91,0,0,1-4.67-.69,3.42,3.42,0,0,1-.89-1.88,15.75,15.75,0,0,1-.11-2.23,15.41,15.41,0,0,1,.1-2.24,3.43,3.43,0,0,1,.9-1.88,3.61,3.61,0,0,1,1.22-.87,3.92,3.92,0,0,1,4.3.87,3.55,3.55,0,0,1,.88,1.88,14.49,14.49,0,0,1,.11,2.24v.48a9.28,9.28,0,0,1-.14,2A3.43,3.43,0,0,1,28.28,18Zm-2.58-4.3a11.86,11.86,0,0,0-.09-1.8,1.73,1.73,0,0,0-.27-.76,1.2,1.2,0,0,0-.4-.33,1.32,1.32,0,0,0-.57-.12,1.26,1.26,0,0,0-.57.12,1.35,1.35,0,0,0-.41.33,1.87,1.87,0,0,0-.27.75,11.93,11.93,0,0,0-.09,1.81,11.61,11.61,0,0,0,.09,1.79,1.87,1.87,0,0,0,.27.75,1.25,1.25,0,0,0,.41.32,1.1,1.1,0,0,0,.57.14h.19l-.62-.66,1.23-1.31.47.5q0-.13,0-.63T26.43,14.44Z"/><path class="cls-1" d="M37.24,16a3.54,3.54,0,0,1-1.09,2.7,3.94,3.94,0,0,1-5.3,0A3.62,3.62,0,0,1,29.75,16V9.24h2.43v6.69A1.66,1.66,0,0,0,32.52,17a1.19,1.19,0,0,0,1,.4,1.25,1.25,0,0,0,1-.39,1.6,1.6,0,0,0,.36-1.12V9.24h2.43Z"/><path class="cls-1" d="M45.19,19.63H38.48V9.24h6.71v2.28H40.9v1.73h3.66v2.28H40.9v1.83h4.29Z"/><path class="cls-1" d="M56.14,14.44v.76A8.76,8.76,0,0,1,56,17a3.41,3.41,0,0,1-.89,1.6,3,3,0,0,1-1.18.77,4.22,4.22,0,0,1-1.48.25H48.79V9.24h3.66a4.16,4.16,0,0,1,1.49.25,3.08,3.08,0,0,1,1.18.78,3.39,3.39,0,0,1,.76,1.23,6.81,6.81,0,0,1,.26,2.19Zm-2.43,0c0-.85,0-1.41-.05-1.69a1.76,1.76,0,0,0-.22-.68,1.33,1.33,0,0,0-.44-.41,1.62,1.62,0,0,0-.72-.14H51.22v5.84h1.06A1.46,1.46,0,0,0,53,17.2a1.19,1.19,0,0,0,.45-.41,1.48,1.48,0,0,0,.22-.67A15.25,15.25,0,0,0,53.71,14.44Z"/><path class="cls-1" d="M63.93,19.63H57.22V9.24h6.71v2.28H59.65v1.73h3.66v2.28H59.65v1.83h4.28Z"/><path class="cls-1" d="M71.68,16.45a2.94,2.94,0,0,1-1.12,2.42,4.13,4.13,0,0,1-2.69.85,6.52,6.52,0,0,1-2.07-.28,4.07,4.07,0,0,1-1.68-1.09l1.56-1.64a2,2,0,0,0,.95.56,4.6,4.6,0,0,0,1.25.17c.94,0,1.42-.31,1.42-.93a.88.88,0,0,0-.2-.61.8.8,0,0,0-.25-.18,1.22,1.22,0,0,0-.4-.1l-1.19-.18a3.29,3.29,0,0,1-2-.92,2.94,2.94,0,0,1-.67-2.08,3.11,3.11,0,0,1,1-2.37,3.66,3.66,0,0,1,2.63-.92,5.6,5.6,0,0,1,1.89.29,3.81,3.81,0,0,1,1.44,1L70,12a1.7,1.7,0,0,0-.79-.49,3.48,3.48,0,0,0-.9-.12h-.18a1.24,1.24,0,0,0-.89.28.91.91,0,0,0-.3.68.68.68,0,0,0,0,.27.72.72,0,0,0,.15.22.88.88,0,0,0,.26.19,1.27,1.27,0,0,0,.41.11l1.19.17a3.34,3.34,0,0,1,2,.86,2.44,2.44,0,0,1,.56,1A4.7,4.7,0,0,1,71.68,16.45Z"/><path class="cls-1" d="M75.11,19.63H72.68V9.24h2.43Z"/><path class="cls-1" d="M83.8,15.09a7.67,7.67,0,0,1-.22,2.08,3.34,3.34,0,0,1-.79,1.4,3.26,3.26,0,0,1-1.29.89,4.62,4.62,0,0,1-1.57.26,3.61,3.61,0,0,1-2.74-1.17,3.42,3.42,0,0,1-.89-1.88,14.34,14.34,0,0,1-.11-2.23,17.68,17.68,0,0,1,.09-2.24,3.51,3.51,0,0,1,.91-1.88,3.58,3.58,0,0,1,2.74-1.17,3.68,3.68,0,0,1,2.79,1.08,4.11,4.11,0,0,1,1.07,2.37H81.35a1.67,1.67,0,0,0-.48-.89,1.35,1.35,0,0,0-.94-.28,1.25,1.25,0,0,0-.56.12,1.44,1.44,0,0,0-.4.33,1.73,1.73,0,0,0-.27.75,11.93,11.93,0,0,0-.09,1.81,12,12,0,0,0,.09,1.81A1.73,1.73,0,0,0,79,17a1.13,1.13,0,0,0,1,.43A1.37,1.37,0,0,0,81,17a1.28,1.28,0,0,0,.29-.49,2.06,2.06,0,0,0,.09-.62v-.15H79.93V13.65H83.8Z"/><path class="cls-1" d="M92.59,19.63H90.47l-3.16-5.22v5.22H84.88V9.24H87l3.16,5.23V9.24h2.43Z"/><rect class="cls-1" x="0.05" y="2.69" width="4.17" height="0.22"/><rect class="cls-1" x="2.02" y="0.71" width="0.22" height="4.17"/><rect class="cls-1" x="40.75" y="2.69" width="4.17" height="0.22"/><rect class="cls-1" x="42.73" y="0.71" width="0.22" height="4.17"/><rect class="cls-1" x="88.25" y="2.69" width="4.17" height="0.22"/><rect class="cls-1" x="90.22" y="0.71" width="0.22" height="4.17"/><path class="cls-1" d="M19.73,3.35V5.14h-.39V3.35H18V5.08h-.39V3.35H16.33V3H21v.37ZM20,2a2.44,2.44,0,0,1-1.31.31A2.43,2.43,0,0,1,17.34,2a.93.93,0,0,1-.47-.79A.94.94,0,0,1,17.34.4a2.34,2.34,0,0,1,1.3-.31A2.35,2.35,0,0,1,20,.4a.94.94,0,0,1,.47.79A.93.93,0,0,1,20,2ZM17.67.65a.6.6,0,0,0-.39.54.61.61,0,0,0,.4.54,2.13,2.13,0,0,0,1,.2,2.07,2.07,0,0,0,1-.2A.59.59,0,0,0,20,1.2a.61.61,0,0,0-.39-.55,2,2,0,0,0-1-.21A2.07,2.07,0,0,0,17.67.65Z"/><path class="cls-1" d="M23.61,3.77a6.44,6.44,0,0,1-.86.09l-.87,0h-.49V.49h.39v3h1a6.64,6.64,0,0,0,.82-.08q.45-.06.72-.12v.36A6.67,6.67,0,0,1,23.61,3.77Zm1,1.37V0H25V5.14Z"/><path class="cls-1" d="M25.47,4.34V4h3.21c0-.14.07-.34.11-.6s.08-.57.12-.92a4.86,4.86,0,0,1-.51.07c-.2,0-.4,0-.6,0s-.65,0-1.1,0H26V2.22h.76l1.06,0,.63,0A4.72,4.72,0,0,0,29,2.1c0-.27.05-.47.07-.62s0-.29,0-.45h-3V.67h3.41q0,.4-.06.84c0,.28-.06.56-.1.82s-.1.72-.14,1-.08.5-.11.64h1v.36Z"/><path class="cls-1" d="M63.46,3.85c-.28,0-.58,0-.88.06l-.91,0h-.5V.63h2.31V1H61.56V3.57h1.13l.77-.06A4.21,4.21,0,0,0,64,3.41v.36Zm1,1.29V0h.39V5.14Z"/><path class="cls-1" d="M68.07,4.09a3.47,3.47,0,0,1-.34-.26,2.76,2.76,0,0,1-.41-.46A2.49,2.49,0,0,1,67,2.83c-.07-.17-.12-.31-.15-.4a2.48,2.48,0,0,1-.13.39,2.92,2.92,0,0,1-.3.53,4.28,4.28,0,0,1-.45.54,2.42,2.42,0,0,1-.42.35L65.25,4a3.75,3.75,0,0,0,.48-.39A2.36,2.36,0,0,0,66.17,3a3.06,3.06,0,0,0,.35-.75,2.83,2.83,0,0,0,.13-.85V1H65.54V.58h2.67V1H67.07v.47a3,3,0,0,0,.12.83,2.57,2.57,0,0,0,.33.73,3,3,0,0,0,.42.49,2.42,2.42,0,0,0,.38.28ZM69.3,2.47V5.14h-.4V0h.4V2.1h.75v.37Z"/><path class="cls-1" d="M72.26.56a1.3,1.3,0,0,1,.36.92,1.28,1.28,0,0,1-.36.92,1.18,1.18,0,0,1-.91.39,1.17,1.17,0,0,1-.91-.39,1.28,1.28,0,0,1-.36-.92,1.3,1.3,0,0,1,.36-.92,1.19,1.19,0,0,1,.91-.38A1.21,1.21,0,0,1,72.26.56ZM70.72.83a1,1,0,0,0-.22.65,1,1,0,0,0,.22.65.77.77,0,0,0,.63.26A.74.74,0,0,0,72,2.13a1,1,0,0,0,.22-.65A1,1,0,0,0,72,.83a.77.77,0,0,0-.63-.26A.8.8,0,0,0,70.72.83ZM70.84,5V3.42h.39V4.66h3V5Zm2.84-1.29V0h.39V3.73Z"/><path class="cls-1" d="M4,28.23a2,2,0,0,1-.59,1.23,1.6,1.6,0,0,1-1.14.43A1.69,1.69,0,0,1,.57,28.43a8.64,8.64,0,0,1-.06-1.28,8.48,8.48,0,0,1,.06-1.27A1.63,1.63,0,0,1,1,25a1.66,1.66,0,0,1,1.28-.57,1.6,1.6,0,0,1,1.14.43A2.1,2.1,0,0,1,4,26.07H3.24a1.28,1.28,0,0,0-.33-.67.89.89,0,0,0-.65-.26.88.88,0,0,0-.72.33,1,1,0,0,0-.23.55,7.36,7.36,0,0,0-.06,1.13,9.2,9.2,0,0,0,.05,1.14,1.12,1.12,0,0,0,.24.54.88.88,0,0,0,.72.33.92.92,0,0,0,.65-.25,1.37,1.37,0,0,0,.34-.68Z"/><path class="cls-1" d="M7.31,27.92a3.75,3.75,0,0,1-.09.89,1.45,1.45,0,0,1-.32.63,1.31,1.31,0,0,1-.44.33,1.38,1.38,0,0,1-.59.12,1.35,1.35,0,0,1-.59-.12,1.22,1.22,0,0,1-.44-.33,1.47,1.47,0,0,1-.33-.63,4.37,4.37,0,0,1-.08-.89A4.48,4.48,0,0,1,4.51,27a1.47,1.47,0,0,1,.33-.63,1.27,1.27,0,0,1,.43-.33,1.4,1.4,0,0,1,.6-.12,1.38,1.38,0,0,1,.59.12,1.31,1.31,0,0,1,.44.33,1.57,1.57,0,0,1,.32.63A3.67,3.67,0,0,1,7.31,27.92Zm-.69,0a3.85,3.85,0,0,0,0-.59.93.93,0,0,0-.2-.46.65.65,0,0,0-.51-.22.64.64,0,0,0-.51.22.86.86,0,0,0-.19.42,4.12,4.12,0,0,0,0,1.28.82.82,0,0,0,.19.41.65.65,0,0,0,.51.22A.67.67,0,0,0,6.38,29a.9.9,0,0,0,.19-.42A3.87,3.87,0,0,0,6.62,27.92Z"/><path class="cls-1" d="M12.86,29.85h-.69V27.51a.94.94,0,0,0-.19-.65.66.66,0,0,0-.51-.21.69.69,0,0,0-.51.21.82.82,0,0,0-.2.61v2.38h-.7V27.51a.94.94,0,0,0-.19-.65.72.72,0,0,0-1,0,.86.86,0,0,0-.2.64v2.34H8V26h.69v.39a1.17,1.17,0,0,1,.41-.32A1.26,1.26,0,0,1,9.56,26a1.08,1.08,0,0,1,1,.56,1.34,1.34,0,0,1,1.57-.47,1.16,1.16,0,0,1,.39.26,1.25,1.25,0,0,1,.27.48,1.89,1.89,0,0,1,.09.6Z"/><path class="cls-1" d="M18.55,29.85h-.7V27.51a.94.94,0,0,0-.19-.65.66.66,0,0,0-.51-.21.69.69,0,0,0-.51.21.86.86,0,0,0-.2.61v2.38h-.7V27.51a.94.94,0,0,0-.19-.65.66.66,0,0,0-.51-.21.67.67,0,0,0-.52.22.86.86,0,0,0-.2.64v2.34h-.68V26h.68v.39a1.17,1.17,0,0,1,.41-.32,1.34,1.34,0,0,1,.51-.11,1.08,1.08,0,0,1,1,.56A1.31,1.31,0,0,1,17.31,26a1.33,1.33,0,0,1,.49.09,1.12,1.12,0,0,1,.38.26,1.25,1.25,0,0,1,.27.48,1.64,1.64,0,0,1,.1.6Z"/><path class="cls-1" d="M22.09,29.85H21.4v-.39a1.13,1.13,0,0,1-.92.43,1.51,1.51,0,0,1-.48-.08,1.07,1.07,0,0,1-.37-.27,1.06,1.06,0,0,1-.27-.47,2.2,2.2,0,0,1-.08-.61V26H20v2.35a.92.92,0,0,0,.19.64.66.66,0,0,0,.51.21A.69.69,0,0,0,21.2,29a.89.89,0,0,0,.2-.64V26h.69Z"/><path class="cls-1" d="M25.69,29.85H25V27.51a.94.94,0,0,0-.19-.65.66.66,0,0,0-.51-.21.67.67,0,0,0-.52.22.86.86,0,0,0-.2.64v2.34h-.68V26h.68v.39a1.14,1.14,0,0,1,.92-.43,1.21,1.21,0,0,1,.48.09.86.86,0,0,1,.37.26,1.06,1.06,0,0,1,.27.47,2.2,2.2,0,0,1,.08.61Z"/><path class="cls-1" d="M27.18,25.25h-.74v-.81h.74Zm0,4.6h-.7V26h.7Z"/><path class="cls-1" d="M30.46,29.35a1.45,1.45,0,0,1-1.14.54,1.36,1.36,0,0,1-1.06-.44,2.16,2.16,0,0,1-.48-1.53,2.15,2.15,0,0,1,.48-1.52A1.39,1.39,0,0,1,29.32,26a1.48,1.48,0,0,1,.63.12,1.58,1.58,0,0,1,.51.42L30,27a.88.88,0,0,0-.67-.36.73.73,0,0,0-.64.34,2.29,2.29,0,0,0,0,1.87.81.81,0,0,0,1,.27,1.32,1.32,0,0,0,.32-.29Z"/><path class="cls-1" d="M33.51,29.85h-.68V29.5a1.11,1.11,0,0,1-.4.31,1.45,1.45,0,0,1-.52.08,1.16,1.16,0,0,1-.93-.35,1.21,1.21,0,0,1-.27-.82,1.08,1.08,0,0,1,.31-.81,1.21,1.21,0,0,1,.89-.3h.92v-.27a.74.74,0,0,0-.18-.55.84.84,0,0,0-.58-.17,1.1,1.1,0,0,0-.45.08.79.79,0,0,0-.32.29l-.45-.48a1.39,1.39,0,0,1,.52-.43,1.87,1.87,0,0,1,.72-.12c.95,0,1.42.44,1.42,1.32Zm-.68-1.39v-.31H32c-.42,0-.63.18-.63.55s.22.55.64.55a1.33,1.33,0,0,0,.39,0,.63.63,0,0,0,.28-.19A.88.88,0,0,0,32.83,28.46Z"/><path class="cls-1" d="M35.73,29.85h-.42a.85.85,0,0,1-.71-.33,1.13,1.13,0,0,1-.24-.74V26.66H34v-.59h.39V24.91h.7v1.16h.67v.59h-.67v2.08c0,.3.13.45.38.45h.29Z"/><path class="cls-1" d="M37,25.25H36.3v-.81H37Zm0,4.6h-.69V26H37Z"/><path class="cls-1" d="M40.54,27.92a3.75,3.75,0,0,1-.09.89,1.57,1.57,0,0,1-.32.63,1.31,1.31,0,0,1-.44.33,1.4,1.4,0,0,1-.6.12,1.38,1.38,0,0,1-.59-.12,1.31,1.31,0,0,1-.44-.33,1.57,1.57,0,0,1-.32-.63,3.7,3.7,0,0,1-.09-.89,3.78,3.78,0,0,1,.09-.88,1.57,1.57,0,0,1,.32-.63,1.31,1.31,0,0,1,.44-.33,1.35,1.35,0,0,1,.59-.12,1.46,1.46,0,0,1,.6.12,1.31,1.31,0,0,1,.44.33,1.71,1.71,0,0,1,.32.63A3.67,3.67,0,0,1,40.54,27.92Zm-.7,0a4.17,4.17,0,0,0,0-.59.94.94,0,0,0-.21-.46.64.64,0,0,0-.51-.22.63.63,0,0,0-.5.22.78.78,0,0,0-.19.42,2.87,2.87,0,0,0,0,.63,3.8,3.8,0,0,0,0,.65.83.83,0,0,0,.2.41.63.63,0,0,0,.5.22A.64.64,0,0,0,39.6,29a.82.82,0,0,0,.19-.42A3,3,0,0,0,39.84,27.92Z"/><path class="cls-1" d="M44,29.85h-.69V27.51a.94.94,0,0,0-.2-.65.63.63,0,0,0-.5-.21.68.68,0,0,0-.53.22.91.91,0,0,0-.2.64v2.34h-.68V26h.68v.39a1.14,1.14,0,0,1,.92-.43,1.21,1.21,0,0,1,.48.09.89.89,0,0,1,.38.26,1.14,1.14,0,0,1,.26.47,1.88,1.88,0,0,1,.08.61Z"/><path class="cls-1" d="M49.62,27.11v.3a6.47,6.47,0,0,1-.07,1,1.89,1.89,0,0,1-.42.89,1.51,1.51,0,0,1-.55.38,2,2,0,0,1-.71.13h-1.7v-5.4h1.7a1.62,1.62,0,0,1,1.26.51,1.88,1.88,0,0,1,.44,1A9.28,9.28,0,0,1,49.62,27.11Zm-.74,0c0-.45,0-.76,0-.94a1.32,1.32,0,0,0-.23-.62,1,1,0,0,0-.82-.36h-.9v3.92h.9a1,1,0,0,0,.82-.36,1.37,1.37,0,0,0,.23-.65Q48.88,27.82,48.88,27.11Z"/><path class="cls-1" d="M53.08,28.15H50.85a1.24,1.24,0,0,0,.22.79.81.81,0,0,0,.66.29,1,1,0,0,0,.46-.09,1.24,1.24,0,0,0,.37-.31l.45.46a2.09,2.09,0,0,1-.57.46,1.76,1.76,0,0,1-.73.14,1.42,1.42,0,0,1-1.11-.43,2.23,2.23,0,0,1-.45-1.54,2.3,2.3,0,0,1,.4-1.44A1.26,1.26,0,0,1,51.62,26a1.28,1.28,0,0,1,1.07.51,2.15,2.15,0,0,1,.39,1.34Zm-.69-.54a1.6,1.6,0,0,0-.08-.51.82.82,0,0,0-.27-.36.68.68,0,0,0-.42-.14.75.75,0,0,0-.42.13.82.82,0,0,0-.27.36,1.62,1.62,0,0,0-.08.52Z"/><path class="cls-1" d="M56.26,28.67a1.1,1.1,0,0,1-.4.91,1.61,1.61,0,0,1-1,.31,2.51,2.51,0,0,1-.78-.1,1.66,1.66,0,0,1-.67-.45l.46-.51a.94.94,0,0,0,.45.31,1.61,1.61,0,0,0,.54.09,1,1,0,0,0,.55-.13.44.44,0,0,0,.21-.4.49.49,0,0,0-.11-.33.45.45,0,0,0-.35-.12l-.56-.05a1.27,1.27,0,0,1-.76-.31,1,1,0,0,1-.26-.76,1.09,1.09,0,0,1,.36-.86,1.4,1.4,0,0,1,.94-.31,2.39,2.39,0,0,1,.73.1,1.4,1.4,0,0,1,.55.33l-.43.49a1.07,1.07,0,0,0-.38-.21,1.84,1.84,0,0,0-.47-.07.71.71,0,0,0-.47.14.42.42,0,0,0-.16.36.44.44,0,0,0,.1.3.64.64,0,0,0,.38.14l.54.05a1.18,1.18,0,0,1,.77.31A1.07,1.07,0,0,1,56.26,28.67Z"/><path class="cls-1" d="M57.52,25.25h-.73v-.81h.73Zm0,4.6h-.69V26h.69Z"/><path class="cls-1" d="M61,29.83a1.72,1.72,0,0,1-.4,1.16,1.39,1.39,0,0,1-1.08.46,1.71,1.71,0,0,1-.67-.12,1.47,1.47,0,0,1-.55-.39l.44-.49a1.23,1.23,0,0,0,.34.26.93.93,0,0,0,.41.08.72.72,0,0,0,.63-.3,1.14,1.14,0,0,0,.18-.68v-.49a1.11,1.11,0,0,1-.39.34,1.35,1.35,0,0,1-.5.1,1.23,1.23,0,0,1-.47-.09,1,1,0,0,1-.36-.25,1.38,1.38,0,0,1-.31-.63,5.5,5.5,0,0,1,0-1.87,1.34,1.34,0,0,1,.31-.63,1.08,1.08,0,0,1,.84-.33,1.12,1.12,0,0,1,.5.1,1,1,0,0,1,.4.35V26H61Zm-.7-2a1.7,1.7,0,0,0-.2-1,.61.61,0,0,0-.5-.22A.6.6,0,0,0,59,27a2.17,2.17,0,0,0-.12.83,2.19,2.19,0,0,0,.12.84.58.58,0,0,0,.59.38.6.6,0,0,0,.59-.38A2.38,2.38,0,0,0,60.25,27.85Z"/><path class="cls-1" d="M64.56,29.85h-.7V27.51a.94.94,0,0,0-.19-.65.72.72,0,0,0-1,0,.86.86,0,0,0-.2.64v2.34h-.69V26h.69v.39a1.13,1.13,0,0,1,.92-.43,1.28,1.28,0,0,1,.48.09.93.93,0,0,1,.37.26,1.06,1.06,0,0,1,.27.47,2.2,2.2,0,0,1,.08.61Z"/><path class="cls-1" d="M70.05,28.23a2,2,0,0,1-.59,1.23,1.61,1.61,0,0,1-1.15.43A1.66,1.66,0,0,1,67,29.32a1.76,1.76,0,0,1-.42-.89,11.1,11.1,0,0,1-.05-1.28,10.88,10.88,0,0,1,.05-1.27A1.71,1.71,0,0,1,67,25a1.66,1.66,0,0,1,1.27-.57,1.61,1.61,0,0,1,1.15.43,2.16,2.16,0,0,1,.59,1.23H69.3A1.28,1.28,0,0,0,69,25.4a.9.9,0,0,0-.66-.26.88.88,0,0,0-.71.33,1.11,1.11,0,0,0-.24.55,7.71,7.71,0,0,0,0,1.13,7.53,7.53,0,0,0,0,1.14,1.12,1.12,0,0,0,.24.54.88.88,0,0,0,.71.33.91.91,0,0,0,.65-.25,1.22,1.22,0,0,0,.34-.68Z"/><path class="cls-1" d="M73.37,27.92a3.75,3.75,0,0,1-.09.89,1.57,1.57,0,0,1-.32.63,1.31,1.31,0,0,1-.44.33,1.4,1.4,0,0,1-.6.12,1.38,1.38,0,0,1-.59-.12,1.41,1.41,0,0,1-.44-.33,1.57,1.57,0,0,1-.32-.63,3.7,3.7,0,0,1-.09-.89,3.78,3.78,0,0,1,.09-.88,1.57,1.57,0,0,1,.32-.63,1.41,1.41,0,0,1,.44-.33,1.38,1.38,0,0,1,.59-.12,1.43,1.43,0,0,1,.6.12,1.31,1.31,0,0,1,.44.33,1.71,1.71,0,0,1,.32.63A3.67,3.67,0,0,1,73.37,27.92Zm-.7,0a4.17,4.17,0,0,0,0-.59.93.93,0,0,0-.2-.46.67.67,0,0,0-.52-.22.63.63,0,0,0-.5.22.78.78,0,0,0-.19.42,3.65,3.65,0,0,0,0,.63,3.8,3.8,0,0,0,0,.65.83.83,0,0,0,.2.41.65.65,0,0,0,.5.22.67.67,0,0,0,.52-.22,1,1,0,0,0,.19-.42A4,4,0,0,0,72.67,27.92Z"/><path class="cls-1" d="M78.92,29.85h-.69V27.51a1,1,0,0,0-.19-.65.66.66,0,0,0-.51-.21.69.69,0,0,0-.51.21.82.82,0,0,0-.21.61v2.38h-.69V27.51a1,1,0,0,0-.19-.65.66.66,0,0,0-.51-.21.65.65,0,0,0-.52.22.87.87,0,0,0-.21.64v2.34H74V26h.68v.39a1.3,1.3,0,0,1,.42-.32,1.25,1.25,0,0,1,.5-.11,1.08,1.08,0,0,1,1,.56A1.28,1.28,0,0,1,77.68,26a1.3,1.3,0,0,1,.49.09,1,1,0,0,1,.38.26,1.15,1.15,0,0,1,.28.48,1.89,1.89,0,0,1,.09.6Z"/><path class="cls-1" d="M82.52,27.92a5.15,5.15,0,0,1-.06.89,1.45,1.45,0,0,1-.33.74,1.09,1.09,0,0,1-.85.34,1.29,1.29,0,0,1-.51-.09.93.93,0,0,1-.4-.35v2h-.68V26h.68v.41a1,1,0,0,1,.4-.35,1.13,1.13,0,0,1,.51-.1,1.24,1.24,0,0,1,.48.09.87.87,0,0,1,.37.25,1.54,1.54,0,0,1,.32.74A5.31,5.31,0,0,1,82.52,27.92Zm-.7,0a2.48,2.48,0,0,0-.12-.9.66.66,0,0,0-1.2,0,2.31,2.31,0,0,0-.13.9,2.48,2.48,0,0,0,.12.9.63.63,0,0,0,.61.38.59.59,0,0,0,.6-.38A2.48,2.48,0,0,0,81.82,27.92Z"/><path class="cls-1" d="M85.7,29.85H85V29.5a1.11,1.11,0,0,1-.4.31,1.45,1.45,0,0,1-.52.08,1.16,1.16,0,0,1-.93-.35,1.21,1.21,0,0,1-.27-.82,1.08,1.08,0,0,1,.31-.81,1.21,1.21,0,0,1,.89-.3H85v-.27a.74.74,0,0,0-.18-.55.84.84,0,0,0-.58-.17,1.1,1.1,0,0,0-.45.08.79.79,0,0,0-.32.29L83,26.51a1.39,1.39,0,0,1,.52-.43,1.87,1.87,0,0,1,.72-.12c1,0,1.42.44,1.42,1.32ZM85,28.46v-.31H84.2c-.42,0-.63.18-.63.55s.22.55.64.55a1.33,1.33,0,0,0,.39,0,.63.63,0,0,0,.28-.19A.88.88,0,0,0,85,28.46Z"/><path class="cls-1" d="M89.27,29.85h-.7V27.51a.94.94,0,0,0-.19-.65.66.66,0,0,0-.51-.21.67.67,0,0,0-.52.22.91.91,0,0,0-.2.64v2.34h-.68V26h.68v.39a1.14,1.14,0,0,1,.92-.43,1.21,1.21,0,0,1,.48.09.86.86,0,0,1,.37.26,1.06,1.06,0,0,1,.27.47,2.2,2.2,0,0,1,.08.61Z"/><path class="cls-1" d="M92.66,26l-1.53,4.61a1.29,1.29,0,0,1-.25.47.79.79,0,0,1-.32.23,1.25,1.25,0,0,1-.4.06h-.28v-.69h.18a.54.54,0,0,0,.32-.08,1,1,0,0,0,.18-.33l.19-.6L89.54,26h.74l.83,2.7.8-2.69Z"/></g></g></svg>