<svg xmlns="http://www.w3.org/2000/svg" viewBox="0 0 200.61 14.98"><defs><style>.cls-1{fill:#e03127;}.cls-2{fill:#4d4d4f;}.cls-3{fill:#ff1a26;}</style></defs><g id="레이어_2" data-name="레이어 2"><g id="Layer_1" data-name="Layer 1"><path class="cls-1" d="M9.89,1.29A.89.89,0,0,1,9.58,2a1,1,0,0,1-.71.3.94.94,0,0,1-.7-.3.93.93,0,0,1-.28-.68A.9.9,0,0,1,8.17.61a1,1,0,0,1,.7-.28,1,1,0,0,1,.71.28A.86.86,0,0,1,9.89,1.29ZM8.27,11.18V3.57H9.58v7.61Z"/><path class="cls-1" d="M18.68,6.72H17.35a2.33,2.33,0,1,0-2.24,3h.05c2.47,0,4.56-3,4.56-3,2.2-3,4.27-3,4.47-3h0a3.64,3.64,0,1,1-2.15,6.57V15H20.76V8.5h1.41a2.33,2.33,0,1,0,2.06-3.43h0C22.5,5,20.4,7.88,20.4,7.88,18,11,15.41,11,15.14,11h0a3.64,3.64,0,1,1,2.25-6.49V0h1.31Z"/><polygon class="cls-1" points="6.66 11.18 2.04 7.34 6.56 3.58 4.5 3.58 1.31 6.23 1.31 2.92 0 2.92 0 11.19 1.31 11.19 1.31 8.45 4.6 11.18 6.66 11.18"/><path class="cls-2" d="M35,9.52h.66l-1.82,1.83,1.85,2.23H35l-1.52-1.89-.21.2v1.69h-.51V9.52h.51v1.77Z"/><path class="cls-2" d="M40,11.55a2.13,2.13,0,0,1-4.25,0,2.13,2.13,0,0,1,4.25,0Zm-.5,0a1.62,1.62,0,1,0-3.24,0,1.62,1.62,0,1,0,3.24,0Z"/><path class="cls-2" d="M43,13.58h-.62l-1.19-1.72H41v1.72h-.5V9.52h.61a2.07,2.07,0,0,1,1.07.2,1.15,1.15,0,0,1-.44,2.1Zm-2-2.14h.16c.52,0,1.08-.09,1.08-.74S41.58,10,41.08,10H41Z"/><path class="cls-2" d="M43.36,9.52h2.18V10H43.87v1.13h1.62v.46H43.87v1.54h1.67v.46H43.36Z"/><path class="cls-2" d="M46.74,12.56l-.46,1h-.54l1.93-4.23,1.94,4.23h-.55l-.46-1Zm.93-2.1L47,12.1h1.44Z"/><path class="cls-2" d="M52,13.58h-.51V9.52H52Z"/><path class="cls-2" d="M52.7,9.33l3,3.19v-3h.51v4.23l-3-3.2v3h-.5Z"/><path class="cls-2" d="M58.77,10.29a.7.7,0,0,0-.65-.38.64.64,0,0,0-.68.58c0,.31.31.48.57.58l.29.11c.57.23,1,.54,1,1.22a1.27,1.27,0,0,1-2.54.13l.5-.11a.77.77,0,0,0,.79.77.76.76,0,0,0,.74-.79c0-.43-.35-.62-.69-.77l-.28-.11c-.47-.2-.88-.47-.88-1a1.1,1.1,0,0,1,1.19-1.05,1.16,1.16,0,0,1,1,.61Z"/><path class="cls-2" d="M61,13.58h-.51V10h-1V9.52h2.43V10H61Z"/><path class="cls-2" d="M62.79,13.58h-.5V9.52h.5Z"/><path class="cls-2" d="M64.64,13.58h-.5V10h-1V9.52h2.43V10h-1Z"/><path class="cls-2" d="M66.44,9.52v2.4c0,.66.2,1.27,1,1.27s1-.61,1-1.27V9.52h.5v2.57a1.48,1.48,0,1,1-3,0V9.52Z"/><path class="cls-2" d="M70.69,13.58h-.5V10h-1V9.52h2.43V10h-1Z"/><path class="cls-2" d="M72.05,9.52h2.19V10H72.56v1.13h1.63v.46H72.56v1.54h1.68v.46H72.05Z"/><path class="cls-2" d="M80.37,11.55a2.13,2.13,0,0,1-4.25,0,2.13,2.13,0,0,1,4.25,0Zm-.5,0a1.62,1.62,0,1,0-3.24,0,1.62,1.62,0,1,0,3.24,0Z"/><path class="cls-2" d="M81.36,10v1.13h1.41v.47H81.36v2h-.51V9.52h2V10Z"/><path class="cls-2" d="M85,9.52h.84a2,2,0,1,1,0,4.06H85Zm.51,3.6h.17c1,0,1.93-.39,1.93-1.57S86.67,10,85.63,10h-.17Z"/><path class="cls-2" d="M88.57,9.52h2.18V10H89.08v1.13H90.7v.46H89.08v1.54h1.67v.46H88.57Z"/><path class="cls-2" d="M93.17,10.29a.69.69,0,0,0-.65-.38.64.64,0,0,0-.68.58c0,.31.32.48.57.58l.29.11c.58.23,1,.54,1,1.22a1.28,1.28,0,0,1-2.55.13l.51-.11a.77.77,0,1,0,1.53,0c0-.43-.35-.62-.7-.77l-.28-.11c-.46-.2-.88-.47-.88-1a1.1,1.1,0,0,1,1.19-1.05,1.17,1.17,0,0,1,1,.61Z"/><path class="cls-2" d="M94.75,13.58h-.5V9.52h.5Z"/><path class="cls-2" d="M99.2,11.54v.16a1.87,1.87,0,0,1-1.91,2A2.11,2.11,0,1,1,99,10.23l-.36.33a1.61,1.61,0,0,0-1.27-.66,1.63,1.63,0,0,0-1.62,1.65,1.66,1.66,0,0,0,1.58,1.65A1.36,1.36,0,0,0,98.64,12h-1v-.46Z"/><path class="cls-2" d="M99.65,9.33l3,3.19v-3h.5v4.23l-3-3.2v3h-.51Z"/><path class="cls-2" d="M106,13.58h-.51V9.52h.58c1.25,0,1.63.44,1.63,1.18s-.65,1.18-1.42,1.18H106Zm0-2.15h.15c.52,0,1.08-.1,1.08-.74s-.6-.71-1.1-.71H106Z"/><path class="cls-2" d="M110.66,13.58h-.61l-1.19-1.72h-.21v1.72h-.51V9.52h.61a2.07,2.07,0,0,1,1.07.2,1.15,1.15,0,0,1-.44,2.1Zm-2-2.14h.15c.52,0,1.08-.09,1.08-.74s-.6-.72-1.1-.72h-.13Z"/><path class="cls-2" d="M115,11.55a2.12,2.12,0,0,1-4.24,0,2.12,2.12,0,0,1,4.24,0Zm-.5,0a1.62,1.62,0,1,0-1.63,1.64A1.63,1.63,0,0,0,114.52,11.55Z"/><path class="cls-2" d="M116.2,10.9h0l-.47,2.68h-.53L116,9.35l1.4,3.2,1.39-3.2.82,4.23h-.52l-.47-2.68h0l-1.21,2.76Z"/><path class="cls-2" d="M124.05,11.55a2.13,2.13,0,0,1-4.25,0,2.13,2.13,0,0,1,4.25,0Zm-.51,0a1.62,1.62,0,1,0-3.23,0,1.62,1.62,0,1,0,3.23,0Z"/><path class="cls-2" d="M125.63,13.58h-.5V10h-1V9.52h2.42V10h-1Z"/><path class="cls-2" d="M127.48,13.58H127V9.52h.5Z"/><path class="cls-2" d="M132.2,11.55a2.13,2.13,0,0,1-4.25,0,2.13,2.13,0,0,1,4.25,0Zm-.5,0a1.62,1.62,0,1,0-3.24,0,1.62,1.62,0,1,0,3.24,0Z"/><path class="cls-2" d="M132.64,9.33l3.05,3.19v-3h.5v4.23l-3-3.2v3h-.51Z"/><path class="cls-2" d="M34.14,4.19a.88.88,0,0,1-.63.26.9.9,0,0,1-.9-.89.83.83,0,0,1,.27-.63.82.82,0,0,1,.63-.26.84.84,0,0,1,.63.26.86.86,0,0,1,.26.63A.89.89,0,0,1,34.14,4.19Zm1.69,1.75h.75V3h.58V2.39h-.58v-1h-.75Zm-2.32-.2h-.75v2h3.81V7.1H33.51ZM32.16,2.87a1.39,1.39,0,0,0-.19.72,1.54,1.54,0,0,0,1.54,1.54,1.47,1.47,0,0,0,1.08-.45A1.48,1.48,0,0,0,35,3.59a1.48,1.48,0,0,0-.18-.72,1.62,1.62,0,0,0-.49-.55h.84V1.71H33.89V1.3h-.75v.41H31.8v.61h.85A1.52,1.52,0,0,0,32.16,2.87Z"/><path class="cls-2" d="M42.53,3.86h.28v.61h-2v.75h1.7V7.71h-.74V5.84H38.24V5.22h1.84V4.47h-2V3.86h3.69V2.05H38.1V1.44h4.43Z"/><path class="cls-2" d="M48.62,7.71h-.75V5.53H44.23V1.44h3v.61H45V4.92h2.89V1.44h.75Z"/><path class="cls-2" d="M50,1.44h3.42v.61h-1.3l1.65,3.24-.61.31L51.72,2.75,50.26,5.61l-.6-.32,1.65-3.24H50Zm4,0h.75v1h.58V3h-.58v4.7H54Z"/><path class="cls-2" d="M58.73,3.72A1,1,0,0,1,58,4a.91.91,0,0,1-.7-.29A.94.94,0,0,1,57,3a.94.94,0,0,1,.3-.71A1,1,0,0,1,58,2a1,1,0,0,1,.71.29,1,1,0,0,1,0,1.41Zm.47-1.89A1.66,1.66,0,0,0,56.36,3a1.61,1.61,0,0,0,.48,1.18,1.67,1.67,0,0,0,2.36,0A1.62,1.62,0,0,0,59.69,3,1.6,1.6,0,0,0,59.2,1.83Zm1.94-.4H60.4V5.94h.74Zm0,5.67H58V5.39h-.75V7.71h3.89Z"/><path class="cls-2" d="M67.45,6H66.7V1.44h.75Zm-3.27-.56h-.75V7.71h4V7.1H64.18Zm2.24-.82-.57.35L64.39,2.51,62.92,4.92l-.58-.35,1.54-2.52h-1.2V1.44H66v.61H64.88Z"/><path class="cls-2" d="M71.48,7.13a.66.66,0,0,1-.46.19.68.68,0,0,1-.47-.19.63.63,0,0,1-.19-.47.62.62,0,0,1,.19-.46A.64.64,0,0,1,71,6a.65.65,0,0,1,.65.65A.63.63,0,0,1,71.48,7.13ZM72,5.71A1.28,1.28,0,0,0,71,5.32a1.31,1.31,0,0,0-1,.39,1.34,1.34,0,0,0,0,1.89A1.31,1.31,0,0,0,71,8,1.28,1.28,0,0,0,72,7.6a1.34,1.34,0,0,0,0-1.89Zm-.45-2.22a.67.67,0,0,1-.48.2.66.66,0,0,1-.48-.2.69.69,0,0,1,0-1,.66.66,0,0,1,.48-.2.67.67,0,0,1,.48.2.69.69,0,0,1,0,1Zm2,1h-5v.61h5ZM69.73,2.67a1.58,1.58,0,0,0,0,.38,1.28,1.28,0,0,0,.39.94,1.31,1.31,0,0,0,1,.39A1.28,1.28,0,0,0,72,4a1.28,1.28,0,0,0,.39-.94,1.2,1.2,0,0,0,0-.38,1.39,1.39,0,0,0-.16-.35H73V1.71H71.4V1.24h-.75v.47H69v.61h.85A1.39,1.39,0,0,0,69.73,2.67Z"/><path class="cls-2" d="M76.88,3.31a.8.8,0,0,1-.58.24.82.82,0,0,1-.82-.82.78.78,0,0,1,.24-.58.78.78,0,0,1,.58-.23.8.8,0,0,1,.82.81A.78.78,0,0,1,76.88,3.31Zm.5-1.64A1.52,1.52,0,0,0,74.8,2.74a1.43,1.43,0,0,0,.45,1.06,1.49,1.49,0,0,0,2.13,0,1.46,1.46,0,0,0,.44-1.06A1.48,1.48,0,0,0,77.38,1.67Zm1.84-.23h-.75v2.9h-4V5h1.56V6.08h.75V5h1.64v.33h-1v.55h1v.37h.75Zm0,5.66H75.88V5.53h-.75V7.71h4.09Z"/><path class="cls-2" d="M82.77,4.38V3.25h.81V4.38h2.68V5H81V4.38Zm2.81-2.74a6.07,6.07,0,0,1,0,.85c0,.25-.06.52-.11.82a4.08,4.08,0,0,1-.26.86l-.78-.09a3.09,3.09,0,0,0,.17-.54c0-.18.08-.36.11-.52a3.61,3.61,0,0,0,0-.44c0-.13,0-.23,0-.3H81.6V1.64ZM81.82,6.75A1.24,1.24,0,0,1,82,6.14a1.51,1.51,0,0,1,.42-.45A1.89,1.89,0,0,1,83,5.41a2,2,0,0,1,.65-.1,3,3,0,0,1,.65.08,2.32,2.32,0,0,1,.6.26,1.71,1.71,0,0,1,.44.45,1.41,1.41,0,0,1,.18.66,1.18,1.18,0,0,1-.16.61,1.4,1.4,0,0,1-.42.42,1.78,1.78,0,0,1-.6.25,2.5,2.5,0,0,1-.66.09A2.84,2.84,0,0,1,83,8.05a2,2,0,0,1-.58-.24A1.33,1.33,0,0,1,82,7.38,1.23,1.23,0,0,1,81.82,6.75Zm2.88,0a.68.68,0,0,0-.09-.35,1,1,0,0,0-.25-.25A1,1,0,0,0,84,6,1.13,1.13,0,0,0,83.66,6a1.63,1.63,0,0,0-.36,0,1.14,1.14,0,0,0-.34.15,1,1,0,0,0-.25.25.67.67,0,0,0,0,.69.82.82,0,0,0,.25.24,1.26,1.26,0,0,0,.34.13,1.55,1.55,0,0,0,.37,0,1.45,1.45,0,0,0,.35,0,1,1,0,0,0,.34-.12.82.82,0,0,0,.25-.24A.55.55,0,0,0,84.7,6.76Z"/><path class="cls-2" d="M90.18,3.26a1.37,1.37,0,0,1-.5,1.17,1.87,1.87,0,0,1-2.31,0,1.4,1.4,0,0,1-.49-1.17,1.39,1.39,0,0,1,.49-1.16,1.87,1.87,0,0,1,2.31,0A1.37,1.37,0,0,1,90.18,3.26Zm-.8,0a1,1,0,0,0-.07-.39,1,1,0,0,0-.18-.29.82.82,0,0,0-.28-.19.88.88,0,0,0-.64,0,.64.64,0,0,0-.27.19.7.7,0,0,0-.19.29,1,1,0,0,0-.07.39,1,1,0,0,0,.07.4.64.64,0,0,0,.19.29.64.64,0,0,0,.27.19.88.88,0,0,0,.64,0A.82.82,0,0,0,89.13,4a.84.84,0,0,0,.18-.29A1,1,0,0,0,89.38,3.26Zm2.6,4V7.9H88.23V5.66h.82V7.25Zm-.92-1.43V1.5h.8V5.82Z"/><path class="cls-2" d="M96.41,5.23h2.18v.63h-3V1.94h2.93v.63H96.41Zm3.76-3.73v6h-.76v-6Z"/><path class="cls-2" d="M103.74,2.59c.17.52.34,1,.52,1.55s.37,1,.57,1.57l-.69.35-1-3h0a5.77,5.77,0,0,1-.2.72,8.28,8.28,0,0,1-.3.82,8.23,8.23,0,0,1-.37.79,4.44,4.44,0,0,1-.41.62l-.64-.44a6,6,0,0,0,.48-.75c.14-.26.26-.52.37-.78a7.41,7.41,0,0,0,.26-.75,5.07,5.07,0,0,0,.17-.67h-1.08V1.94h3.32v.65Zm3.33,1.52h-1V7.54h-.8v-6h.8v2h1Z"/><path class="cls-2" d="M110.8,3.26a1.4,1.4,0,0,1-.5,1.17,1.88,1.88,0,0,1-2.32,0,1.42,1.42,0,0,1-.49-1.17A1.42,1.42,0,0,1,108,2.1a1.88,1.88,0,0,1,2.32,0A1.39,1.39,0,0,1,110.8,3.26Zm-.8,0a1.23,1.23,0,0,0-.07-.39,1,1,0,0,0-.19-.29.7.7,0,0,0-.27-.19.92.92,0,0,0-.33-.06.91.91,0,0,0-.32.06.7.7,0,0,0-.27.19,1,1,0,0,0-.19.29,1,1,0,0,0-.07.39,1,1,0,0,0,.07.4.86.86,0,0,0,.19.29.7.7,0,0,0,.27.19.91.91,0,0,0,.32.06.92.92,0,0,0,.33-.06.7.7,0,0,0,.27-.19.86.86,0,0,0,.19-.29A1.19,1.19,0,0,0,110,3.26Zm2.6,4V7.9h-3.76V5.66h.82V7.25Zm-.92-1.43V1.5h.8V5.82Z"/><path class="cls-2" d="M113.66,1.8h3.21v.62h-1l1,2.18-.65.42-1-2.21a12,12,0,0,1-.5,1.2,4.66,4.66,0,0,1-.72,1l-.59-.5a5.38,5.38,0,0,0,.78-1.14c.09-.17.16-.34.23-.5s.13-.34.18-.5h-1Zm5,5.45V7.9h-3.75V5.66h.81V7.25Zm-.92-4.36V1.5h.8V5.82h-.8V3.55h-1.08V2.89Z"/><path class="cls-2" d="M124.82,4.68v.65h-2V6.67H122V5.33h-2.4V4.68Zm-.69-3V4.13h-3.84V1.65Zm.08,5.59v.65h-3.82v-2h.79v1.4Zm-.84-4.95h-2.3V3.5h2.3Z"/><path class="cls-2" d="M127,5.17l-.11,0a1.56,1.56,0,0,1-.51-.27,1.2,1.2,0,0,1-.36-.44,1.55,1.55,0,0,1-.15-.64,1.4,1.4,0,0,1,.11-.56,1.65,1.65,0,0,1,.3-.46h-.74V2.17h1.53V1.4h.81v.77h1.53v.61h-.67a1.73,1.73,0,0,1,.25.51c0,.1.06.19.08.28a1.11,1.11,0,0,1,0,.23,1.26,1.26,0,0,1-.13.6,1.34,1.34,0,0,1-.34.44,1.49,1.49,0,0,1-.5.29.9.9,0,0,1-.22.06V6h1.71v.67h-4.13V6h1.62V5.2Zm-.1-.78a.86.86,0,0,0,1.16,0,.78.78,0,0,0,.24-.6.9.9,0,0,0-.21-.61.87.87,0,0,0-1.2,0,1,1,0,0,0-.23.63A.86.86,0,0,0,126.93,4.39Zm2.9,3.15v-6h.82v6Z"/><path class="cls-2" d="M134.3,6.07l-1-3h0A9.08,9.08,0,0,1,133,4.14c-.1.33-.21.63-.32.9s-.21.48-.3.65a2.83,2.83,0,0,1-.22.36l-.68-.34A7,7,0,0,0,132,4.65q.23-.54.39-1.05c.11-.34.19-.66.26-1s.11-.55.14-.77h.84L135,5.72Zm3-2h-1V7.54h-.8v-6h.8v2h1Z"/><path class="cls-3" d="M161.15,15a7.49,7.49,0,1,1,7.49-7.49A7.5,7.5,0,0,1,161.15,15Zm0-14.15a6.66,6.66,0,1,0,6.66,6.66A6.67,6.67,0,0,0,161.15.83Z"/><path class="cls-3" d="M166.15,6.75h-1.64a.49.49,0,0,0-.45.26c-.35.55-1.12,1.75-1.19,1.87s-.25.18-.36,0l-1.19-1.74a.57.57,0,0,1-.08-.26.62.62,0,0,1,.09-.29l1.18-1.85a.59.59,0,0,0,.1-.3.58.58,0,0,0-.1-.29l-1.25-2a.12.12,0,0,0-.11-.06.15.15,0,0,0-.12.06l-1.25,2a.62.62,0,0,0-.09.29.63.63,0,0,0,.09.3L161,6.59a.58.58,0,0,1,.1.29.52.52,0,0,1-.1.28l-1.17,1.72c-.12.18-.23.19-.36,0L158.24,7a.51.51,0,0,0-.46-.26h-1.63c-.23,0-.28.16-.19.31l3.29,5.18c.13.2.3.18.41,0L161,10.41a.19.19,0,0,1,.16-.1.18.18,0,0,1,.15.1l1.33,1.85a.22.22,0,0,0,.41,0l3.29-5.18C166.43,6.91,166.37,6.75,166.15,6.75Z"/><path class="cls-2" d="M176,5V3.65h1.24V9.49a4.91,4.91,0,0,1-.07.95H176V7.5h-1.26a2.17,2.17,0,0,1-1.83,1.05,2.24,2.24,0,0,1-2.17-2.27A2.24,2.24,0,0,1,172.91,4a2.17,2.17,0,0,1,1.82,1Zm-3.09-.23c-.52,0-.93.63-.93,1.47s.41,1.46.93,1.46.94-.61.94-1.46S173.44,4.81,172.91,4.81ZM176,6.69V5.85h-.95a2.09,2.09,0,0,1,0,.43,1.89,1.89,0,0,1,0,.41Z"/><path class="cls-2" d="M183.06,7.07l-1,.85c-.39-.56-.84-1.17-1.28-1.72a6.64,6.64,0,0,1-2,1.8l-.64-.47A5.11,5.11,0,0,0,180.25,4h1.31a10.57,10.57,0,0,1-.41,1.49C181.8,6,182.48,6.57,183.06,7.07Zm-.4,4.91a2.14,2.14,0,0,1-2.37-1.84,2.44,2.44,0,0,1,4.74,0A2.14,2.14,0,0,1,182.66,12Zm0-2.89a1.1,1.1,0,0,0-1.13,1.05,1.13,1.13,0,0,0,2.26,0A1.11,1.11,0,0,0,182.66,9.09Zm-.53-3.23V5.05h1.66V3.65H185V7.13a6.11,6.11,0,0,1-.07,1h-1.17V5.86Z"/><path class="cls-2" d="M187,8.92l-.63-.62a5,5,0,0,0,2.41-3.21h-2.09V4.28h3.65A6.42,6.42,0,0,1,187,8.92Zm4.43-5.27h1.24V9.49a4.91,4.91,0,0,1-.07.95H191.4Z"/><path class="cls-2" d="M199.37,5.4V3.65h1.24V7.13a5.1,5.1,0,0,1-.07,1h-1.17V6.21h-1a2.16,2.16,0,0,1-2.13,1.49,2.06,2.06,0,0,1-2.18-1.89,2.06,2.06,0,0,1,2.18-1.89,2.15,2.15,0,0,1,2.13,1.48Zm-3.09-.68a1,1,0,0,0-.93,1.09,1,1,0,0,0,.93,1.09,1,1,0,0,0,.93-1.09A1,1,0,0,0,196.28,4.72Zm3.05,4.69v-1h1.24v3.44h-4.35a.3.3,0,0,1-.28-.28V8.41h1.24v1Zm-2.15.81V11h2.15v-.82Z"/></g></g></svg>