<svg xmlns="http://www.w3.org/2000/svg" viewBox="0 0 16.31 14.83"><defs><style>.cls-1{fill:#23538f;}</style></defs><g id="레이어_2" data-name="레이어 2"><g id="Layer_1" data-name="Layer 1"><path class="cls-1" d="M.94,5.87,8.06,1.05a.17.17,0,0,1,.19,0l6.94,4.83h.1a1,1,0,0,0,.81-.4L8.27,0A.2.2,0,0,0,8,0L.15,5.39A1,1,0,0,0,.94,5.87Z"/><path class="cls-1" d="M0,6.13v7.68a1,1,0,0,0,0,.24L6.15,10.3Z"/><path class="cls-1" d="M16.31,6l-6.19,4.32,6.12,3.87a.94.94,0,0,0,.07-.37Z"/><path class="cls-1" d="M8.45,11.47a.51.51,0,0,1-.58,0l-.8-.54L.76,14.79a1.17,1.17,0,0,0,.26,0H15.35L9.21,10.94Z"/><path class="cls-1" d="M9.39,4.7h.52l-.36,2a1,1,0,0,0,0,.5.22.22,0,0,0,.24.16.85.85,0,0,0,.38-.09A.9.9,0,0,0,10.51,7a1.33,1.33,0,0,0,.24-.46,2.22,2.22,0,0,0,.09-.67,2.12,2.12,0,0,0-.19-1,1.8,1.8,0,0,0-.5-.65,2.15,2.15,0,0,0-.76-.37,3.56,3.56,0,0,0-.94-.12A2.74,2.74,0,0,0,7.37,4,2.66,2.66,0,0,0,5.93,5.42a2.79,2.79,0,0,0-.21,1.09,2.87,2.87,0,0,0,.18,1A2.1,2.1,0,0,0,7.23,8.82,3.31,3.31,0,0,0,8.36,9,3,3,0,0,0,8.85,9a2.26,2.26,0,0,0,.5-.16l.23.71A2.39,2.39,0,0,1,9,9.71a3.88,3.88,0,0,1-.72.06,4,4,0,0,1-1.33-.21A2.78,2.78,0,0,1,5.85,9a2.93,2.93,0,0,1-.71-1,3.8,3.8,0,0,1-.25-1.4,3.59,3.59,0,0,1,.29-1.46A3.32,3.32,0,0,1,6,4,3.37,3.37,0,0,1,7.1,3.26,3.61,3.61,0,0,1,8.46,3a3.72,3.72,0,0,1,1.27.2,2.84,2.84,0,0,1,1,.56,2.44,2.44,0,0,1,.68.9,2.86,2.86,0,0,1,.24,1.2A2.27,2.27,0,0,1,11,7.48a2.47,2.47,0,0,1-.68.48,2,2,0,0,1-.84.18,1.22,1.22,0,0,1-.34,0A.58.58,0,0,1,8.91,8a.54.54,0,0,1-.16-.25.8.8,0,0,1,0-.39h0a2.34,2.34,0,0,1-.24.31,1.8,1.8,0,0,1-.29.26,1,1,0,0,1-.34.18,1.07,1.07,0,0,1-.41.07.81.81,0,0,1-.34-.08.74.74,0,0,1-.28-.22A1,1,0,0,1,6.6,7.5a1.23,1.23,0,0,1-.07-.44,2.74,2.74,0,0,1,.15-.9,2.62,2.62,0,0,1,.4-.76,2,2,0,0,1,.6-.54,1.3,1.3,0,0,1,.71-.2,1.13,1.13,0,0,1,.44.07,1.42,1.42,0,0,1,.33.21Zm-.47.89a.82.82,0,0,0-.2-.12.68.68,0,0,0-.26,0,.75.75,0,0,0-.41.12,1.15,1.15,0,0,0-.33.33,1.55,1.55,0,0,0-.21.45,1.59,1.59,0,0,0-.07.48.68.68,0,0,0,.1.4.36.36,0,0,0,.34.16.49.49,0,0,0,.22-.06,1.24,1.24,0,0,0,.23-.17,1.7,1.7,0,0,0,.22-.24,1.67,1.67,0,0,0,.18-.28Z"/></g></g></svg>