<svg xmlns="http://www.w3.org/2000/svg" viewBox="0 0 13.26 17.97"><defs><style>.cls-1{fill:#23538f;}</style></defs><g id="레이어_2" data-name="레이어 2"><g id="Layer_1" data-name="Layer 1"><path class="cls-1" d="M2.21,11.84A5,5,0,0,0,0,15.65c.09.61,1.8,1.69,1.8,1.69l2.76-4.78S2.78,11.62,2.21,11.84Z" transform="translate(0 0)"/><path class="cls-1" d="M8.63,5.53,11.39.75S9.6-.19,9,0a5,5,0,0,0-2.2,3.8C6.92,4.45,8.63,5.53,8.63,5.53Z" transform="translate(0 0)"/><path class="cls-1" d="M11.9,1,9.14,5.82s1.41.75-.64,4.32-3.42,2.71-3.42,2.71L2.32,17.63c3.37,1.94,7.52-4.87,8.32-6.25S15.26,3,11.9,1Z" transform="translate(0 0)"/></g></g></svg>