<svg xmlns="http://www.w3.org/2000/svg" viewBox="0 0 47.22 5.56"><defs><style>.cls-1{fill:#1f62af;}</style></defs><g id="레이어_2" data-name="레이어 2"><g id="Layer_1" data-name="Layer 1"><path class="cls-1" d="M3.82,3.49a1.81,1.81,0,0,1-.55,1.38A1.93,1.93,0,0,1,1.9,5.4,1.85,1.85,0,0,1,0,3.49V.05H1.24V3.46A.9.9,0,0,0,1.41,4a.6.6,0,0,0,.49.2A.62.62,0,0,0,2.4,4a.81.81,0,0,0,.19-.57V.05H3.82Z"/><polygon class="cls-1" points="8.39 5.35 7.3 5.35 5.69 2.68 5.69 5.35 4.45 5.35 4.45 0.04 5.53 0.04 7.15 2.71 7.15 0.04 8.39 0.04 8.39 5.35"/><rect class="cls-1" x="9.09" y="0.05" width="1.24" height="5.31"/><path class="cls-1" d="M14.8,4.9l-.63.66-.39-.41a1.81,1.81,0,0,1-1,.25,1.87,1.87,0,0,1-1.41-.6,1.72,1.72,0,0,1-.45-1,7.33,7.33,0,0,1-.06-1.14,8.74,8.74,0,0,1,0-1.14,1.74,1.74,0,0,1,.46-1A2,2,0,0,1,12,.15,2,2,0,0,1,12.8,0a1.87,1.87,0,0,1,1.41.6,1.79,1.79,0,0,1,.45,1,7.33,7.33,0,0,1,.06,1.14v.24a5.65,5.65,0,0,1-.07,1,1.83,1.83,0,0,1-.22.57ZM13.48,2.7a8.49,8.49,0,0,0,0-.92.88.88,0,0,0-.15-.39.41.41,0,0,0-.2-.16.57.57,0,0,0-.29-.07.54.54,0,0,0-.29.07.49.49,0,0,0-.21.16,1,1,0,0,0-.14.39,6.28,6.28,0,0,0,0,.92,6.37,6.37,0,0,0,0,.92A1,1,0,0,0,12.3,4a.58.58,0,0,0,.21.16.57.57,0,0,0,.29.07h.1l-.32-.33.63-.67.24.25s0-.15,0-.32,0-.32,0-.46"/><path class="cls-1" d="M19,3.49a1.81,1.81,0,0,1-.55,1.38,1.93,1.93,0,0,1-1.37.53,1.85,1.85,0,0,1-1.34-.52,1.8,1.8,0,0,1-.56-1.39V.05h1.24V3.46a.9.9,0,0,0,.17.57.6.6,0,0,0,.49.2.62.62,0,0,0,.5-.2.81.81,0,0,0,.18-.57V.05H19Z"/><polygon class="cls-1" points="23.05 5.35 19.63 5.35 19.63 0.04 23.05 0.04 23.05 1.21 20.86 1.21 20.86 2.1 22.74 2.1 22.74 3.26 20.86 3.26 20.86 4.19 23.05 4.19 23.05 5.35"/><path class="cls-1" d="M28.64,2.7v.39a4.08,4.08,0,0,1-.08.92,1.76,1.76,0,0,1-.45.82,1.42,1.42,0,0,1-.6.39,2.13,2.13,0,0,1-.76.13H24.88V.05h1.87a2.29,2.29,0,0,1,.76.12,1.62,1.62,0,0,1,.6.4,1.59,1.59,0,0,1,.39.63,3.34,3.34,0,0,1,.14,1.12Zm-1.24,0a7.69,7.69,0,0,0,0-.86.85.85,0,0,0-.12-.35A.56.56,0,0,0,27,1.28a.74.74,0,0,0-.36-.07h-.55v3h.55A.8.8,0,0,0,27,4.11a.66.66,0,0,0,.23-.21.8.8,0,0,0,.11-.34,7.56,7.56,0,0,0,0-.86"/><polygon class="cls-1" points="32.61 5.35 29.18 5.35 29.18 0.04 32.61 0.04 32.61 1.21 30.42 1.21 30.42 2.1 32.29 2.1 32.29 3.26 30.42 3.26 30.42 4.19 32.61 4.19 32.61 5.35"/><path class="cls-1" d="M36.56,3.73A1.53,1.53,0,0,1,36,5a2.19,2.19,0,0,1-1.38.43,3.46,3.46,0,0,1-1-.14,2.1,2.1,0,0,1-.86-.56l.8-.84a1.05,1.05,0,0,0,.48.29,2.61,2.61,0,0,0,.64.08c.48,0,.72-.15.72-.47a.46.46,0,0,0-.1-.32.36.36,0,0,0-.12-.08.58.58,0,0,0-.21-.06l-.61-.09a1.63,1.63,0,0,1-1-.47,1.5,1.5,0,0,1-.35-1.06,1.6,1.6,0,0,1,.5-1.21A1.89,1.89,0,0,1,34.78,0a2.78,2.78,0,0,1,1,.15,1.82,1.82,0,0,1,.73.48l-.78.82a.94.94,0,0,0-.4-.25,1.88,1.88,0,0,0-.46-.06h-.09a.62.62,0,0,0-.46.15.45.45,0,0,0-.15.34.52.52,0,0,0,0,.14.76.76,0,0,0,.08.11l.13.1a.53.53,0,0,0,.21.06l.61.08a1.76,1.76,0,0,1,1,.44,1.26,1.26,0,0,1,.28.49,2.29,2.29,0,0,1,.09.68"/><rect class="cls-1" x="37.06" y="0.05" width="1.24" height="5.31"/><path class="cls-1" d="M42.74,3a4.28,4.28,0,0,1-.11,1.07,1.76,1.76,0,0,1-.41.71,1.62,1.62,0,0,1-.66.45,2.28,2.28,0,0,1-.8.14,1.85,1.85,0,0,1-1.4-.6,1.8,1.8,0,0,1-.46-1,9.44,9.44,0,0,1,0-1.14,8.74,8.74,0,0,1,0-1.14,1.74,1.74,0,0,1,.46-1A1.79,1.79,0,0,1,40,.15,1.94,1.94,0,0,1,40.76,0a1.84,1.84,0,0,1,1.42.55,2.09,2.09,0,0,1,.55,1.21H41.48a.87.87,0,0,0-.24-.46.74.74,0,0,0-.48-.14.57.57,0,0,0-.29.07.53.53,0,0,0-.2.16,1,1,0,0,0-.14.39,6.28,6.28,0,0,0,0,.92,6.37,6.37,0,0,0,0,.92,1,1,0,0,0,.14.39.56.56,0,0,0,.49.22.68.68,0,0,0,.55-.2.64.64,0,0,0,.15-.25,1.12,1.12,0,0,0,0-.32V3.38h-.74V2.3h2Z"/><polygon class="cls-1" points="47.22 5.35 46.14 5.35 44.52 2.68 44.52 5.35 43.28 5.35 43.28 0.04 44.37 0.04 45.98 2.71 45.98 0.04 47.22 0.04 47.22 5.35"/></g></g></svg>