<svg xmlns="http://www.w3.org/2000/svg" viewBox="0 0 300.47 65.14"><defs><style>.cls-1{fill:#fff;}</style></defs><g id="레이어_2" data-name="레이어 2"><g id="Layer_1" data-name="Layer 1"><path class="cls-1" d="M24.34,52a11.56,11.56,0,0,1-3.54,8.78,12.13,12.13,0,0,1-8.67,3.37,11.9,11.9,0,0,1-8.56-3.28A11.72,11.72,0,0,1,0,52V30.05H7.89V51.78A5.49,5.49,0,0,0,9,55.4a3.89,3.89,0,0,0,3.14,1.31,4.13,4.13,0,0,0,3.16-1.29,5.25,5.25,0,0,0,1.16-3.64V30.05h7.89Z"/><path class="cls-1" d="M53.36,63.82H46.47l-10.27-17v17H28.31V30.05H35.2L45.48,47v-17h7.88Z"/><path class="cls-1" d="M65.76,63.82H57.87V30.05h7.89Z"/><path class="cls-1" d="M94.15,60.92l-4,4.22-2.48-2.6A12.7,12.7,0,0,1,72.47,60.3a11.24,11.24,0,0,1-2.88-6.11,49.41,49.41,0,0,1-.36-7.26,52.78,52.78,0,0,1,.32-7.26,11.28,11.28,0,0,1,2.92-6.11,12.36,12.36,0,0,1,4-2.86,12.55,12.55,0,0,1,5-.94,11.86,11.86,0,0,1,9,3.8,11.32,11.32,0,0,1,2.89,6.11,51,51,0,0,1,.36,7.26V48.5a32,32,0,0,1-.46,6.35,11.72,11.72,0,0,1-1.4,3.61Zm-8.38-14a41.52,41.52,0,0,0-.27-5.83,6.14,6.14,0,0,0-.9-2.48,3.34,3.34,0,0,0-1.29-1.06,4.4,4.4,0,0,0-1.88-.41,4.25,4.25,0,0,0-1.84.41,3.93,3.93,0,0,0-1.31,1.06,6.1,6.1,0,0,0-.9,2.45,43.18,43.18,0,0,0-.27,5.86,42.72,42.72,0,0,0,.27,5.84,6,6,0,0,0,.9,2.42,3.93,3.93,0,0,0,1.31,1.06,4,4,0,0,0,1.84.46h.64l-2-2.16,4-4.25,1.52,1.61c0-.28,0-1,.1-2S85.77,47.81,85.77,46.93Z"/><path class="cls-1" d="M120.92,52a11.56,11.56,0,0,1-3.54,8.78,12.11,12.11,0,0,1-8.67,3.37,11.9,11.9,0,0,1-8.56-3.28A11.75,11.75,0,0,1,96.59,52V30.05h7.88V51.78a5.49,5.49,0,0,0,1.1,3.62,3.9,3.9,0,0,0,3.14,1.31,4.13,4.13,0,0,0,3.16-1.29A5.25,5.25,0,0,0,113,51.78V30.05h7.88Z"/><path class="cls-1" d="M146.7,63.82H124.88V30.05H146.7v7.39H132.78v5.64h11.89v7.41H132.78v5.93H146.7Z"/><path class="cls-1" d="M182.21,46.93V49.4a28.62,28.62,0,0,1-.44,5.88,11.31,11.31,0,0,1-2.89,5.22A9.94,9.94,0,0,1,175,63a13.81,13.81,0,0,1-4.81.83H158.32V30.05h11.91a14.08,14.08,0,0,1,4.84.8,10,10,0,0,1,3.83,2.53,11.3,11.3,0,0,1,2.48,4,22.35,22.35,0,0,1,.83,7.13Zm-7.88,0c0-2.76-.07-4.57-.18-5.48a5.33,5.33,0,0,0-.73-2.21A3.75,3.75,0,0,0,172,37.92a4.78,4.78,0,0,0-2.31-.48h-3.47v19h3.47a4.63,4.63,0,0,0,2.3-.51,3.91,3.91,0,0,0,1.46-1.34,4.72,4.72,0,0,0,.71-2.17A51.67,51.67,0,0,0,174.33,46.93Z"/><path class="cls-1" d="M207.5,63.82H185.68V30.05H207.5v7.39H193.57v5.64h11.9v7.41h-11.9v5.93H207.5Z"/><path class="cls-1" d="M232.64,53.48A9.6,9.6,0,0,1,229,61.35a13.53,13.53,0,0,1-8.76,2.76,21.53,21.53,0,0,1-6.71-.9,13.05,13.05,0,0,1-5.44-3.56l5-5.32a6.87,6.87,0,0,0,3.09,1.81,14.57,14.57,0,0,0,4.08.57c3.06,0,4.59-1,4.59-3a2.93,2.93,0,0,0-.63-2,2.61,2.61,0,0,0-.81-.57,3.84,3.84,0,0,0-1.3-.33l-3.88-.57a10.81,10.81,0,0,1-6.47-3c-1.46-1.57-2.18-3.82-2.18-6.76a10.11,10.11,0,0,1,3.15-7.69c2.1-2,5-3,8.56-3a18.54,18.54,0,0,1,6.16.92,12.06,12.06,0,0,1,4.66,3.11l-5,5.22a5.7,5.7,0,0,0-2.59-1.59,10.8,10.8,0,0,0-2.91-.4h-.59a4,4,0,0,0-2.9.93,2.89,2.89,0,0,0-1,2.2,2.06,2.06,0,0,0,.15.87,3,3,0,0,0,.49.72,3.73,3.73,0,0,0,.85.62,3.57,3.57,0,0,0,1.34.34l3.88.58a10.43,10.43,0,0,1,6.3,2.8,7.57,7.57,0,0,1,1.83,3.1A14.52,14.52,0,0,1,232.64,53.48Z"/><path class="cls-1" d="M243.72,63.82h-7.88V30.05h7.88Z"/><path class="cls-1" d="M271.94,49.07a26.41,26.41,0,0,1-.69,6.76,11,11,0,0,1-2.58,4.52,10.56,10.56,0,0,1-4.18,2.9,14.75,14.75,0,0,1-5.12.86,11.79,11.79,0,0,1-8.93-3.81,11.38,11.38,0,0,1-2.88-6.11,49.81,49.81,0,0,1-.35-7.26,53.87,53.87,0,0,1,.3-7.26,11.5,11.5,0,0,1,2.93-6.11,12.52,12.52,0,0,1,3.95-2.83,12.06,12.06,0,0,1,5-1,11.91,11.91,0,0,1,9.06,3.51A13.16,13.16,0,0,1,271.89,41H264a5.46,5.46,0,0,0-1.52-2.89,4.54,4.54,0,0,0-3.07-.91,4,4,0,0,0-1.83.41,3.81,3.81,0,0,0-1.28,1.06,5.69,5.69,0,0,0-.9,2.45,40,40,0,0,0-.27,5.86,40.44,40.44,0,0,0,.27,5.88,5.63,5.63,0,0,0,.9,2.47,3.59,3.59,0,0,0,3.11,1.43,4.41,4.41,0,0,0,3.51-1.34,3.75,3.75,0,0,0,.93-1.58,6.83,6.83,0,0,0,.29-2v-.49h-4.73V44.37h12.57Z"/><path class="cls-1" d="M300.47,63.82h-6.89l-10.28-17v17h-7.89V30.05h6.9l10.28,17v-17h7.88Z"/><line class="cls-1" x1="0.16" y1="9.09" x2="13.73" y2="9.09"/><rect class="cls-1" x="0.16" y="8.74" width="13.57" height="0.72"/><line class="cls-1" x1="6.94" y1="15.89" x2="6.94" y2="2.3"/><rect class="cls-1" x="6.59" y="2.3" width="0.7" height="13.58"/><line class="cls-1" x1="132.48" y1="9.09" x2="146.04" y2="9.09"/><rect class="cls-1" x="132.48" y="8.74" width="13.56" height="0.72"/><line class="cls-1" x1="139.26" y1="15.89" x2="139.26" y2="2.3"/><rect class="cls-1" x="138.91" y="2.3" width="0.7" height="13.58"/><line class="cls-1" x1="286.85" y1="9.09" x2="300.42" y2="9.09"/><rect class="cls-1" x="286.85" y="8.74" width="13.57" height="0.72"/><line class="cls-1" x1="293.63" y1="15.89" x2="293.63" y2="2.3"/><rect class="cls-1" x="293.28" y="2.3" width="0.72" height="13.58"/><path class="cls-1" d="M64.84,6.43a7.6,7.6,0,0,1-4.24,1,7.57,7.57,0,0,1-4.22-1,3,3,0,0,1-1.55-2.56,3,3,0,0,1,1.55-2.55,7.48,7.48,0,0,1,4.22-1,7.51,7.51,0,0,1,4.24,1,3,3,0,0,1,1.54,2.55A3,3,0,0,1,64.84,6.43ZM57.45,2.1a2,2,0,0,0-1.27,1.77,2,2,0,0,0,1.28,1.75,6.81,6.81,0,0,0,3.14.67,6.9,6.9,0,0,0,3.13-.66A1.94,1.94,0,0,0,65,3.9a2,2,0,0,0-1.26-1.79,6.66,6.66,0,0,0-3.14-.67A6.77,6.77,0,0,0,57.45,2.1Zm6.67,8.78v5.83H62.86V10.88H58.45v5.63H57.17V10.88H53.09V9.7h15v1.18Z"/><path class="cls-1" d="M80.09,16.71V0h1.29V16.71Zm-3.34-4.44a21.22,21.22,0,0,1-2.81.28c-.87,0-1.81,0-2.81,0H69.51v-11H70.8v9.78l3.19,0a23.55,23.55,0,0,0,2.66-.25c1-.13,1.76-.27,2.34-.39v1.17C78.46,12,77.71,12.12,76.75,12.27Z"/><path class="cls-1" d="M82.81,14.1V12.93H93.24c.09-.45.2-1.09.33-1.93s.27-1.85.41-3c-.48.07-1,.15-1.67.2s-1.29.09-2,.12c-.94,0-2.13.06-3.56.06H84.5V7.23H87c1.52,0,2.67,0,3.44-.06l2-.15c.69-.06,1.26-.13,1.7-.21.09-.85.17-1.51.21-2a14.36,14.36,0,0,0,.12-1.46H84.79V2.2H95.87c0,.88-.1,1.77-.2,2.7s-.2,1.83-.33,2.69c-.15,1.23-.32,2.32-.47,3.27l-.33,2.07h3.3V14.1Z"/><path class="cls-1" d="M209.43,16.71V0h1.28V16.71Zm-3.17-4.19c-.91.11-1.87.18-2.86.2s-1.92,0-2.93,0h-1.65V2.05h7.52V3.23h-6.26v8.36l3.7,0c.77,0,1.61-.1,2.5-.21a16.43,16.43,0,0,0,1.89-.26v1.16C207.8,12.33,207.16,12.42,206.26,12.52Z"/><path class="cls-1" d="M225.24,8v8.67H224V0h1.27V6.82h2.46V8Zm-4,5.27a11.4,11.4,0,0,1-1.07-.84A9.47,9.47,0,0,1,218.82,11a9,9,0,0,1-1-1.75c-.24-.57-.4-1-.49-1.29a9.37,9.37,0,0,1-.43,1.25,9.59,9.59,0,0,1-1,1.71,13.22,13.22,0,0,1-1.45,1.76,10,10,0,0,1-1.35,1.16l-1-1a11.58,11.58,0,0,0,1.53-1.24,9.62,9.62,0,0,0,1.46-1.76,10.14,10.14,0,0,0,1.12-2.46,9.27,9.27,0,0,0,.44-2.74V3.09h-3.61V1.91h8.65V3.09H218V4.63a9.42,9.42,0,0,0,.4,2.68,8.33,8.33,0,0,0,1.07,2.37,8,8,0,0,0,1.35,1.6,8.49,8.49,0,0,0,1.24.92Z"/><path class="cls-1" d="M239.51,12.13V0h1.26V12.13ZM234.88,1.84a4.22,4.22,0,0,1,1.16,3,4.21,4.21,0,0,1-1.16,3,4.15,4.15,0,0,1-5.92,0,4.2,4.2,0,0,1-1.15-3,4.21,4.21,0,0,1,1.15-3,4.15,4.15,0,0,1,5.92,0Zm-5,.88a3.11,3.11,0,0,0-.74,2.11,3.07,3.07,0,0,0,.74,2.09,2.89,2.89,0,0,0,4.09,0,3.2,3.2,0,0,0,.7-2.09,3.23,3.23,0,0,0-.7-2.11,2.84,2.84,0,0,0-4.09,0Zm.37,13.6v-5.2h1.29v4h9.61v1.16Z"/></g></g></svg>