<svg xmlns="http://www.w3.org/2000/svg" viewBox="0 0 205.52 44.55"><defs><style>.cls-1{fill:#404041;}</style></defs><g id="레이어_2" data-name="레이어 2"><g id="Layer_1" data-name="Layer 1"><path class="cls-1" d="M16.65,35.54a7.9,7.9,0,0,1-2.42,6A8.26,8.26,0,0,1,8.3,43.85a8.15,8.15,0,0,1-5.86-2.24A8,8,0,0,1,0,35.54v-15H5.4V35.42a3.74,3.74,0,0,0,.75,2.47,2.66,2.66,0,0,0,2.15.9,2.83,2.83,0,0,0,2.16-.88,3.6,3.6,0,0,0,.79-2.49V20.55h5.4Z"/><path class="cls-1" d="M36.5,43.65H31.79L24.76,32V43.65H19.37V20.55h4.71l7,11.62V20.55h5.4Z"/><path class="cls-1" d="M45,43.65h-5.4V20.55H45Z"/><path class="cls-1" d="M64.4,41.67l-2.74,2.88L60,42.78a8.71,8.71,0,0,1-10.39-1.53,7.68,7.68,0,0,1-2-4.19,34.08,34.08,0,0,1-.25-5,34.83,34.83,0,0,1,.22-5,7.81,7.81,0,0,1,2-4.19A8.22,8.22,0,0,1,52.28,21a8.52,8.52,0,0,1,3.42-.64A8.13,8.13,0,0,1,61.84,23a7.75,7.75,0,0,1,2,4.19,34.08,34.08,0,0,1,.25,5v1.07a21.73,21.73,0,0,1-.31,4.35,8.11,8.11,0,0,1-1,2.47ZM58.67,32.1a28.69,28.69,0,0,0-.19-4,4,4,0,0,0-.62-1.69,2.17,2.17,0,0,0-.87-.73,3,3,0,0,0-1.29-.28,2.85,2.85,0,0,0-1.26.28,2.38,2.38,0,0,0-.89.73,4,4,0,0,0-.62,1.67,28.63,28.63,0,0,0-.19,4,28.18,28.18,0,0,0,.19,4,4,4,0,0,0,.62,1.66,2.43,2.43,0,0,0,.89.72,2.65,2.65,0,0,0,1.26.32h.43l-1.38-1.48,2.75-2.9,1,1.1c0-.2,0-.67.06-1.4S58.67,32.7,58.67,32.1Z"/><path class="cls-1" d="M82.71,35.54a7.9,7.9,0,0,1-2.42,6,8.26,8.26,0,0,1-5.93,2.31,8.15,8.15,0,0,1-5.86-2.24,8.05,8.05,0,0,1-2.44-6.07v-15h5.4V35.42a3.74,3.74,0,0,0,.75,2.47,2.66,2.66,0,0,0,2.15.9,2.83,2.83,0,0,0,2.16-.88,3.6,3.6,0,0,0,.8-2.49V20.55h5.39Z"/><path class="cls-1" d="M100.34,43.65H85.42V20.55h14.92v5.06H90.82v3.86H99v5.07H90.82v4.05h9.52Z"/><path class="cls-1" d="M124.63,32.1v1.69a19.44,19.44,0,0,1-.3,4,7.66,7.66,0,0,1-2,3.57,6.83,6.83,0,0,1-2.62,1.7,9.42,9.42,0,0,1-3.3.57h-8.14V20.55h8.14a9.61,9.61,0,0,1,3.31.55,6.75,6.75,0,0,1,2.62,1.73,7.8,7.8,0,0,1,1.7,2.74,15.09,15.09,0,0,1,.57,4.87Zm-5.39,0c0-1.89,0-3.13-.12-3.75a3.68,3.68,0,0,0-.5-1.51,2.62,2.62,0,0,0-1-.9,3.3,3.3,0,0,0-1.59-.33h-2.37v13h2.37a3.33,3.33,0,0,0,1.58-.34,2.79,2.79,0,0,0,1-.93,3.28,3.28,0,0,0,.49-1.48C119.2,35.25,119.24,34,119.24,32.1Z"/><path class="cls-1" d="M141.93,43.65H127V20.55h14.93v5.06H132.4v3.86h8.14v5.07H132.4v4.05h9.53Z"/><path class="cls-1" d="M159.13,36.58a6.55,6.55,0,0,1-2.5,5.38,9.24,9.24,0,0,1-6,1.89,15.09,15.09,0,0,1-4.59-.61,9,9,0,0,1-3.72-2.44l3.45-3.64a4.62,4.62,0,0,0,2.11,1.24,10.11,10.11,0,0,0,2.79.39c2.1,0,3.15-.7,3.15-2.08a2,2,0,0,0-.44-1.36,2.08,2.08,0,0,0-.55-.39,2.5,2.5,0,0,0-.89-.23l-2.66-.39a7.34,7.34,0,0,1-4.42-2.06,6.54,6.54,0,0,1-1.49-4.63,6.91,6.91,0,0,1,2.15-5.25,8.14,8.14,0,0,1,5.86-2,12.84,12.84,0,0,1,4.21.62,8.37,8.37,0,0,1,3.19,2.13l-3.39,3.57a4,4,0,0,0-1.77-1.09,7.7,7.7,0,0,0-2-.27h-.4a2.77,2.77,0,0,0-2,.63,2,2,0,0,0-.66,1.51,1.51,1.51,0,0,0,.1.6,2.07,2.07,0,0,0,.34.49,2.34,2.34,0,0,0,.58.42,2.5,2.5,0,0,0,.92.24l2.65.39a7.13,7.13,0,0,1,4.31,1.92,5.2,5.2,0,0,1,1.25,2.12A9.88,9.88,0,0,1,159.13,36.58Z"/><path class="cls-1" d="M166.7,43.65h-5.39V20.55h5.39Z"/><path class="cls-1" d="M186,33.56a18.29,18.29,0,0,1-.47,4.63,7.57,7.57,0,0,1-1.76,3.09,7.22,7.22,0,0,1-2.86,2,10.08,10.08,0,0,1-3.5.59,8.09,8.09,0,0,1-6.11-2.6,7.82,7.82,0,0,1-2-4.19,33,33,0,0,1-.24-5,37.6,37.6,0,0,1,.2-5,8,8,0,0,1,2-4.19A8.39,8.39,0,0,1,174,21a9.17,9.17,0,0,1,9.6,1.74A9,9,0,0,1,186,28h-5.42a3.79,3.79,0,0,0-1-2,3.15,3.15,0,0,0-2.1-.62,2.78,2.78,0,0,0-1.26.28,2.57,2.57,0,0,0-.87.73,3.75,3.75,0,0,0-.61,1.67,27.11,27.11,0,0,0-.19,4,27.37,27.37,0,0,0,.19,4,3.7,3.7,0,0,0,.61,1.69,2.46,2.46,0,0,0,2.13,1,3,3,0,0,0,2.4-.92,2.53,2.53,0,0,0,.63-1.08,4.63,4.63,0,0,0,.2-1.37v-.34h-3.23V30.35H186Z"/><path class="cls-1" d="M205.52,43.65h-4.71l-7-11.62V43.65h-5.39V20.55h4.71l7,11.62V20.55h5.39Z"/><line class="cls-1" x1="0.11" y1="6.22" x2="9.39" y2="6.22"/><rect class="cls-1" x="0.11" y="5.98" width="9.28" height="0.49"/><line class="cls-1" x1="4.75" y1="10.87" x2="4.75" y2="1.58"/><rect class="cls-1" x="4.51" y="1.58" width="0.48" height="9.29"/><line class="cls-1" x1="90.61" y1="6.22" x2="99.89" y2="6.22"/><rect class="cls-1" x="90.61" y="5.98" width="9.28" height="0.49"/><line class="cls-1" x1="95.25" y1="10.87" x2="95.25" y2="1.58"/><rect class="cls-1" x="95.01" y="1.58" width="0.48" height="9.29"/><line class="cls-1" x1="196.2" y1="6.22" x2="205.48" y2="6.22"/><rect class="cls-1" x="196.2" y="5.98" width="9.28" height="0.49"/><line class="cls-1" x1="200.84" y1="10.87" x2="200.84" y2="1.58"/><rect class="cls-1" x="200.6" y="1.58" width="0.49" height="9.29"/><path class="cls-1" d="M44.35,4.4a5.25,5.25,0,0,1-2.9.69,5.24,5.24,0,0,1-2.89-.69A2.05,2.05,0,0,1,37.5,2.65,2.05,2.05,0,0,1,38.56.9,5.15,5.15,0,0,1,41.45.2a5.16,5.16,0,0,1,2.9.7,2.06,2.06,0,0,1,1,1.75A2.06,2.06,0,0,1,44.35,4.4Zm-5.06-3a1.33,1.33,0,0,0-.86,1.21,1.37,1.37,0,0,0,.87,1.2,4.68,4.68,0,0,0,2.15.45,4.64,4.64,0,0,0,2.14-.45,1.33,1.33,0,0,0,.87-1.19,1.33,1.33,0,0,0-.86-1.21A4.41,4.41,0,0,0,41.45,1,4.55,4.55,0,0,0,39.29,1.44Zm4.57,6v4H43v-4H40v3.85H39.1V7.44H36.31V6.63H46.59v.81Z"/><path class="cls-1" d="M54.78,11.43V0h.88V11.43Zm-2.28-3a14.48,14.48,0,0,1-1.93.19c-.59,0-1.24,0-1.92,0h-1.1V1.1h.88V7.79l2.18,0a16.89,16.89,0,0,0,1.82-.17c.67-.09,1.2-.18,1.6-.27v.81C53.67,8.2,53.15,8.29,52.5,8.39Z"/><path class="cls-1" d="M56.64,9.65V8.84h7.14c.06-.31.14-.74.22-1.32s.18-1.26.28-2a9.86,9.86,0,0,1-1.14.14c-.43,0-.89.07-1.34.09-.64,0-1.45,0-2.43,0H57.8V4.94h1.69c1,0,1.82,0,2.35,0s.92-.06,1.39-.1.86-.09,1.16-.14c.07-.58.12-1,.15-1.36s.07-.67.09-1H58V1.5h7.57c0,.61-.06,1.22-.13,1.85s-.14,1.25-.23,1.84c-.1.84-.21,1.59-.32,2.24s-.18,1.11-.22,1.41h2.25v.81Z"/><path class="cls-1" d="M143.25,11.43V0h.88V11.43Zm-2.17-2.87a17.37,17.37,0,0,1-2,.14c-.64,0-1.32,0-2,0H136V1.4h5.15v.81h-4.28V7.93l2.53,0c.52,0,1.09-.06,1.7-.14a11.5,11.5,0,0,0,1.3-.18v.79C142.13,8.43,141.7,8.49,141.08,8.56Z"/><path class="cls-1" d="M154.06,5.5v5.93h-.87V0h.87V4.67h1.69V5.5Zm-2.73,3.61c-.19-.14-.44-.34-.73-.58a7.53,7.53,0,0,1-.93-1A6.15,6.15,0,0,1,149,6.3a7.65,7.65,0,0,1-.34-.89,5,5,0,0,1-.3.86,5.88,5.88,0,0,1-.66,1.17,9.33,9.33,0,0,1-1,1.21,6.19,6.19,0,0,1-.92.79l-.69-.67a7.12,7.12,0,0,0,1-.85,6.5,6.5,0,0,0,1-1.2A7.23,7.23,0,0,0,147.89,5a6.24,6.24,0,0,0,.3-1.87v-1h-2.47V1.3h5.92v.82h-2.52v1A6.6,6.6,0,0,0,149.39,5a5.75,5.75,0,0,0,.74,1.62,5.53,5.53,0,0,0,.93,1.1,5.72,5.72,0,0,0,.84.62Z"/><path class="cls-1" d="M163.82,8.3V0h.86V8.3Zm-3.16-7a2.92,2.92,0,0,1,.79,2.05,2.91,2.91,0,0,1-.79,2,2.84,2.84,0,0,1-4,0,2.86,2.86,0,0,1-.79-2,2.88,2.88,0,0,1,.79-2,2.84,2.84,0,0,1,4,0Zm-3.42.6a2.13,2.13,0,0,0-.5,1.45,2.09,2.09,0,0,0,.5,1.42,2,2,0,0,0,2.8,0,2.18,2.18,0,0,0,.48-1.42A2.22,2.22,0,0,0,160,1.86a2,2,0,0,0-2.8,0Zm.26,9.3V7.61h.88v2.76H165v.79Z"/></g></g></svg>