<svg xmlns="http://www.w3.org/2000/svg" viewBox="0 0 841.88 156.22"><defs><style>.cls-1,.cls-12,.cls-16,.cls-4,.cls-5,.cls-9{fill:none;}.cls-1{stroke:#231f20;stroke-width:0.25px;}.cls-1,.cls-3{stroke-miterlimit:10;}.cls-2{fill:#004da0;}.cls-10,.cls-11,.cls-13,.cls-14,.cls-15,.cls-17,.cls-3,.cls-6,.cls-7,.cls-8{fill:#fff;}.cls-3{stroke:#404041;stroke-width:2px;}.cls-10,.cls-14,.cls-16,.cls-17,.cls-4,.cls-5,.cls-6,.cls-9{stroke:#002d54;}.cls-10,.cls-14,.cls-16,.cls-17,.cls-4,.cls-6,.cls-8,.cls-9{stroke-linecap:round;stroke-linejoin:round;}.cls-4,.cls-5,.cls-6,.cls-7{stroke-width:1.21px;}.cls-11,.cls-12,.cls-13,.cls-15,.cls-7,.cls-8{stroke:#004da0;}.cls-8,.cls-9{stroke-width:1.25px;}.cls-10,.cls-11,.cls-12{stroke-width:1.28px;}.cls-13,.cls-14{stroke-width:1.25px;}.cls-15,.cls-16,.cls-17{stroke-width:1.29px;}.cls-18{fill:#808285;}</style></defs><g id="레이어_2" data-name="레이어 2"><g id="Layer_1" data-name="Layer 1"><line class="cls-1" y1="71.87" x2="841.88" y2="71.87"/><path class="cls-2" d="M135.57,94.13h1.49l-.76,4.28h0c.27-.4.56-.72.82-1l2.73-3.23h1.88l-3.61,4,2.13,5.24h-1.65L137,99.11l-1,1-.6,3.27h-1.5Z"/><path class="cls-2" d="M144.29,94.13l-1.66,9.22h-1.52l1.66-9.22Z"/><path class="cls-2" d="M150.8,103.08a5.57,5.57,0,0,1-2.28.41,3.54,3.54,0,0,1-3.74-3.87,5.66,5.66,0,0,1,2.06-4.55A5.11,5.11,0,0,1,150.1,94a3.68,3.68,0,0,1,1.91.42l-.44,1.29a3.53,3.53,0,0,0-1.65-.33,3.32,3.32,0,0,0-2.24.85,4.39,4.39,0,0,0-1.26,3.21c0,1.55.76,2.71,2.49,2.71a4.17,4.17,0,0,0,1.75-.35Z"/><path class="cls-2" d="M153.55,94.13H155l-.77,4.28h.06c.27-.4.56-.72.82-1l2.73-3.23h1.88l-3.61,4,2.13,5.24h-1.65L155,99.11l-1,1-.6,3.27h-1.5Z"/><path class="cls-2" d="M162.65,99.12l-.21,1.17h-3.26l.22-1.17Z"/><path class="cls-2" d="M171.68,97.79a6.54,6.54,0,0,1-1.58,4.41,4.26,4.26,0,0,1-3.14,1.3c-2.26,0-3.44-1.74-3.44-3.8a6.47,6.47,0,0,1,1.64-4.44A4.28,4.28,0,0,1,168.24,94C170.58,94,171.68,95.69,171.68,97.79Zm-5.35-1.68a5.53,5.53,0,0,0-1.21,3.51c0,1.39.59,2.54,2.06,2.54a2.36,2.36,0,0,0,1.71-.78,5.73,5.73,0,0,0,1.18-3.53c0-1.22-.4-2.53-2-2.53A2.34,2.34,0,0,0,166.33,96.11Z"/><path class="cls-2" d="M173.81,94.13h4.84l-.26,1.35h-3.3l-.47,2.6h3.07l-.25,1.34h-3.07l-.7,3.93h-1.52Z"/><path class="cls-2" d="M138.49,115.35l.58-4.34c.13-.94.31-2.24.53-3.38h0c-.46,1.08-1,2.28-1.46,3.25L136,115.24h-1.17l-.45-4.29c-.11-1-.19-2.22-.24-3.32h0c-.24,1.06-.5,2.45-.72,3.38l-1,4.34H131l2.22-9.22h2l.47,4.31c.06.82.16,1.78.17,2.65h.05c.31-.87.73-1.84,1.1-2.64l2.12-4.32h2L140,115.35Z"/><path class="cls-2" d="M147,111.25h-3.15l-.49,2.75h3.53l-.24,1.35h-5.06l1.66-9.22h4.87l-.25,1.35h-3.34l-.44,2.43h3.15Z"/><path class="cls-2" d="M153.44,111.25h-3.15L149.8,114h3.53l-.25,1.35H148l1.66-9.22h4.86l-.24,1.35H151l-.45,2.43h3.16Z"/><path class="cls-2" d="M157.45,107.52H155l.26-1.39h6.38l-.26,1.39H159l-1.4,7.83H156Z"/><path class="cls-2" d="M164.17,106.13l-1.66,9.22H161l1.66-9.22Z"/><path class="cls-2" d="M164.34,115.35l1.67-9.22h1.74l1.53,4.28a24.89,24.89,0,0,1,.8,2.89h0a26,26,0,0,1,.39-3.12l.73-4.05h1.43L171,115.35h-1.55L167.87,111a23,23,0,0,1-.84-3H167c-.09.88-.27,2-.51,3.38l-.71,3.94Z"/><path class="cls-2" d="M179.7,114.94a8.06,8.06,0,0,1-2.68.51,3.59,3.59,0,0,1-3.89-3.85,5.62,5.62,0,0,1,1.76-4.21,5.5,5.5,0,0,1,3.74-1.36,4.91,4.91,0,0,1,2.21.43l-.47,1.34a4.06,4.06,0,0,0-1.86-.39,3.6,3.6,0,0,0-2.44.91,4.3,4.3,0,0,0-1.29,3.16,2.31,2.31,0,0,0,2.5,2.61,3,3,0,0,0,1.12-.2l.41-2.31h-1.55l.25-1.29h3Z"/><path class="cls-2" d="M258.15,100.28a9,9,0,0,1,2.12-.22,3.56,3.56,0,0,1,2.23.65,2.23,2.23,0,0,1,.81,1.84,3.22,3.22,0,0,1-1.12,2.5,4.27,4.27,0,0,1-2.74.88,6,6,0,0,1-.82-.07l-.63,3.49h-1.49Zm.71,4.27a3.7,3.7,0,0,0,.79.08,2,2,0,0,0,2.14-2c0-1-.67-1.33-1.52-1.33a2.82,2.82,0,0,0-.84.09Z"/><path class="cls-2" d="M265.13,100.13h1.52L265.23,108h3.45l-.25,1.4h-5Z"/><path class="cls-2" d="M271.67,106.72l-1.2,2.63h-1.61l4.39-9.22h1.9l1.1,9.22h-1.58l-.25-2.63Zm2.66-1.23-.25-2.3c0-.49-.09-1.2-.13-1.75h0c-.24.55-.47,1.2-.72,1.75l-1.06,2.3Z"/><path class="cls-2" d="M277.28,109.35l1.67-9.22h1.74l1.53,4.28a24.89,24.89,0,0,1,.8,2.89h0a26,26,0,0,1,.39-3.12l.73-4.05h1.43l-1.67,9.22h-1.54L280.8,105a24.48,24.48,0,0,1-.83-3h-.05c-.09.88-.27,2-.51,3.38l-.71,3.94Z"/><path class="cls-2" d="M285.74,109.35l1.67-9.22h1.74l1.54,4.28a26.82,26.82,0,0,1,.79,2.89h0a28.27,28.27,0,0,1,.39-3.12l.73-4.05h1.43l-1.66,9.22h-1.55L289.27,105a21.31,21.31,0,0,1-.83-3h-.06c-.09.88-.27,2-.5,3.38l-.72,3.94Z"/><path class="cls-2" d="M297.37,100.13l-1.67,9.22h-1.52l1.67-9.22Z"/><path class="cls-2" d="M297.54,109.35l1.66-9.22h1.74l1.54,4.28a26.82,26.82,0,0,1,.79,2.89h0a24.12,24.12,0,0,1,.39-3.12l.72-4.05h1.43l-1.66,9.22h-1.55L301.06,105a22.78,22.78,0,0,1-.83-3h-.06c-.09.88-.27,2-.5,3.38l-.72,3.94Z"/><path class="cls-2" d="M312.89,108.94a8.06,8.06,0,0,1-2.68.51,3.85,3.85,0,0,1-2.89-1.08,3.93,3.93,0,0,1-1-2.77,5.65,5.65,0,0,1,1.76-4.21,5.5,5.5,0,0,1,3.74-1.36,5.06,5.06,0,0,1,2.21.42l-.46,1.35a4.13,4.13,0,0,0-1.86-.39,3.6,3.6,0,0,0-2.45.91,4.3,4.3,0,0,0-1.29,3.16,2.31,2.31,0,0,0,2.5,2.61,3,3,0,0,0,1.12-.2l.41-2.32h-1.54l.24-1.28h3Z"/><path class="cls-2" d="M378.36,100.26a11.9,11.9,0,0,1,2.22-.2,4.05,4.05,0,0,1,3.08,1.11,3.65,3.65,0,0,1,1,2.71,5.78,5.78,0,0,1-1.71,4.28,5.49,5.49,0,0,1-3.93,1.25,16.12,16.12,0,0,1-2.18-.14Zm.11,7.79a6.67,6.67,0,0,0,.92.06,3.3,3.3,0,0,0,2.66-1.14,4.68,4.68,0,0,0,1-3.07,2.27,2.27,0,0,0-2.5-2.56,4.12,4.12,0,0,0-.93.09Z"/><path class="cls-2" d="M389.9,105.24h-3L386.4,108h3.4l-.24,1.35h-4.85l1.59-9.22H391l-.23,1.35h-3.21l-.43,2.42h3Z"/><path class="cls-2" d="M392.28,109.35l-1-9.22h1.48l.49,5.07c.1,1,.15,1.7.19,2.5h0c.28-.76.6-1.61,1-2.56l2.24-5h1.61l-4.38,9.22Z"/><path class="cls-2" d="M402.57,105.24h-3l-.48,2.76h3.4l-.24,1.35h-4.86l1.6-9.22h4.67l-.24,1.35h-3.2l-.43,2.42h3Z"/><path class="cls-2" d="M404.79,100.13h1.46L404.89,108h3.3l-.23,1.4h-4.77Z"/><path class="cls-2" d="M416.78,103.79a6.7,6.7,0,0,1-1.52,4.41,4,4,0,0,1-3,1.3c-2.17,0-3.31-1.74-3.31-3.8a6.62,6.62,0,0,1,1.58-4.44,4,4,0,0,1,3-1.28C415.72,100,416.78,101.69,416.78,103.79Zm-5.14-1.68a5.67,5.67,0,0,0-1.16,3.51c0,1.39.57,2.54,2,2.54a2.23,2.23,0,0,0,1.64-.78,5.88,5.88,0,0,0,1.13-3.53c0-1.22-.38-2.53-1.93-2.53A2.23,2.23,0,0,0,411.64,102.11Z"/><path class="cls-2" d="M418.43,100.28a8.34,8.34,0,0,1,2-.22,3.33,3.33,0,0,1,2.15.65,2.26,2.26,0,0,1,.77,1.84,3.29,3.29,0,0,1-1.07,2.5,4,4,0,0,1-2.63.88,5.65,5.65,0,0,1-.79-.07l-.6,3.49h-1.43Zm.68,4.27a3.44,3.44,0,0,0,.77.08,1.93,1.93,0,0,0,2-2c0-1-.63-1.33-1.46-1.33a2.61,2.61,0,0,0-.8.09Z"/><path class="cls-2" d="M430.2,109.35l.56-4.34c.12-.94.3-2.24.51-3.38h0c-.43,1.08-.93,2.27-1.39,3.25l-2.08,4.36h-1.12l-.44-4.3c-.1-1-.17-2.21-.22-3.31h0c-.22,1.06-.47,2.45-.68,3.38l-1,4.34H423l2.13-9.22H427l.45,4.31c.07.82.15,1.78.17,2.65h.05c.3-.87.7-1.85,1.06-2.64l2-4.32h2l-1.11,9.22Z"/><path class="cls-2" d="M438,105.24h-3l-.47,2.76h3.39l-.23,1.35h-4.86l1.6-9.22h4.67l-.24,1.35h-3.21l-.42,2.42h3Z"/><path class="cls-2" d="M438.61,109.35l1.59-9.22h1.68l1.47,4.28a26.14,26.14,0,0,1,.76,2.89h0a27.55,27.55,0,0,1,.37-3.12l.7-4.05h1.37L445,109.35H443.5L442,105a23.93,23.93,0,0,1-.8-3h-.05c-.09.88-.26,2-.49,3.38l-.68,3.94Z"/><path class="cls-2" d="M449.22,101.52h-2.34l.25-1.39h6.13l-.25,1.39h-2.35l-1.34,7.83h-1.46Z"/><path class="cls-2" d="M529.37,100.28a9,9,0,0,1,2.12-.22,3.56,3.56,0,0,1,2.23.65,2.23,2.23,0,0,1,.81,1.84,3.22,3.22,0,0,1-1.12,2.5,4.27,4.27,0,0,1-2.74.88,6.13,6.13,0,0,1-.82-.07l-.62,3.49h-1.5Zm.71,4.27a3.73,3.73,0,0,0,.8.08,2,2,0,0,0,2.13-2c0-1-.66-1.33-1.52-1.33a2.7,2.7,0,0,0-.83.09Z"/><path class="cls-2" d="M536.34,100.28a9.61,9.61,0,0,1,2.15-.22,3.64,3.64,0,0,1,2.2.6,2,2,0,0,1,.83,1.67,2.74,2.74,0,0,1-2,2.64l0,0c.57.23.82.88.9,1.75a16.32,16.32,0,0,0,.31,2.59h-1.56a20.43,20.43,0,0,1-.23-2.2c-.07-1.18-.47-1.6-1.28-1.6h-.74l-.69,3.8H534.7Zm.76,4H538a1.82,1.82,0,0,0,2-1.77c0-.85-.64-1.23-1.5-1.23a3.06,3.06,0,0,0-.8.08Z"/><path class="cls-2" d="M545.07,100.13l-1.66,9.22h-1.52l1.66-9.22Z"/><path class="cls-2" d="M545.24,109.35l1.67-9.22h1.74l1.53,4.28a22.86,22.86,0,0,1,.79,2.89h0a26,26,0,0,1,.39-3.12l.73-4.05h1.43l-1.67,9.22h-1.54L548.76,105a24.48,24.48,0,0,1-.83-3h0c-.09.88-.27,2-.51,3.38l-.71,3.94Z"/><path class="cls-2" d="M556.68,101.52h-2.43l.26-1.39h6.38l-.26,1.39h-2.44l-1.4,7.83h-1.53Z"/><path class="cls-2" d="M632.5,106.72l-1.09,2.63h-1.47l4-9.22h1.73l1,9.22h-1.44l-.23-2.63Zm2.42-1.23-.22-2.3c0-.49-.09-1.2-.12-1.75h0c-.21.55-.42,1.2-.65,1.75l-1,2.3Z"/><path class="cls-2" d="M638.75,100.26a10.8,10.8,0,0,1,2.11-.2,3.72,3.72,0,0,1,2.92,1.11,3.77,3.77,0,0,1,.91,2.71,5.93,5.93,0,0,1-1.62,4.28,5,5,0,0,1-3.72,1.25,14.65,14.65,0,0,1-2.07-.14Zm.11,7.79a6.09,6.09,0,0,0,.88.06,3,3,0,0,0,2.51-1.14,4.83,4.83,0,0,0,1-3.07c0-1.53-.7-2.56-2.36-2.56a3.81,3.81,0,0,0-.89.09Z"/><path class="cls-2" d="M651.45,109.35,652,105c.12-.94.28-2.24.48-3.38h0c-.42,1.08-.89,2.27-1.33,3.25l-2,4.36h-1.06l-.42-4.3c-.09-1-.16-2.21-.21-3.31h0c-.21,1.06-.44,2.45-.65,3.38l-.91,4.34h-1.27l2-9.22h1.82l.43,4.31c.06.82.14,1.78.15,2.65h0c.28-.87.66-1.85,1-2.64l1.93-4.32h1.84l-1.05,9.22Z"/><path class="cls-2" d="M656.78,100.13l-1.51,9.22h-1.39l1.52-9.22Z"/><path class="cls-2" d="M656.58,109.35l1.52-9.22h1.58l1.4,4.28a27.58,27.58,0,0,1,.72,2.89h0a27.2,27.2,0,0,1,.36-3.12l.66-4.05h1.3l-1.52,9.22h-1.4L659.79,105a25,25,0,0,1-.76-3h0c-.08.88-.25,2-.46,3.38l-.65,3.94Z"/><path class="cls-2" d="M666.8,100.13l-1.51,9.22H663.9l1.52-9.22Z"/><path class="cls-2" d="M666.85,107.53a3.05,3.05,0,0,0,1.8.59,1.37,1.37,0,0,0,1.48-1.37c0-.6-.35-1-1.13-1.49a2.86,2.86,0,0,1-1.62-2.41,2.8,2.8,0,0,1,2.94-2.87,3.24,3.24,0,0,1,1.77.46l-.45,1.33a2.57,2.57,0,0,0-1.44-.41,1.26,1.26,0,0,0-1.38,1.2c0,.63.45,1,1.2,1.49a2.75,2.75,0,0,1,1.55,2.45,2.87,2.87,0,0,1-3.08,3,3.27,3.27,0,0,1-2.11-.65Z"/><path class="cls-2" d="M674.75,101.52h-2.21l.24-1.39h5.8l-.23,1.39h-2.23l-1.27,7.83h-1.39Z"/><path class="cls-2" d="M679.14,100.28a8,8,0,0,1,2-.22,3.09,3.09,0,0,1,2,.6,2.06,2.06,0,0,1,.76,1.67A2.71,2.71,0,0,1,682,105v0c.52.23.75.88.82,1.75a17.43,17.43,0,0,0,.28,2.59h-1.42a19.86,19.86,0,0,1-.21-2.2c-.06-1.18-.43-1.6-1.16-1.6h-.67l-.63,3.8h-1.36Zm.7,4h.78a1.73,1.73,0,0,0,1.8-1.77c0-.85-.58-1.23-1.36-1.23a2.61,2.61,0,0,0-.74.08Z"/><path class="cls-2" d="M685.8,106.72l-1.09,2.63h-1.46l4-9.22H689l1,9.22h-1.44l-.22-2.63Zm2.42-1.23-.22-2.3c0-.49-.08-1.2-.12-1.75h0c-.21.55-.43,1.2-.65,1.75l-1,2.3Z"/><path class="cls-2" d="M693.27,101.52h-2.22l.24-1.39h5.81l-.24,1.39h-2.22l-1.28,7.83H692Z"/><path class="cls-2" d="M699,100.13l-1.52,9.22h-1.38l1.51-9.22Z"/><path class="cls-2" d="M706.54,103.79a6.88,6.88,0,0,1-1.45,4.41,3.7,3.7,0,0,1-2.85,1.3c-2,0-3.13-1.74-3.13-3.8a6.87,6.87,0,0,1,1.49-4.44,3.75,3.75,0,0,1,2.8-1.28C705.53,100,706.54,101.69,706.54,103.79Zm-4.88-1.68a6,6,0,0,0-1.1,3.51c0,1.39.55,2.54,1.88,2.54a2,2,0,0,0,1.55-.78,6.05,6.05,0,0,0,1.08-3.53c0-1.22-.37-2.53-1.83-2.53A2.09,2.09,0,0,0,701.66,102.11Z"/><path class="cls-2" d="M706.61,109.35l1.51-9.22h1.59l1.39,4.28a23.35,23.35,0,0,1,.72,2.89h0a29.27,29.27,0,0,1,.35-3.12l.67-4.05h1.3l-1.52,9.22h-1.4L709.81,105a26.93,26.93,0,0,1-.75-3h0c-.08.88-.25,2-.46,3.38l-.65,3.94Z"/><path class="cls-3" d="M159.68,71.87a3.78,3.78,0,1,1-3.78-3.77A3.78,3.78,0,0,1,159.68,71.87Z"/><path class="cls-3" d="M289,71.87a3.78,3.78,0,1,1-3.78-3.77A3.78,3.78,0,0,1,289,71.87Z"/><path class="cls-3" d="M418.61,71.87a3.78,3.78,0,1,1-3.78-3.77A3.78,3.78,0,0,1,418.61,71.87Z"/><path class="cls-3" d="M547.9,71.87a3.78,3.78,0,1,1-3.78-3.77A3.78,3.78,0,0,1,547.9,71.87Z"/><path class="cls-3" d="M675.84,71.87a3.78,3.78,0,1,1-3.78-3.77A3.78,3.78,0,0,1,675.84,71.87Z"/><path class="cls-4" d="M178.58,35.84V32.17a9.79,9.79,0,0,0-2.88-7"/><path class="cls-4" d="M161.8,25.22a9.79,9.79,0,0,0-2.88,7v3.67"/><line class="cls-4" x1="163.33" y1="35.61" x2="163.33" y2="31.75"/><line class="cls-4" x1="174.16" y1="35.61" x2="174.16" y2="31.75"/><line class="cls-5" x1="168.75" y1="26.59" x2="168.75" y2="28.27"/><line class="cls-5" x1="168.75" y1="30.18" x2="168.75" y2="31.86"/><path class="cls-6" d="M177.73,15.66a9,9,0,1,1-9-9A9,9,0,0,1,177.73,15.66Z"/><line class="cls-6" x1="165.51" y1="14.39" x2="165.51" y2="15.85"/><line class="cls-6" x1="171.98" y1="14.39" x2="171.98" y2="15.85"/><path class="cls-6" d="M171.4,18.92A3.75,3.75,0,0,1,168.75,20h0a3.76,3.76,0,0,1-2.66-1.11"/><path class="cls-7" d="M147.85,4.92a9.72,9.72,0,0,1,7.53,15.86A5.9,5.9,0,0,0,159,24.35H147.85a9.72,9.72,0,0,1,0-19.43Z"/><line class="cls-7" x1="151.84" y1="11.53" x2="143.4" y2="11.53"/><line class="cls-7" x1="151.84" y1="15.09" x2="143.4" y2="15.09"/><line class="cls-7" x1="151.84" y1="18.65" x2="143.4" y2="18.65"/><path class="cls-6" d="M143.9,22.3a3.6,3.6,0,1,1-3.6-3.6A3.6,3.6,0,0,1,143.9,22.3Z"/><path class="cls-6" d="M147.38,36.42V31.1a3.55,3.55,0,0,0-3.54-3.54h-7.08a3.55,3.55,0,0,0-3.54,3.54v5.32"/><line class="cls-6" x1="136.42" y1="31.44" x2="136.42" y2="36.42"/><line class="cls-6" x1="144.18" y1="36.42" x2="144.18" y2="31.44"/><polygon class="cls-8" points="672.76 8.72 663.68 17.8 663.68 38.35 697.43 38.35 697.43 8.72 672.76 8.72"/><polygon class="cls-8" points="672.76 17.8 672.76 8.72 663.68 17.8 672.76 17.8"/><line class="cls-8" x1="667.77" y1="22.27" x2="681.2" y2="22.27"/><line class="cls-8" x1="667.77" y1="25.34" x2="681.2" y2="25.34"/><line class="cls-8" x1="667.77" y1="28.41" x2="681.2" y2="28.41"/><line class="cls-8" x1="667.77" y1="31.48" x2="681.2" y2="31.48"/><line class="cls-8" x1="676.34" y1="15.61" x2="679.03" y2="15.61"/><line class="cls-8" x1="680.82" y1="15.61" x2="683.51" y2="15.61"/><line class="cls-8" x1="685.3" y1="15.61" x2="687.99" y2="15.61"/><path class="cls-9" d="M641,33a5.24,5.24,0,0,0,.27,1.65A4.39,4.39,0,0,0,642,36a3.46,3.46,0,0,0,1.09.9,2.77,2.77,0,0,0,1.33.34h9.07a1.76,1.76,0,0,0,1.18-.49,1.64,1.64,0,0,0,.49-1.19,1.75,1.75,0,0,0-.13-.65,1.71,1.71,0,0,0-.89-.89,1.75,1.75,0,0,0-.65-.13h-1.13s0,0,0-.06,0-.05,0-.07a.13.13,0,0,1,0-.06.13.13,0,0,1,0-.06h2.2a1.75,1.75,0,0,0,.65-.13,2,2,0,0,0,.54-.36,1.73,1.73,0,0,0,.35-.54,1.54,1.54,0,0,0,.13-.65,1.69,1.69,0,0,0-.48-1.18,2,2,0,0,0-.54-.36,1.75,1.75,0,0,0-.65-.13h-2.17v-.25h2.17a1.75,1.75,0,0,0,.65-.13,2,2,0,0,0,.54-.36,1.69,1.69,0,0,0,.35-.53,1.65,1.65,0,0,0,.13-.66,1.69,1.69,0,0,0-.48-1.18,2,2,0,0,0-.54-.36,1.75,1.75,0,0,0-.65-.13h-2.18v-.09a.28.28,0,0,1,0-.09s0-.06,0-.1,0-.05,0-.08h8.53a2,2,0,0,0,.69-.14,1.92,1.92,0,0,0,.57-.39,1.79,1.79,0,0,0,.38-.56,1.86,1.86,0,0,0,.14-.7,1.82,1.82,0,0,0-.14-.7,1.79,1.79,0,0,0-.38-.56,1.59,1.59,0,0,0-.57-.38,1.78,1.78,0,0,0-.69-.15H650.07l.75-.68.74-.68.75-.69.74-.68a2,2,0,0,0,.66-1.41,2.09,2.09,0,0,0-.12-.78,2,2,0,0,0-.41-.69,2.14,2.14,0,0,0-.66-.48,2,2,0,0,0-.76-.18,2,2,0,0,0-.77.12,2.11,2.11,0,0,0-.7.42l-1.37,1.26-1.38,1.26-1.38,1.27-1.38,1.26a.08.08,0,0,1,0,0l0,0,0,0,0,0-.18.14-.18.14-.18.15-.18.14a2.91,2.91,0,0,0-1.15.48"/><path class="cls-10" d="M436.09,40.14V37.85a7.47,7.47,0,0,0-2.2-5.3"/><path class="cls-10" d="M423.29,32.55a7.5,7.5,0,0,0-2.19,5.3v2.29"/><line class="cls-10" x1="424.47" y1="39.97" x2="424.47" y2="37.44"/><line class="cls-10" x1="432.72" y1="39.97" x2="432.72" y2="37.44"/><line class="cls-10" x1="428.59" y1="33.6" x2="428.59" y2="34.87"/><line class="cls-10" x1="428.59" y1="36.34" x2="428.59" y2="37.62"/><path class="cls-10" d="M434.94,25.79a6.35,6.35,0,1,1-1.86-4.48A6.32,6.32,0,0,1,434.94,25.79Z"/><line class="cls-10" x1="424.84" y1="23.89" x2="424.84" y2="24.86"/><line class="cls-10" x1="429.29" y1="23.89" x2="429.29" y2="24.86"/><path class="cls-10" d="M428.83,26.91a2.48,2.48,0,0,1-1.76.73h0a2.5,2.5,0,0,1-1.77-.73"/><path class="cls-11" d="M405.19,8.07h20.5a2.3,2.3,0,0,1,2.3,2.3v5.69"/><polyline class="cls-12" points="430.36 14.07 427.99 16.44 425.62 14.07"/><path class="cls-11" d="M421.34,31.77h-20a2.29,2.29,0,0,1-2.3-2.3V23.78"/><polyline class="cls-12" points="396.65 25.77 399.03 23.4 401.4 25.77"/><path class="cls-11" d="M408.14,7.93a7.29,7.29,0,1,0-10.62,6.48v4.14A2.48,2.48,0,0,0,400,21h1.73a2.47,2.47,0,0,0,2.47-2.47V14.41A7.28,7.28,0,0,0,408.14,7.93Z"/><line class="cls-11" x1="397.61" y1="16.45" x2="404.1" y2="16.45"/><line class="cls-11" x1="397.61" y1="18.43" x2="404.1" y2="18.43"/><path class="cls-11" d="M401.88,9.54a1,1,0,0,1-1,1h0a1,1,0,0,1-1-1V5a1,1,0,0,1,1-1h0a1,1,0,0,1,1,1Z"/><path class="cls-11" d="M401.88,12.61a1,1,0,1,1-1-1A1,1,0,0,1,401.88,12.61Z"/><polygon class="cls-13" points="286.78 6.31 286.78 8.37 269.76 8.37 269.76 6.31 265.33 6.31 265.33 35.7 291.22 35.7 291.22 6.31 286.78 6.31"/><rect class="cls-13" x="268.63" y="11.36" width="19.29" height="21.35"/><line class="cls-13" x1="275.13" y1="14.97" x2="283.74" y2="14.97"/><line class="cls-13" x1="275.13" y1="18.58" x2="283.74" y2="18.58"/><line class="cls-13" x1="275.13" y1="22.19" x2="283.74" y2="22.19"/><line class="cls-13" x1="275.13" y1="25.8" x2="283.74" y2="25.8"/><line class="cls-13" x1="272.81" y1="14.97" x2="274.02" y2="14.97"/><line class="cls-13" x1="272.81" y1="18.58" x2="274.02" y2="18.58"/><line class="cls-13" x1="272.81" y1="22.19" x2="274.02" y2="22.19"/><line class="cls-13" x1="272.81" y1="25.8" x2="274.02" y2="25.8"/><path class="cls-13" d="M282.09,4.66a3.82,3.82,0,0,0-7.63,0h-4.7V8.37h17V4.66Zm-3.82.66a1.11,1.11,0,1,1,1.11-1.11A1.11,1.11,0,0,1,278.27,5.32Z"/><path class="cls-14" d="M288.09,36.55V28.77L277.43,15.9a1.76,1.76,0,1,1,2.71-2.25l8.32,10,8.91-.05a1.63,1.63,0,0,1,.8.17c.49.21,4.84,2.38,6.25,10.72a33.17,33.17,0,0,1,.59,3.89,1.67,1.67,0,0,1-1.38,1.76l-.17,0a1.66,1.66,0,0,1-1.77-1.55,28.57,28.57,0,0,0-.56-3.55,16.71,16.71,0,0,0-2.9-6.44v8.19"/><path class="cls-14" d="M299.26,17a6,6,0,1,1-6-6A6,6,0,0,1,299.26,17Z"/><line class="cls-14" x1="291.12" y1="16.18" x2="291.12" y2="17.15"/><line class="cls-14" x1="295.44" y1="16.18" x2="295.44" y2="17.15"/><path class="cls-14" d="M295.05,19.2a2.5,2.5,0,0,1-1.77.73h0a2.5,2.5,0,0,1-1.77-.73"/><line class="cls-15" x1="544.54" y1="11.23" x2="547.57" y2="11.23"/><rect class="cls-15" x="535.83" y="8.84" width="25.31" height="16.96"/><rect class="cls-15" x="533.01" y="25.8" width="30.95" height="3.17" rx="0.65"/><path class="cls-16" d="M524.28,40.33V37a8.86,8.86,0,0,1,2.6-6.29"/><path class="cls-16" d="M539.45,30.72a8.86,8.86,0,0,1,2.6,6.29v3.32"/><line class="cls-17" x1="538.05" y1="40.12" x2="538.05" y2="36.63"/><line class="cls-17" x1="528.27" y1="40.12" x2="528.27" y2="36.63"/><line class="cls-17" x1="533.16" y1="31.97" x2="533.16" y2="33.48"/><line class="cls-17" x1="533.16" y1="35.22" x2="533.16" y2="36.73"/><path class="cls-17" d="M525.31,22.26a8,8,0,1,0,2.34-5.66A8,8,0,0,0,525.31,22.26Z"/><line class="cls-17" x1="538.04" y1="19.86" x2="538.04" y2="21.09"/><line class="cls-17" x1="532.44" y1="19.86" x2="532.44" y2="21.09"/><path class="cls-17" d="M533,23.67a3.14,3.14,0,0,0,2.23.92h0a3.14,3.14,0,0,0,2.23-.92"/><rect class="cls-15" x="544.54" y="2.72" width="11.99" height="14.93"/><line class="cls-15" x1="547.03" y1="6.12" x2="554.05" y2="6.12"/><line class="cls-15" x1="547.03" y1="8.83" x2="554.05" y2="8.83"/><line class="cls-15" x1="547.03" y1="11.54" x2="554.05" y2="11.54"/><line class="cls-15" x1="547.03" y1="14.26" x2="554.05" y2="14.26"/><path class="cls-18" d="M267.08,122.89a6.12,6.12,0,0,1,1.18-.12,1.83,1.83,0,0,1,1.28.42,1.2,1.2,0,0,1,.4.93,1.73,1.73,0,0,1-1.28,1.63v0c.39.14.56.56.6,1.14a11,11,0,0,0,.17,1.56h-.69c0-.12-.08-.72-.12-1.37s-.31-1.1-.85-1.1h-.59l-.44,2.47h-.66Zm.19,2.57h.59a1.28,1.28,0,0,0,1.38-1.25c0-.61-.43-.88-1-.88a1.88,1.88,0,0,0-.56.06Z"/><path class="cls-18" d="M273,128.24a2.64,2.64,0,0,1-1.28.32c-1,0-1.46-.74-1.46-1.64,0-1.22.86-2.61,2.1-2.61a1,1,0,0,1,1.14,1c0,1.07-1.15,1.34-2.57,1.32a1.63,1.63,0,0,0,.08.77.85.85,0,0,0,.86.54,2.08,2.08,0,0,0,1-.27Zm-.14-2.87c0-.33-.24-.51-.59-.51-.63,0-1.1.64-1.26,1.28,1,0,1.85-.13,1.85-.76Z"/><path class="cls-18" d="M273.87,129.39a1.9,1.9,0,0,0,1,.27c.65,0,1.17-.35,1.39-1.45l.13-.61h0a1.55,1.55,0,0,1-1.34.87,1.26,1.26,0,0,1-1.18-1.41,2.6,2.6,0,0,1,2.45-2.75,3,3,0,0,1,1.24.29L277,128a3.06,3.06,0,0,1-.77,1.82,2,2,0,0,1-1.35.45,2.17,2.17,0,0,1-1.16-.29Zm3-4.38a1.43,1.43,0,0,0-.64-.15c-1,0-1.64,1.07-1.64,2.08,0,.45.15,1,.74,1s1.15-.75,1.29-1.55Z"/><path class="cls-18" d="M278,128.47l.73-4.07h.66l-.73,4.07Zm1.23-4.81a.42.42,0,0,1-.39-.46.49.49,0,0,1,.46-.49.41.41,0,0,1,.41.45.47.47,0,0,1-.47.5Z"/><path class="cls-18" d="M279.87,127.77a1.63,1.63,0,0,0,.83.25.68.68,0,0,0,.74-.66c0-.32-.14-.52-.54-.76a1.2,1.2,0,0,1-.7-1,1.3,1.3,0,0,1,1.41-1.26,1.51,1.51,0,0,1,.79.2l-.18.53a1.37,1.37,0,0,0-.66-.18.64.64,0,0,0-.7.61c0,.29.19.48.54.68a1.27,1.27,0,0,1,.72,1.07,1.34,1.34,0,0,1-1.48,1.34,1.74,1.74,0,0,1-1-.28Z"/><path class="cls-18" d="M284.52,123.43l-.18,1h.93l-.11.55h-.92l-.35,2a3,3,0,0,0-.08.65c0,.24.11.39.36.39a1.35,1.35,0,0,0,.31,0l0,.54a1.47,1.47,0,0,1-.51.08.73.73,0,0,1-.81-.79,3.8,3.8,0,0,1,.09-.77l.37-2H283l.1-.55h.55l.13-.74Z"/><path class="cls-18" d="M285.3,128.47l.48-2.62c.09-.53.15-1.07.19-1.45h.58c0,.29-.06.57-.1.88h0a1.42,1.42,0,0,1,1.18-1l.19,0-.13.69-.18,0c-.57,0-1.08.73-1.24,1.67l-.32,1.8Z"/><path class="cls-18" d="M290.41,128.47a10.11,10.11,0,0,1,.09-1h0a1.7,1.7,0,0,1-1.5,1.14c-.68,0-1.11-.57-1.11-1.34a2.78,2.78,0,0,1,2.67-2.91,3.94,3.94,0,0,1,1,.15l-.4,2.12a11,11,0,0,0-.16,1.89Zm.42-3.55a1.41,1.41,0,0,0-.45-.06,2.13,2.13,0,0,0-1.82,2.23c0,.45.15.9.65.9s1.22-.76,1.4-1.84Z"/><path class="cls-18" d="M293.71,123.43l-.17,1h.92l-.1.55h-.93l-.35,2a3,3,0,0,0-.08.65c0,.24.11.39.37.39a1.42,1.42,0,0,0,.31,0l0,.54a1.47,1.47,0,0,1-.51.08.74.74,0,0,1-.82-.79,4.68,4.68,0,0,1,.09-.77l.38-2h-.55l.09-.55h.55l.14-.74Z"/><path class="cls-18" d="M294.5,128.47l.73-4.07h.67l-.74,4.07Zm1.24-4.81a.42.42,0,0,1-.39-.46.47.47,0,0,1,.45-.49.42.42,0,0,1,.42.45.48.48,0,0,1-.48.5Z"/><path class="cls-18" d="M297.88,128.56a1.53,1.53,0,0,1-1.51-1.67,2.39,2.39,0,0,1,2.14-2.58A1.52,1.52,0,0,1,300,126a2.4,2.4,0,0,1-2.14,2.56ZM298,128c.78,0,1.37-1,1.37-2,0-.47-.2-1.14-.9-1.14s-1.38,1.07-1.38,2c0,.67.35,1.14.9,1.14Z"/><path class="cls-18" d="M300.5,128.47l.51-2.88c.09-.46.14-.85.18-1.19h.6l-.1.8h0a1.7,1.7,0,0,1,1.44-.89c.45,0,1,.28,1,1.13a3.9,3.9,0,0,1-.07.65l-.43,2.38H303l.42-2.35a4.34,4.34,0,0,0,.05-.53c0-.4-.16-.7-.61-.7s-1.14.6-1.32,1.6l-.35,2Z"/><path class="cls-18" d="M268.91,135.81l-1,5.66h-.66l1-5.66Z"/><path class="cls-18" d="M273.18,135.51l-.85,4.67a9.88,9.88,0,0,0-.16,1.29h-.61l.1-.81h0a1.64,1.64,0,0,1-1.4.9c-.74,0-1.15-.65-1.15-1.48a2.62,2.62,0,0,1,2.39-2.77,1.67,1.67,0,0,1,.68.14l.35-1.94ZM272.06,138a1,1,0,0,0-.63-.18c-.92,0-1.64,1-1.64,2.13,0,.49.16,1,.73,1s1.12-.62,1.29-1.53Z"/><path class="cls-18" d="M276,141.24a2.6,2.6,0,0,1-1.27.32,1.44,1.44,0,0,1-1.47-1.64c0-1.22.86-2.61,2.1-2.61a1,1,0,0,1,1.14,1.05c0,1.07-1.14,1.34-2.57,1.32a1.76,1.76,0,0,0,.08.77.85.85,0,0,0,.86.54,2.16,2.16,0,0,0,1-.27Zm-.14-2.87c0-.33-.24-.51-.59-.51-.63,0-1.1.64-1.26,1.28,1,0,1.85-.13,1.85-.76Z"/><path class="cls-18" d="M279.44,141.47a10.11,10.11,0,0,1,.09-1.05h0a1.7,1.7,0,0,1-1.5,1.14c-.68,0-1.11-.57-1.11-1.34a2.78,2.78,0,0,1,2.67-2.91,3.94,3.94,0,0,1,1,.15l-.4,2.12a11,11,0,0,0-.16,1.89Zm.42-3.55a1.41,1.41,0,0,0-.45-.06,2.13,2.13,0,0,0-1.82,2.23c0,.45.15.9.65.9s1.22-.76,1.4-1.84Z"/><path class="cls-18" d="M282.6,140.59a1.93,1.93,0,0,0,1.14.36,1.07,1.07,0,0,0,1.16-1c0-.43-.22-.74-.79-1.06S283,138,283,137.39a1.69,1.69,0,0,1,1.82-1.66,1.89,1.89,0,0,1,1.1.29l-.23.57a1.68,1.68,0,0,0-.93-.27,1,1,0,0,0-1.07.92c0,.47.27.73.84,1a1.68,1.68,0,0,1,1,1.51,1.76,1.76,0,0,1-1.94,1.76,2.14,2.14,0,0,1-1.29-.4Z"/><path class="cls-18" d="M286.2,141.47l1.08-6h.66l-.68,3.73h0a4.81,4.81,0,0,1,.36-.4L289,137.4h.83l-1.69,1.67,1.15,2.4h-.72l-.94-2-.48.45-.28,1.55Z"/><path class="cls-18" d="M292.62,141.24a2.57,2.57,0,0,1-1.27.32,1.44,1.44,0,0,1-1.47-1.64c0-1.22.86-2.61,2.1-2.61a1,1,0,0,1,1.14,1.05c0,1.07-1.14,1.34-2.57,1.32a1.76,1.76,0,0,0,.08.77.85.85,0,0,0,.86.54,2.16,2.16,0,0,0,1-.27Zm-.14-2.87c0-.33-.24-.51-.59-.51-.63,0-1.1.64-1.26,1.28,1,0,1.85-.13,1.85-.76Z"/><path class="cls-18" d="M295.16,136.43l-.18,1h.93l-.1.55h-.93l-.35,2a3,3,0,0,0-.08.65c0,.24.11.39.37.39a1.42,1.42,0,0,0,.31,0l0,.54a1.4,1.4,0,0,1-.51.08.73.73,0,0,1-.81-.79,3.8,3.8,0,0,1,.09-.77l.37-2.05h-.55l.1-.55h.55l.13-.74Z"/><path class="cls-18" d="M298.6,141.31a2.56,2.56,0,0,1-1.12.25A1.42,1.42,0,0,1,296,140a2.53,2.53,0,0,1,2.36-2.68,1.8,1.8,0,0,1,.8.18L299,138a1.52,1.52,0,0,0-.65-.15,1.87,1.87,0,0,0-1.64,2c0,.66.33,1.09,1,1.09a1.91,1.91,0,0,0,.89-.23Z"/><path class="cls-18" d="M299.32,141.47l1.08-6h.66l-.48,2.61h0a1.62,1.62,0,0,1,1.38-.81,1,1,0,0,1,1,1.09,3.82,3.82,0,0,1-.07.68l-.43,2.39h-.66l.43-2.35a4,4,0,0,0,.05-.57c0-.37-.17-.66-.6-.66s-1.16.63-1.32,1.54l-.36,2Z"/><path class="cls-18" d="M263.1,148.89a6.35,6.35,0,0,1,1.15-.12,1.7,1.7,0,0,1,1.24.39,1.09,1.09,0,0,1,.39.88,1.51,1.51,0,0,1-1.15,1.41v0a1.25,1.25,0,0,1,.88,1.26,1.67,1.67,0,0,1-.64,1.32,2.85,2.85,0,0,1-1.75.46,6.08,6.08,0,0,1-1.11-.09Zm-.25,5a3.2,3.2,0,0,0,.54,0c.79,0,1.52-.34,1.52-1.25,0-.66-.53-.95-1.13-.95h-.55Zm.49-2.7h.49c.78,0,1.37-.42,1.37-1.11,0-.54-.39-.77-1-.77a2.38,2.38,0,0,0-.55,0Z"/><path class="cls-18" d="M266.21,154.47l.47-2.62c.09-.53.15-1.07.19-1.45h.58c0,.29-.05.57-.1.88h0a1.44,1.44,0,0,1,1.18-1l.2,0-.13.69-.19,0c-.56,0-1.07.73-1.24,1.67l-.32,1.8Z"/><path class="cls-18" d="M271.31,154.47a10.11,10.11,0,0,1,.09-1.05h0c-.43.84-1,1.14-1.5,1.14s-1.11-.57-1.11-1.34a2.78,2.78,0,0,1,2.66-2.91,3.88,3.88,0,0,1,1,.15l-.39,2.12a9.27,9.27,0,0,0-.16,1.89Zm.43-3.55a1.49,1.49,0,0,0-.46-.06,2.13,2.13,0,0,0-1.82,2.23c0,.45.15.9.66.9s1.21-.76,1.39-1.84Z"/><path class="cls-18" d="M272.92,154.47l.51-2.88c.08-.46.14-.85.18-1.19h.6l-.11.8h0a1.7,1.7,0,0,1,1.44-.89c.45,0,1,.28,1,1.13a3.9,3.9,0,0,1-.07.65l-.43,2.38h-.66l.43-2.35a4.39,4.39,0,0,0,0-.53c0-.4-.15-.7-.6-.7s-1.14.6-1.32,1.6l-.35,2Z"/><path class="cls-18" d="M281.28,148.51l-.86,4.67c-.07.42-.13.89-.16,1.29h-.6l.1-.81h0a1.63,1.63,0,0,1-1.39.9c-.74,0-1.15-.65-1.15-1.48a2.62,2.62,0,0,1,2.38-2.77,1.76,1.76,0,0,1,.69.14l.34-1.94ZM280.16,151a1,1,0,0,0-.63-.18c-.93,0-1.65,1-1.65,2.13,0,.49.16,1,.73,1s1.13-.62,1.29-1.53Z"/><path class="cls-18" d="M282.83,154.47l1-5.66h.73l1.23,3.2a15.79,15.79,0,0,1,.47,1.58h0a14.34,14.34,0,0,1,.23-1.77l.55-3h.62l-1,5.66H286l-1.23-3.2a12.24,12.24,0,0,1-.49-1.63h0c-.06.53-.15,1.09-.28,1.86l-.54,3Z"/><path class="cls-18" d="M290.41,154.47a10.11,10.11,0,0,1,.09-1.05h0c-.43.84-1,1.14-1.5,1.14-.69,0-1.11-.57-1.11-1.34a2.78,2.78,0,0,1,2.66-2.91,3.88,3.88,0,0,1,1,.15l-.39,2.12a9.27,9.27,0,0,0-.16,1.89Zm.43-3.55a1.49,1.49,0,0,0-.46-.06,2.14,2.14,0,0,0-1.82,2.23c0,.45.15.9.66.9s1.21-.76,1.39-1.84Z"/><path class="cls-18" d="M292,154.47l.52-2.88c.08-.46.13-.85.17-1.19h.59l-.11.77h0a1.6,1.6,0,0,1,1.35-.86.86.86,0,0,1,.9.91,1.66,1.66,0,0,1,1.42-.91,1,1,0,0,1,.94,1.07,4.6,4.6,0,0,1-.07.69l-.43,2.4h-.64l.41-2.35a3,3,0,0,0,.06-.53c0-.42-.15-.7-.58-.7s-1.06.59-1.22,1.49l-.37,2.09h-.63l.43-2.39a2.91,2.91,0,0,0,.05-.49c0-.35-.09-.7-.58-.7s-1.08.67-1.24,1.54l-.36,2Z"/><path class="cls-18" d="M298.45,154.47l.74-4.07h.66l-.74,4.07Zm1.24-4.81a.42.42,0,0,1-.39-.46.48.48,0,0,1,.45-.49.42.42,0,0,1,.42.45.48.48,0,0,1-.47.5Z"/><path class="cls-18" d="M300.29,154.47l.51-2.88c.09-.46.14-.85.18-1.19h.6l-.1.8h0a1.7,1.7,0,0,1,1.44-.89c.45,0,1,.28,1,1.13a3.9,3.9,0,0,1-.07.65l-.43,2.38h-.66l.43-2.35a4.34,4.34,0,0,0,.05-.53c0-.4-.16-.7-.61-.7s-1.14.6-1.32,1.6l-.35,2Z"/><path class="cls-18" d="M304.58,155.39a1.9,1.9,0,0,0,1,.27c.65,0,1.16-.35,1.39-1.45l.13-.61h0a1.55,1.55,0,0,1-1.34.87,1.26,1.26,0,0,1-1.18-1.41,2.6,2.6,0,0,1,2.45-2.75,3.06,3.06,0,0,1,1.24.29l-.6,3.35a3.06,3.06,0,0,1-.77,1.82,2,2,0,0,1-1.35.45,2.17,2.17,0,0,1-1.16-.29Zm3-4.38a1.43,1.43,0,0,0-.64-.15c-1,0-1.64,1.07-1.64,2.08,0,.45.15,1,.74,1s1.14-.75,1.29-1.55Z"/><path class="cls-18" d="M396.05,122.89a8,8,0,0,1,1.33-.11,2.48,2.48,0,0,1,2,.73,2.18,2.18,0,0,1,.52,1.52,3.75,3.75,0,0,1-1.08,2.69,3.53,3.53,0,0,1-2.44.79,9.89,9.89,0,0,1-1.31-.08Zm-.24,5a5.92,5.92,0,0,0,.7,0,2.46,2.46,0,0,0,1.92-.75,3.12,3.12,0,0,0,.73-2.12,1.55,1.55,0,0,0-1.79-1.71,3.36,3.36,0,0,0-.74.06Z"/><path class="cls-18" d="M403,128.24a2.64,2.64,0,0,1-1.28.32,1.44,1.44,0,0,1-1.47-1.64c0-1.22.87-2.61,2.11-2.61a1,1,0,0,1,1.14,1c0,1.07-1.15,1.34-2.57,1.32a1.63,1.63,0,0,0,.08.77.86.86,0,0,0,.86.55,2.11,2.11,0,0,0,1-.28Zm-.14-2.87c0-.33-.24-.51-.59-.51-.63,0-1.11.64-1.26,1.28,1,0,1.85-.13,1.85-.76Z"/><path class="cls-18" d="M403.83,127.77a1.6,1.6,0,0,0,.83.25.68.68,0,0,0,.73-.66c0-.32-.13-.52-.54-.76a1.2,1.2,0,0,1-.7-1,1.31,1.31,0,0,1,1.41-1.26,1.58,1.58,0,0,1,.8.2l-.19.53a1.3,1.3,0,0,0-.66-.18.63.63,0,0,0-.69.61c0,.29.18.48.53.68a1.27,1.27,0,0,1,.72,1.07,1.34,1.34,0,0,1-1.48,1.34,1.7,1.7,0,0,1-.95-.28Z"/><path class="cls-18" d="M406.76,128.47l.74-4.06h.66l-.74,4.06Zm1.24-4.81a.42.42,0,0,1-.39-.46.48.48,0,0,1,.45-.49.42.42,0,0,1,.42.45.48.48,0,0,1-.47.5Z"/><path class="cls-18" d="M408.63,129.39a1.9,1.9,0,0,0,1,.27c.65,0,1.17-.35,1.39-1.45l.13-.61h0a1.55,1.55,0,0,1-1.34.87,1.26,1.26,0,0,1-1.18-1.41,2.6,2.6,0,0,1,2.45-2.75,3,3,0,0,1,1.24.29l-.59,3.35a3.19,3.19,0,0,1-.78,1.83,2,2,0,0,1-1.35.44,2.17,2.17,0,0,1-1.16-.29Zm3-4.38a1.45,1.45,0,0,0-.64-.14c-1,0-1.64,1.06-1.64,2.07,0,.45.15,1,.75,1s1.14-.75,1.28-1.55Z"/><path class="cls-18" d="M412.78,128.47l.51-2.88c.08-.46.14-.85.18-1.18h.6l-.11.79h0a1.7,1.7,0,0,1,1.44-.89c.45,0,1,.28,1,1.13a3.9,3.9,0,0,1-.07.65l-.43,2.38h-.66l.43-2.35a4.22,4.22,0,0,0,0-.52c0-.41-.15-.71-.6-.71s-1.14.6-1.32,1.6l-.35,2Z"/><path class="cls-18" d="M419.52,122.89a7.92,7.92,0,0,1,1.32-.11,2.5,2.5,0,0,1,2,.73,2.23,2.23,0,0,1,.51,1.52,3.71,3.71,0,0,1-1.08,2.69,3.52,3.52,0,0,1-2.44.79,9.73,9.73,0,0,1-1.3-.08Zm-.24,5a5.76,5.76,0,0,0,.69,0,2.44,2.44,0,0,0,1.92-.75,3.13,3.13,0,0,0,.74-2.12c0-1-.46-1.71-1.8-1.71a3.41,3.41,0,0,0-.74.06Z"/><path class="cls-18" d="M423.64,128.47l.47-2.62c.1-.53.15-1.07.19-1.44h.58c0,.28-.05.56-.1.88h0a1.43,1.43,0,0,1,1.18-1l.2,0-.13.69-.18,0c-.57,0-1.08.73-1.25,1.67l-.32,1.8Z"/><path class="cls-18" d="M428.74,128.47a10.33,10.33,0,0,1,.09-1h0c-.43.84-1,1.14-1.5,1.14s-1.11-.57-1.11-1.34a2.78,2.78,0,0,1,2.66-2.91,3.88,3.88,0,0,1,1,.15l-.39,2.13a9.12,9.12,0,0,0-.16,1.88Zm.43-3.55a1.57,1.57,0,0,0-.46,0,2.12,2.12,0,0,0-1.82,2.22c0,.45.15.9.66.9s1.21-.76,1.39-1.84Z"/><path class="cls-18" d="M430.43,128.47l.63-3.52h-.51l.1-.54h.52l0-.22a2.53,2.53,0,0,1,.63-1.41,1.33,1.33,0,0,1,.92-.37,1.1,1.1,0,0,1,.53.11l-.14.56a.9.9,0,0,0-.39-.08c-.53,0-.78.54-.9,1.21l0,.2h.86l-.1.54h-.85l-.63,3.52Z"/><path class="cls-18" d="M434.3,123.43l-.17,1h.92l-.1.54H434l-.35,2a3,3,0,0,0-.08.65c0,.24.11.39.37.39a1.42,1.42,0,0,0,.31,0l0,.54a1.47,1.47,0,0,1-.51.08.74.74,0,0,1-.82-.79A4.46,4.46,0,0,1,433,127l.38-2.06h-.55l.09-.54h.55l.14-.75Z"/><path class="cls-18" d="M399.21,141.47l.38-3.06c.07-.54.19-1.37.29-1.91h0c-.25.57-.55,1.24-.84,1.82l-1.6,3.11h-.5l-.4-3c-.08-.66-.14-1.31-.17-1.89h0c-.12.52-.28,1.37-.41,1.91l-.74,3.06h-.62l1.4-5.66h.85l.42,3.25c0,.48.11,1,.13,1.42h0c.17-.43.4-.94.63-1.4l1.66-3.27h.87l-.69,5.66Z"/><path class="cls-18" d="M402.45,141.56a1.52,1.52,0,0,1-1.51-1.67,2.4,2.4,0,0,1,2.14-2.58A1.53,1.53,0,0,1,404.6,139a2.4,2.4,0,0,1-2.14,2.56Zm.08-.56c.78,0,1.37-1.05,1.37-2,0-.47-.21-1.13-.9-1.13s-1.38,1.06-1.38,2c0,.67.35,1.14.9,1.14Z"/><path class="cls-18" d="M409.17,135.51l-.86,4.67c-.07.42-.13.89-.16,1.29h-.6l.1-.81h0a1.63,1.63,0,0,1-1.39.9c-.74,0-1.15-.65-1.15-1.48a2.62,2.62,0,0,1,2.38-2.77,1.76,1.76,0,0,1,.69.14l.34-1.94ZM408.05,138a1.05,1.05,0,0,0-.63-.17c-.93,0-1.65,1-1.65,2.12,0,.49.16,1,.73,1s1.13-.61,1.29-1.53Z"/><path class="cls-18" d="M409.24,141.47l.74-4.06h.66l-.73,4.06Zm1.24-4.81a.42.42,0,0,1-.39-.46.48.48,0,0,1,.45-.49.42.42,0,0,1,.42.45.48.48,0,0,1-.47.5Z"/><path class="cls-18" d="M411.17,141.47l.63-3.52h-.52l.1-.54h.52l0-.22a2.53,2.53,0,0,1,.63-1.41,1.33,1.33,0,0,1,.92-.37,1.1,1.1,0,0,1,.53.11l-.14.56a.9.9,0,0,0-.39-.08c-.53,0-.78.54-.89,1.21l0,.2h.87l-.11.54h-.85l-.63,3.52Z"/><path class="cls-18" d="M413.33,141.47l.73-4.06h.66l-.73,4.06Zm1.23-4.81a.42.42,0,0,1-.39-.46.49.49,0,0,1,.46-.49.42.42,0,0,1,.41.45.48.48,0,0,1-.47.5Z"/><path class="cls-18" d="M417.8,141.31a2.56,2.56,0,0,1-1.12.25A1.43,1.43,0,0,1,415.2,140a2.53,2.53,0,0,1,2.36-2.68,1.7,1.7,0,0,1,.81.19l-.19.54a1.57,1.57,0,0,0-.66-.15,1.87,1.87,0,0,0-1.63,2c0,.66.32,1.09.95,1.09a2,2,0,0,0,.9-.23Z"/><path class="cls-18" d="M421.1,141.47c0-.25,0-.63.08-1.05h0c-.43.84-1,1.14-1.5,1.14-.69,0-1.11-.57-1.11-1.34a2.78,2.78,0,0,1,2.66-2.91,3.88,3.88,0,0,1,1,.15l-.39,2.13a9.12,9.12,0,0,0-.16,1.88Zm.42-3.55a1.57,1.57,0,0,0-.46,0,2.13,2.13,0,0,0-1.82,2.22c0,.45.16.9.66.9s1.21-.76,1.4-1.84Z"/><path class="cls-18" d="M424.4,136.43l-.18,1h.93L425,138h-.92l-.35,2a3,3,0,0,0-.08.65c0,.24.11.39.36.39a1.35,1.35,0,0,0,.31,0l0,.54a1.47,1.47,0,0,1-.51.08.73.73,0,0,1-.81-.79,3.63,3.63,0,0,1,.09-.76l.37-2.06h-.55l.1-.54h.55l.13-.75Z"/><path class="cls-18" d="M425.19,141.47l.73-4.06h.66l-.73,4.06Zm1.23-4.81a.42.42,0,0,1-.39-.46.49.49,0,0,1,.46-.49.42.42,0,0,1,.41.45.48.48,0,0,1-.47.5Z"/><path class="cls-18" d="M428.57,141.56a1.52,1.52,0,0,1-1.51-1.67,2.39,2.39,0,0,1,2.14-2.58,1.52,1.52,0,0,1,1.51,1.69,2.39,2.39,0,0,1-2.13,2.56Zm.08-.56c.78,0,1.37-1.05,1.37-2,0-.47-.21-1.13-.9-1.13s-1.38,1.06-1.38,2c0,.67.35,1.14.9,1.14Z"/><path class="cls-18" d="M431.18,141.47l.51-2.88c.09-.46.15-.85.19-1.18h.6l-.11.79h0a1.7,1.7,0,0,1,1.43-.89c.46,0,1,.28,1,1.13a3.9,3.9,0,0,1-.07.65l-.44,2.38h-.65l.42-2.35a2.87,2.87,0,0,0,.05-.52c0-.41-.15-.71-.61-.71s-1.14.6-1.31,1.6l-.35,2Z"/><path class="cls-18" d="M397.71,153.59a1.93,1.93,0,0,0,1.14.36,1.07,1.07,0,0,0,1.16-1c0-.43-.22-.74-.79-1.06s-1.07-.85-1.07-1.45a1.69,1.69,0,0,1,1.82-1.66,2,2,0,0,1,1.1.29l-.23.57a1.68,1.68,0,0,0-.93-.27,1,1,0,0,0-1.07.92c0,.47.27.73.84,1a1.68,1.68,0,0,1,1,1.51,1.76,1.76,0,0,1-1.94,1.76,2.14,2.14,0,0,1-1.29-.4Z"/><path class="cls-18" d="M401.31,154.47l.74-4.06h.66l-.74,4.06Zm1.24-4.81a.42.42,0,0,1-.39-.46.48.48,0,0,1,.45-.49.42.42,0,0,1,.42.45.48.48,0,0,1-.47.5Z"/><path class="cls-18" d="M403.14,154.47l.52-2.88c.08-.46.13-.85.17-1.18h.58l-.1.76h0a1.63,1.63,0,0,1,1.36-.86.86.86,0,0,1,.9.91,1.66,1.66,0,0,1,1.42-.91,1,1,0,0,1,.94,1.07,4.6,4.6,0,0,1-.07.69l-.43,2.4h-.64l.41-2.35a3,3,0,0,0,.06-.52c0-.43-.16-.71-.59-.71s-1.05.59-1.21,1.5l-.37,2.08h-.63l.43-2.39a2.85,2.85,0,0,0,0-.49c0-.35-.08-.7-.57-.7s-1.09.67-1.24,1.54l-.36,2Z"/><path class="cls-18" d="M413.36,150.41l-.53,2.87c-.08.46-.14.85-.17,1.19h-.6l.11-.77h0a1.71,1.71,0,0,1-1.36.86c-.5,0-1-.25-1-1.18a3.64,3.64,0,0,1,.07-.68l.42-2.29h.65l-.4,2.26a3.57,3.57,0,0,0-.07.6c0,.42.16.7.62.7s1.1-.59,1.26-1.48l.37-2.08Z"/><path class="cls-18" d="M413.78,154.47l1.08-6h.66l-1.07,6Z"/><path class="cls-18" d="M418.17,154.47a10.33,10.33,0,0,1,.09-1.05h0a1.69,1.69,0,0,1-1.5,1.14c-.68,0-1.11-.57-1.11-1.34a2.78,2.78,0,0,1,2.67-2.91,3.94,3.94,0,0,1,1,.15l-.39,2.13a9.12,9.12,0,0,0-.16,1.88Zm.43-3.55a1.62,1.62,0,0,0-.46,0,2.12,2.12,0,0,0-1.82,2.22c0,.45.15.9.66.9s1.21-.76,1.39-1.84Z"/><path class="cls-18" d="M421.47,149.43l-.17,1h.92l-.1.54h-.93l-.35,2a3.84,3.84,0,0,0-.08.65c0,.24.11.39.37.39a1.42,1.42,0,0,0,.31,0l0,.54a1.47,1.47,0,0,1-.51.08.74.74,0,0,1-.82-.79,4.46,4.46,0,0,1,.09-.76l.38-2.06H420l.09-.54h.55l.14-.75Z"/><path class="cls-18" d="M422.26,154.47l.74-4.06h.66l-.74,4.06Zm1.24-4.81a.42.42,0,0,1-.39-.46.48.48,0,0,1,.45-.49.42.42,0,0,1,.42.45.48.48,0,0,1-.47.5Z"/><path class="cls-18" d="M425.64,154.56a1.52,1.52,0,0,1-1.5-1.67,2.39,2.39,0,0,1,2.13-2.58,1.52,1.52,0,0,1,1.52,1.69,2.4,2.4,0,0,1-2.14,2.56Zm.08-.56c.79,0,1.38-1.05,1.38-2,0-.47-.21-1.13-.91-1.13s-1.38,1.06-1.38,2c0,.67.36,1.14.91,1.14Z"/><path class="cls-18" d="M428.26,154.47l.51-2.88c.09-.46.14-.85.18-1.18h.6l-.1.79h0a1.71,1.71,0,0,1,1.44-.89c.46,0,1,.28,1,1.13a3.9,3.9,0,0,1-.07.65l-.43,2.38h-.65l.42-2.35a4.17,4.17,0,0,0,.05-.52c0-.41-.15-.71-.61-.71s-1.14.6-1.32,1.6l-.35,2Z"/><path class="cls-18" d="M530.47,122.89a6.29,6.29,0,0,1,1.17-.11,1.85,1.85,0,0,1,1.31.43,1.32,1.32,0,0,1,.39,1,2,2,0,0,1-.64,1.47,2.47,2.47,0,0,1-1.63.54,4.43,4.43,0,0,1-.55,0l-.41,2.27h-.65Zm.15,2.72a2.47,2.47,0,0,0,.54,0,1.38,1.38,0,0,0,1.51-1.38c0-.67-.45-.94-1.07-.94a2,2,0,0,0-.58.06Z"/><path class="cls-18" d="M533.48,128.47l.47-2.62c.09-.53.15-1.07.19-1.45h.58c0,.29-.05.57-.1.88h0a1.42,1.42,0,0,1,1.18-1l.2,0-.13.69-.19,0c-.56,0-1.07.73-1.24,1.67l-.32,1.8Z"/><path class="cls-18" d="M537.57,128.56a1.52,1.52,0,0,1-1.51-1.67,2.39,2.39,0,0,1,2.14-2.58,1.52,1.52,0,0,1,1.52,1.69,2.4,2.4,0,0,1-2.14,2.56Zm.08-.56c.78,0,1.37-1,1.37-2,0-.47-.21-1.13-.9-1.13s-1.38,1.06-1.38,2c0,.67.35,1.14.9,1.14Z"/><path class="cls-18" d="M544.29,122.51l-.86,4.67c-.07.42-.13.89-.16,1.29h-.6l.1-.81h0a1.63,1.63,0,0,1-1.39.9c-.74,0-1.15-.65-1.15-1.48a2.62,2.62,0,0,1,2.38-2.77,1.76,1.76,0,0,1,.69.14l.34-1.94ZM543.17,125a1.05,1.05,0,0,0-.63-.17c-.93,0-1.64,1-1.64,2.12,0,.49.15,1,.72,1s1.13-.62,1.29-1.53Z"/><path class="cls-18" d="M548.14,124.4l-.53,2.88c-.08.46-.13.85-.17,1.19h-.59l.1-.77h0a1.71,1.71,0,0,1-1.36.86c-.5,0-1-.25-1-1.18a3.64,3.64,0,0,1,.07-.68l.42-2.3h.66l-.41,2.27a3.47,3.47,0,0,0-.06.6c0,.42.16.7.61.7s1.1-.6,1.26-1.48l.38-2.09Z"/><path class="cls-18" d="M551.21,128.31a2.56,2.56,0,0,1-1.12.25,1.42,1.42,0,0,1-1.48-1.57,2.53,2.53,0,0,1,2.36-2.68,1.65,1.65,0,0,1,.8.19l-.19.54a1.48,1.48,0,0,0-.65-.15,1.87,1.87,0,0,0-1.64,2c0,.66.33,1.09,1,1.09a1.91,1.91,0,0,0,.89-.23Z"/><path class="cls-18" d="M553.64,123.43l-.18,1h.93l-.1.55h-.93l-.35,2a3,3,0,0,0-.08.65c0,.24.11.39.37.39a1.42,1.42,0,0,0,.31,0l0,.54a1.47,1.47,0,0,1-.51.08.74.74,0,0,1-.82-.79,3.63,3.63,0,0,1,.09-.76l.37-2.06h-.55l.1-.55h.55l.14-.74Z"/></g></g></svg>