<svg xmlns="http://www.w3.org/2000/svg" viewBox="0 0 98.27 591.54"><defs><style>.cls-1,.cls-12,.cls-16,.cls-4,.cls-5,.cls-9{fill:none;}.cls-1{stroke:#231f20;stroke-width:0.25px;}.cls-1,.cls-3{stroke-miterlimit:10;}.cls-2{fill:#004da0;}.cls-10,.cls-11,.cls-13,.cls-14,.cls-15,.cls-17,.cls-3,.cls-6,.cls-7,.cls-8{fill:#fff;}.cls-3{stroke:#404041;stroke-width:2px;}.cls-10,.cls-14,.cls-16,.cls-17,.cls-4,.cls-5,.cls-6,.cls-9{stroke:#002d54;}.cls-10,.cls-14,.cls-16,.cls-17,.cls-4,.cls-6,.cls-8,.cls-9{stroke-linecap:round;stroke-linejoin:round;}.cls-4,.cls-5,.cls-6,.cls-7{stroke-width:1.21px;}.cls-11,.cls-12,.cls-13,.cls-15,.cls-7,.cls-8{stroke:#004da0;}.cls-8,.cls-9{stroke-width:1.25px;}.cls-10,.cls-11,.cls-12{stroke-width:1.28px;}.cls-13,.cls-14{stroke-width:1.25px;}.cls-15,.cls-16,.cls-17{stroke-width:1.29px;}.cls-18{fill:#808285;}</style></defs><g id="레이어_2" data-name="레이어 2"><g id="Layer_1" data-name="Layer 1"><line class="cls-1" x1="4.78" x2="4.78" y2="591.54"/><path class="cls-2" d="M35.84,60.62h1.49l-.77,4.29h0c.28-.4.56-.73.82-1.06l2.73-3.23h1.89l-3.61,4,2.13,5.24H38.92l-1.67-4.24-1,1-.59,3.27h-1.5Z"/><path class="cls-2" d="M44.56,60.62l-1.67,9.23H41.37L43,60.62Z"/><path class="cls-2" d="M51.07,69.58a5.81,5.81,0,0,1-2.29.41,3.54,3.54,0,0,1-3.73-3.88,5.65,5.65,0,0,1,2.06-4.54,5.06,5.06,0,0,1,3.26-1.1,3.68,3.68,0,0,1,1.91.43l-.44,1.28a3.73,3.73,0,0,0-1.65-.32A3.36,3.36,0,0,0,48,62.7a4.39,4.39,0,0,0-1.26,3.22c0,1.55.75,2.71,2.48,2.71a4,4,0,0,0,1.76-.36Z"/><path class="cls-2" d="M53.81,60.62h1.5l-.77,4.29h.05c.28-.4.56-.73.82-1.06l2.73-3.23H60l-3.62,4,2.14,5.24H56.9l-1.67-4.24-1,1-.59,3.27h-1.5Z"/><path class="cls-2" d="M62.91,65.62l-.2,1.16H59.44l.22-1.16Z"/><path class="cls-2" d="M72,64.29a6.52,6.52,0,0,1-1.59,4.41A4.24,4.24,0,0,1,67.23,70c-2.26,0-3.45-1.74-3.45-3.81a6.51,6.51,0,0,1,1.64-4.43,4.33,4.33,0,0,1,3.08-1.29C70.84,60.47,72,62.18,72,64.29Zm-5.36-1.68a5.58,5.58,0,0,0-1.21,3.5c0,1.4.6,2.55,2.07,2.55a2.32,2.32,0,0,0,1.7-.78,5.69,5.69,0,0,0,1.19-3.53c0-1.22-.41-2.54-2-2.54A2.39,2.39,0,0,0,66.59,62.61Z"/><path class="cls-2" d="M74.08,60.62h4.84L78.66,62H75.35l-.46,2.6H78l-.24,1.34H74.64l-.7,3.93H72.42Z"/><path class="cls-2" d="M38.75,81.85l.59-4.34c.13-.94.31-2.24.53-3.38h0c-.45,1.08-1,2.27-1.45,3.24l-2.16,4.37H35.05l-.46-4.3c-.1-1-.18-2.22-.23-3.31h0c-.23,1.05-.49,2.45-.71,3.38l-1,4.34H31.21l2.23-9.23h2l.47,4.32c.06.82.15,1.77.17,2.65h.05c.31-.88.73-1.85,1.1-2.64l2.12-4.33h2l-1.16,9.23Z"/><path class="cls-2" d="M47.26,77.74H44.11l-.49,2.75h3.53l-.25,1.36h-5l1.66-9.23h4.86L48.13,74H44.79l-.45,2.42H47.5Z"/><path class="cls-2" d="M53.7,77.74H50.56l-.5,2.75H53.6l-.25,1.36H48.3L50,72.62h4.86L54.57,74H51.23l-.44,2.42H54Z"/><path class="cls-2" d="M57.72,74H55.29l.26-1.4h6.38L61.67,74H59.23l-1.41,7.83H56.3Z"/><path class="cls-2" d="M64.44,72.62l-1.66,9.23H61.26l1.66-9.23Z"/><path class="cls-2" d="M64.61,81.85l1.66-9.23H68l1.53,4.29a22.86,22.86,0,0,1,.79,2.89h0a25.55,25.55,0,0,1,.39-3.12l.73-4.06h1.43l-1.67,9.23H69.71l-1.58-4.37a23.52,23.52,0,0,1-.83-3l0,0c-.09.87-.27,2-.51,3.38L66,81.85Z"/><path class="cls-2" d="M80,81.44a8.06,8.06,0,0,1-2.68.51,3.81,3.81,0,0,1-2.88-1.09,3.87,3.87,0,0,1-1-2.76,5.68,5.68,0,0,1,1.75-4.22,5.57,5.57,0,0,1,3.75-1.35,5.1,5.1,0,0,1,2.21.42l-.47,1.34a4.28,4.28,0,0,0-1.86-.38,3.62,3.62,0,0,0-2.44.9A4.3,4.3,0,0,0,75.05,78a2.31,2.31,0,0,0,2.5,2.61,2.92,2.92,0,0,0,1.11-.21l.42-2.31H77.53l.25-1.28h3Z"/><path class="cls-2" d="M29,173.17a9.59,9.59,0,0,1,2.12-.22,3.51,3.51,0,0,1,2.23.66,2.2,2.2,0,0,1,.81,1.84,3.22,3.22,0,0,1-1.12,2.5,4.27,4.27,0,0,1-2.74.88,6,6,0,0,1-.82-.07l-.63,3.49H27.4Zm.71,4.27a3.12,3.12,0,0,0,.79.09,2,2,0,0,0,2.14-2c0-1-.67-1.33-1.52-1.33a3.31,3.31,0,0,0-.84.08Z"/><path class="cls-2" d="M36,173h1.52l-1.42,7.83h3.45l-.25,1.4h-5Z"/><path class="cls-2" d="M42.56,179.62l-1.2,2.63H39.75L44.14,173H46l1.1,9.23H45.56l-.25-2.63Zm2.66-1.23-.25-2.3c0-.49-.09-1.2-.13-1.75h0c-.24.55-.47,1.2-.72,1.75L43,178.39Z"/><path class="cls-2" d="M48.17,182.25,49.84,173h1.74l1.53,4.29a24.89,24.89,0,0,1,.8,2.89h0a25.92,25.92,0,0,1,.39-3.13l.73-4h1.43l-1.67,9.23H53.27l-1.58-4.37a23.52,23.52,0,0,1-.83-3l0,0c-.09.87-.27,2-.51,3.38l-.71,3.94Z"/><path class="cls-2" d="M56.63,182.25,58.3,173H60l1.54,4.29a26.82,26.82,0,0,1,.79,2.89h0a28.12,28.12,0,0,1,.39-3.13l.73-4h1.43l-1.66,9.23H61.73l-1.57-4.37a20.57,20.57,0,0,1-.83-3l-.06,0c-.09.87-.27,2-.5,3.38l-.72,3.94Z"/><path class="cls-2" d="M68.26,173l-1.67,9.23H65.07L66.74,173Z"/><path class="cls-2" d="M68.43,182.25,70.09,173h1.74l1.54,4.29a26.82,26.82,0,0,1,.79,2.89h0a24,24,0,0,1,.39-3.13l.72-4h1.43l-1.66,9.23H73.52L72,177.88a22,22,0,0,1-.83-3l-.06,0c-.09.87-.27,2-.5,3.38l-.72,3.94Z"/><path class="cls-2" d="M83.78,181.84a8.09,8.09,0,0,1-2.68.5,3.82,3.82,0,0,1-2.89-1.08,3.91,3.91,0,0,1-1-2.76A5.69,5.69,0,0,1,79,174.28a5.54,5.54,0,0,1,3.74-1.35,4.92,4.92,0,0,1,2.21.42l-.46,1.34a4.14,4.14,0,0,0-1.86-.38,3.59,3.59,0,0,0-2.45.9,4.34,4.34,0,0,0-1.29,3.17,2.31,2.31,0,0,0,2.5,2.61,2.93,2.93,0,0,0,1.12-.21l.41-2.31H81.35l.24-1.29h3Z"/><path class="cls-2" d="M19.49,313.78a11.9,11.9,0,0,1,2.22-.2,4,4,0,0,1,3.08,1.11,3.61,3.61,0,0,1,1,2.71A5.78,5.78,0,0,1,24,321.68a5.49,5.49,0,0,1-3.93,1.25,16.25,16.25,0,0,1-2.18-.14Zm.11,7.79a6.77,6.77,0,0,0,.92.06,3.3,3.3,0,0,0,2.66-1.14,4.68,4.68,0,0,0,1-3.07,2.27,2.27,0,0,0-2.5-2.56,4.25,4.25,0,0,0-.93.09Z"/><path class="cls-2" d="M31,318.76H28l-.47,2.76h3.39l-.23,1.35H25.84l1.6-9.22h4.67L31.87,315H28.66l-.42,2.42h3Z"/><path class="cls-2" d="M33.42,322.87l-1-9.22h1.48l.49,5.07c.1,1,.15,1.7.19,2.5h0c.28-.76.6-1.61,1-2.56l2.25-5h1.61l-4.38,9.22Z"/><path class="cls-2" d="M43.7,318.76h-3l-.48,2.76h3.4l-.24,1.35H38.51l1.6-9.22h4.66L44.54,315H41.33l-.43,2.42h3Z"/><path class="cls-2" d="M45.92,313.65h1.46L46,321.47h3.31l-.24,1.4H44.32Z"/><path class="cls-2" d="M57.91,317.31a6.65,6.65,0,0,1-1.52,4.41,4,4,0,0,1-3,1.3c-2.17,0-3.3-1.74-3.3-3.8a6.66,6.66,0,0,1,1.57-4.44,4,4,0,0,1,3-1.28C56.85,313.5,57.91,315.21,57.91,317.31Zm-5.14-1.68a5.73,5.73,0,0,0-1.16,3.51c0,1.39.58,2.54,2,2.54a2.21,2.21,0,0,0,1.63-.78,5.89,5.89,0,0,0,1.14-3.53c0-1.22-.39-2.53-1.94-2.53A2.23,2.23,0,0,0,52.77,315.63Z"/><path class="cls-2" d="M59.56,313.8a8.34,8.34,0,0,1,2-.22,3.31,3.31,0,0,1,2.15.65,2.27,2.27,0,0,1,.78,1.84,3.29,3.29,0,0,1-1.08,2.5,4,4,0,0,1-2.63.88,5.8,5.8,0,0,1-.79-.07l-.6,3.49H58Zm.69,4.27a3.34,3.34,0,0,0,.76.08,1.94,1.94,0,0,0,2.05-2c0-1-.64-1.33-1.47-1.33a2.49,2.49,0,0,0-.79.09Z"/><path class="cls-2" d="M71.33,322.87l.56-4.34c.13-.94.3-2.24.51-3.38h0c-.44,1.08-.94,2.27-1.4,3.25l-2.07,4.36H67.77l-.43-4.3c-.1-1-.18-2.21-.23-3.31h0c-.23,1.06-.48,2.45-.69,3.38l-1,4.34H64.09l2.14-9.22h1.92L68.6,318c.06.82.15,1.78.16,2.65h0c.3-.87.7-1.85,1.06-2.64l2-4.32h1.95l-1.11,9.22Z"/><path class="cls-2" d="M79.12,318.76h-3l-.48,2.76H79l-.24,1.35H73.92l1.6-9.22h4.67L80,315h-3.2l-.43,2.42h3Z"/><path class="cls-2" d="M79.74,322.87l1.6-9.22H83l1.47,4.28a22.34,22.34,0,0,1,.76,2.89h0a27.55,27.55,0,0,1,.37-3.12l.7-4.05h1.38l-1.6,9.22H84.63l-1.51-4.36a25.83,25.83,0,0,1-.8-3h0c-.08.88-.26,2-.48,3.38l-.69,3.94Z"/><path class="cls-2" d="M90.35,315H88l.25-1.39h6.13L94.14,315H91.8l-1.35,7.83H89Z"/><path class="cls-2" d="M41.22,455.7a9,9,0,0,1,2.12-.22,3.5,3.5,0,0,1,2.23.65,2.21,2.21,0,0,1,.81,1.84,3.22,3.22,0,0,1-1.12,2.5,4.27,4.27,0,0,1-2.74.88,6,6,0,0,1-.82-.07l-.63,3.49H39.58Zm.71,4.27a3.7,3.7,0,0,0,.79.08,2,2,0,0,0,2.14-2c0-1-.67-1.33-1.52-1.33a3.31,3.31,0,0,0-.84.08Z"/><path class="cls-2" d="M48.18,455.7a9.71,9.71,0,0,1,2.16-.22,3.59,3.59,0,0,1,2.2.6,2,2,0,0,1,.83,1.67,2.76,2.76,0,0,1-2,2.64v0c.57.23.82.88.9,1.75a16.32,16.32,0,0,0,.31,2.59H51a16.28,16.28,0,0,1-.23-2.2c-.07-1.18-.47-1.61-1.28-1.61h-.74L48,464.77H46.55Zm.77,4.05h.86a1.82,1.82,0,0,0,2-1.77c0-.85-.64-1.23-1.5-1.23a3.15,3.15,0,0,0-.81.08Z"/><path class="cls-2" d="M56.92,455.54l-1.66,9.23H53.74l1.66-9.23Z"/><path class="cls-2" d="M57.09,464.77l1.66-9.23H60.5L62,459.83a22.86,22.86,0,0,1,.79,2.89h0a23.71,23.71,0,0,1,.39-3.12l.73-4.06H65.4l-1.67,9.23H62.19l-1.58-4.37a23.52,23.52,0,0,1-.83-3l-.05,0c-.09.87-.27,2-.51,3.38l-.71,3.94Z"/><path class="cls-2" d="M68.53,456.94H66.1l.26-1.4h6.38l-.26,1.4H70l-1.41,7.83H67.11Z"/><path class="cls-2" d="M16.6,569.14l-1.09,2.63H14.05l4-9.23h1.72l1,9.23H19.33l-.22-2.63ZM19,567.91l-.23-2.3c0-.49-.08-1.2-.12-1.75h0c-.21.55-.43,1.2-.65,1.75l-1,2.3Z"/><path class="cls-2" d="M22.86,562.68a10.08,10.08,0,0,1,2.11-.2,3.5,3.5,0,0,1,3.83,3.82,6,6,0,0,1-1.62,4.28,5.06,5.06,0,0,1-3.73,1.25,14.65,14.65,0,0,1-2.07-.14Zm.11,7.79a5.94,5.94,0,0,0,.87.06,3.06,3.06,0,0,0,2.52-1.14,4.83,4.83,0,0,0,.95-3.07c0-1.53-.7-2.56-2.37-2.56a3.72,3.72,0,0,0-.88.09Z"/><path class="cls-2" d="M35.55,571.77l.53-4.34c.12-.94.29-2.24.49-3.38h0c-.41,1.08-.88,2.27-1.32,3.24l-2,4.37H32.18l-.41-4.3c-.1-1-.17-2.21-.21-3.31h0c-.21,1.05-.45,2.45-.65,3.38L30,571.77H28.69l2-9.23h1.82l.42,4.32c.06.82.14,1.78.16,2.65h0c.29-.87.67-1.85,1-2.64l1.93-4.33h1.84l-1,9.23Z"/><path class="cls-2" d="M40.89,562.54l-1.52,9.23H38l1.51-9.23Z"/><path class="cls-2" d="M40.69,571.77l1.51-9.23h1.59l1.39,4.29a23.35,23.35,0,0,1,.72,2.89h0a26.41,26.41,0,0,1,.35-3.12l.66-4.06h1.31l-1.52,9.23H45.32l-1.43-4.37a25.85,25.85,0,0,1-.75-3l0,0c-.08.87-.25,2-.46,3.38L42,571.77Z"/><path class="cls-2" d="M50.91,562.54l-1.52,9.23H48l1.51-9.23Z"/><path class="cls-2" d="M51,570a3,3,0,0,0,1.79.59,1.37,1.37,0,0,0,1.48-1.37c0-.6-.34-1-1.12-1.49a2.88,2.88,0,0,1-1.62-2.41,2.8,2.8,0,0,1,2.93-2.88,3.24,3.24,0,0,1,1.78.47l-.45,1.33a2.61,2.61,0,0,0-1.45-.41,1.26,1.26,0,0,0-1.37,1.2c0,.63.45,1,1.2,1.49a2.74,2.74,0,0,1,1.54,2.45,2.86,2.86,0,0,1-3.07,3,3.32,3.32,0,0,1-2.12-.65Z"/><path class="cls-2" d="M58.86,563.94H56.65l.23-1.4h5.81l-.24,1.4H60.23L59,571.77H57.57Z"/><path class="cls-2" d="M63.25,562.7a8,8,0,0,1,2-.22,3.11,3.11,0,0,1,2,.6,2,2,0,0,1,.75,1.67,2.71,2.71,0,0,1-1.84,2.64v0c.52.23.74.88.81,1.75a18.48,18.48,0,0,0,.29,2.59H65.79a19.86,19.86,0,0,1-.21-2.2c-.06-1.18-.43-1.6-1.16-1.6h-.68l-.62,3.8H61.76Zm.69,4h.78a1.72,1.72,0,0,0,1.8-1.77c0-.85-.58-1.23-1.36-1.23a2.53,2.53,0,0,0-.73.08Z"/><path class="cls-2" d="M69.91,569.14l-1.09,2.63H67.35l4-9.23h1.73l1,9.23H72.64l-.23-2.63Zm2.42-1.23-.22-2.3c0-.49-.09-1.2-.12-1.75h0c-.21.55-.42,1.2-.65,1.75l-1,2.3Z"/><path class="cls-2" d="M77.37,563.94H75.16l.24-1.4h5.8l-.23,1.4H78.74l-1.27,7.83H76.08Z"/><path class="cls-2" d="M83.13,562.54l-1.51,9.23H80.24l1.51-9.23Z"/><path class="cls-2" d="M90.64,566.21a6.93,6.93,0,0,1-1.44,4.41,3.7,3.7,0,0,1-2.85,1.3c-2.06,0-3.13-1.74-3.13-3.8a6.87,6.87,0,0,1,1.49-4.44,3.74,3.74,0,0,1,2.8-1.29C89.64,562.39,90.64,564.11,90.64,566.21Zm-4.87-1.68a5.88,5.88,0,0,0-1.1,3.5c0,1.4.54,2.55,1.88,2.55a2,2,0,0,0,1.55-.78,6.05,6.05,0,0,0,1.08-3.53c0-1.22-.37-2.53-1.84-2.53A2.08,2.08,0,0,0,85.77,564.53Z"/><path class="cls-2" d="M90.72,571.77l1.51-9.23h1.58l1.4,4.29a27.58,27.58,0,0,1,.72,2.89h0a29.09,29.09,0,0,1,.36-3.12l.66-4.06h1.3l-1.51,9.23H95.35l-1.43-4.37a24.1,24.1,0,0,1-.76-3l0,0c-.09.87-.25,2-.46,3.38L92,571.77Z"/><path class="cls-3" d="M8.56,52.77A3.78,3.78,0,1,1,4.78,49,3.79,3.79,0,0,1,8.56,52.77Z"/><path class="cls-3" d="M8.56,163.36a3.78,3.78,0,1,1-3.78-3.77A3.78,3.78,0,0,1,8.56,163.36Z"/><path class="cls-3" d="M8.56,306a3.78,3.78,0,1,1-3.78-3.78A3.79,3.79,0,0,1,8.56,306Z"/><path class="cls-3" d="M8.56,448.55a3.78,3.78,0,1,1-3.78-3.78A3.78,3.78,0,0,1,8.56,448.55Z"/><path class="cls-3" d="M8.56,553.34a3.78,3.78,0,1,1-3.78-3.78A3.78,3.78,0,0,1,8.56,553.34Z"/><path class="cls-4" d="M78.84,47V43.33a9.8,9.8,0,0,0-2.87-7"/><path class="cls-4" d="M62.07,36.35a9.84,9.84,0,0,0-2.89,6.95V47"/><line class="cls-4" x1="63.59" y1="46.75" x2="63.6" y2="42.89"/><line class="cls-4" x1="74.42" y1="46.76" x2="74.42" y2="42.9"/><line class="cls-5" x1="69.02" y1="37.74" x2="69.02" y2="39.41"/><line class="cls-5" x1="69.01" y1="41.33" x2="69.01" y2="43.01"/><path class="cls-6" d="M78,26.82a9,9,0,1,1-9-9A9,9,0,0,1,78,26.82Z"/><line class="cls-6" x1="65.8" y1="25.53" x2="65.8" y2="26.99"/><line class="cls-6" x1="72.27" y1="25.54" x2="72.27" y2="27"/><path class="cls-6" d="M71.69,30.07A3.75,3.75,0,0,1,69,31.17h0a3.75,3.75,0,0,1-2.66-1.1"/><path class="cls-7" d="M48.16,16a9.71,9.71,0,0,1,7.5,15.86,5.9,5.9,0,0,0,3.64,3.58l-11,0h-.18a9.71,9.71,0,1,1,0-19.42Z"/><line class="cls-7" x1="52.14" y1="22.66" x2="43.7" y2="22.64"/><line class="cls-7" x1="52.13" y1="26.21" x2="43.69" y2="26.2"/><line class="cls-7" x1="52.12" y1="29.77" x2="43.68" y2="29.76"/><path class="cls-6" d="M44.18,33.41a3.6,3.6,0,1,1-3.6-3.61A3.59,3.59,0,0,1,44.18,33.41Z"/><path class="cls-6" d="M47.63,47.54V42.22a3.54,3.54,0,0,0-3.53-3.55H37a3.54,3.54,0,0,0-3.54,3.54v5.32"/><line class="cls-6" x1="36.69" y1="42.54" x2="36.68" y2="47.52"/><line class="cls-6" x1="44.43" y1="47.53" x2="44.44" y2="42.55"/><polygon class="cls-8" points="59.72 516.51 50.63 525.57 50.6 546.12 84.35 546.17 84.39 516.54 59.72 516.51"/><polygon class="cls-8" points="59.71 525.59 59.72 516.51 50.63 525.57 59.71 525.59"/><line class="cls-8" x1="54.7" y1="530.05" x2="68.14" y2="530.06"/><line class="cls-8" x1="54.7" y1="533.12" x2="68.14" y2="533.14"/><line class="cls-8" x1="54.7" y1="536.19" x2="68.13" y2="536.21"/><line class="cls-8" x1="54.69" y1="539.26" x2="68.13" y2="539.28"/><line class="cls-8" x1="63.29" y1="523.4" x2="65.98" y2="523.41"/><line class="cls-8" x1="67.77" y1="523.41" x2="70.46" y2="523.41"/><line class="cls-8" x1="72.25" y1="523.42" x2="74.94" y2="523.42"/><path class="cls-9" d="M27.93,540.77a5.19,5.19,0,0,0,.26,1.65,4.61,4.61,0,0,0,.73,1.35,3.49,3.49,0,0,0,1.09.91,2.84,2.84,0,0,0,1.32.33h9.08a1.62,1.62,0,0,0,.65-.14,1.58,1.58,0,0,0,.53-.35A1.77,1.77,0,0,0,42,544a1.75,1.75,0,0,0,.13-.65,1.65,1.65,0,0,0-.13-.66,1.61,1.61,0,0,0-.36-.53,1.77,1.77,0,0,0-.53-.36,1.75,1.75,0,0,0-.65-.13H39.28a.15.15,0,0,0,0-.07.13.13,0,0,0,0-.06s0,0,0-.06,0-.05,0-.06h2.21a1.75,1.75,0,0,0,.65-.13,1.71,1.71,0,0,0,.89-.89,1.75,1.75,0,0,0,.13-.65,1.57,1.57,0,0,0-.13-.65,1.65,1.65,0,0,0-.36-.54,1.77,1.77,0,0,0-.53-.36,1.75,1.75,0,0,0-.65-.13H39.36v-.26h2.17a1.75,1.75,0,0,0,.65-.13,1.61,1.61,0,0,0,.53-.36,1.47,1.47,0,0,0,.36-.53,1.58,1.58,0,0,0,.14-.65,1.67,1.67,0,0,0-1.67-1.68H39.36a.34.34,0,0,1,0-.1.34.34,0,0,0,0-.09,806353681771.95,806353681771.95,0,0,0,0-.18h8.53a2,2,0,0,0,.7-.14,1.82,1.82,0,0,0,.56-.39,1.67,1.67,0,0,0,.39-.56,1.82,1.82,0,0,0,.14-.7,1.77,1.77,0,0,0-.14-.69,1.73,1.73,0,0,0-.38-.57,1.84,1.84,0,0,0-.57-.38,1.79,1.79,0,0,0-.7-.15H37l.75-.68.74-.69.75-.68.74-.68a2,2,0,0,0,.66-1.41,1.9,1.9,0,0,0-.11-.78,2.07,2.07,0,0,0-.42-.69,2.05,2.05,0,0,0-2.18-.55,2.11,2.11,0,0,0-.7.42L35.86,526l-1.38,1.26-1.38,1.27-1.38,1.26,0,0,0,0,0,.05,0,0-.18.14-.18.14-.18.14-.18.15a2.91,2.91,0,0,0-1.15.48"/><path class="cls-10" d="M77.4,298.69V296.4a7.48,7.48,0,0,0-2.19-5.3"/><path class="cls-10" d="M64.61,291.08a7.47,7.47,0,0,0-2.2,5.3v2.29"/><line class="cls-10" x1="65.78" y1="298.5" x2="65.78" y2="295.97"/><line class="cls-10" x1="74.03" y1="298.51" x2="74.03" y2="295.98"/><line class="cls-10" x1="69.91" y1="292.14" x2="69.91" y2="293.41"/><line class="cls-10" x1="69.91" y1="294.88" x2="69.9" y2="296.16"/><path class="cls-10" d="M76.26,284.34a6.33,6.33,0,1,1-1.85-4.49A6.33,6.33,0,0,1,76.26,284.34Z"/><line class="cls-10" x1="66.17" y1="282.43" x2="66.17" y2="283.4"/><line class="cls-10" x1="70.62" y1="282.43" x2="70.62" y2="283.4"/><path class="cls-10" d="M70.16,285.45a2.5,2.5,0,0,1-1.77.73h0a2.49,2.49,0,0,1-1.77-.74"/><path class="cls-11" d="M46.54,266.58l20.5,0a2.3,2.3,0,0,1,2.3,2.3v5.69"/><polyline class="cls-12" points="71.71 272.61 69.33 274.98 66.96 272.6"/><path class="cls-11" d="M62.66,290.3l-20,0A2.29,2.29,0,0,1,40.35,288v-5.68"/><polyline class="cls-12" points="37.98 284.27 40.36 281.9 42.73 284.27"/><path class="cls-11" d="M49.5,266.44a7.29,7.29,0,1,0-10.63,6.46v4.15a2.47,2.47,0,0,0,2.47,2.47h1.73a2.46,2.46,0,0,0,2.47-2.46v-4.15A7.31,7.31,0,0,0,49.5,266.44Z"/><line class="cls-11" x1="38.95" y1="274.95" x2="45.45" y2="274.95"/><line class="cls-11" x1="38.95" y1="276.92" x2="45.44" y2="276.93"/><path class="cls-11" d="M43.23,268a1,1,0,0,1-1,1h0a1,1,0,0,1-1-1v-4.51a1,1,0,0,1,1-1h0a1,1,0,0,1,1,1Z"/><path class="cls-11" d="M43.23,271.11a1,1,0,1,1-1-1A1,1,0,0,1,43.23,271.11Z"/><polygon class="cls-13" points="57.81 124.02 57.81 126.09 40.79 126.06 40.8 124 36.36 123.99 36.32 153.39 62.21 153.43 62.25 124.03 57.81 124.02"/><rect class="cls-13" x="38.61" y="130.1" width="21.35" height="19.29" transform="translate(-90.53 188.82) rotate(-89.92)"/><line class="cls-13" x1="46.15" y1="132.67" x2="54.76" y2="132.68"/><line class="cls-13" x1="46.14" y1="136.28" x2="54.75" y2="136.29"/><line class="cls-13" x1="46.14" y1="139.89" x2="54.75" y2="139.9"/><line class="cls-13" x1="46.13" y1="143.5" x2="54.74" y2="143.51"/><line class="cls-13" x1="43.83" y1="132.67" x2="45.04" y2="132.67"/><line class="cls-13" x1="43.82" y1="136.28" x2="45.03" y2="136.28"/><line class="cls-13" x1="43.82" y1="139.89" x2="45.03" y2="139.89"/><line class="cls-13" x1="43.81" y1="143.5" x2="45.02" y2="143.5"/><path class="cls-13" d="M53.12,122.37a3.82,3.82,0,0,0-7.63,0H40.8v3.71l17,0v-3.71Zm-3.81.65a1.11,1.11,0,1,1,0-2.21,1.11,1.11,0,0,1,0,2.21Z"/><path class="cls-14" d="M59.08,154.27v-7.79L48.45,133.6a1.76,1.76,0,1,1,2.71-2.24l8.31,10.06,8.9,0a1.77,1.77,0,0,1,.81.18c.49.21,4.84,2.39,6.23,10.73a33.17,33.17,0,0,1,.59,3.89,1.66,1.66,0,0,1-1.38,1.75l-.17,0a1.67,1.67,0,0,1-1.78-1.55,28.85,28.85,0,0,0-.54-3.55,16.79,16.79,0,0,0-2.9-6.44v8.19"/><path class="cls-14" d="M70.28,134.76a6,6,0,1,1-6-6A6,6,0,0,1,70.28,134.76Z"/><line class="cls-14" x1="62.14" y1="133.9" x2="62.14" y2="134.87"/><line class="cls-14" x1="66.45" y1="133.9" x2="66.45" y2="134.88"/><path class="cls-14" d="M66.07,136.93a2.54,2.54,0,0,1-1.78.73h0a2.53,2.53,0,0,1-1.77-.74"/><line class="cls-15" x1="56.62" y1="411.83" x2="59.64" y2="411.84"/><rect class="cls-15" x="52.07" y="405.27" width="16.96" height="25.31" transform="translate(-357.46 477.88) rotate(-89.92)"/><rect class="cls-15" x="58.95" y="412.51" width="3.17" height="30.95" rx="0.65" transform="translate(-367.54 487.91) rotate(-89.92)"/><path class="cls-16" d="M36.31,440.9v-3.32a8.87,8.87,0,0,1,2.62-6.28"/><path class="cls-16" d="M51.49,431.32a8.86,8.86,0,0,1,2.6,6.29v3.31"/><line class="cls-17" x1="50.09" y1="440.72" x2="50.09" y2="437.22"/><line class="cls-17" x1="40.3" y1="440.7" x2="40.31" y2="437.21"/><line class="cls-17" x1="45.21" y1="432.55" x2="45.21" y2="434.07"/><line class="cls-17" x1="45.2" y1="435.8" x2="45.2" y2="437.32"/><path class="cls-17" d="M37.37,422.84a8,8,0,1,0,2.35-5.66A8,8,0,0,0,37.37,422.84Z"/><line class="cls-17" x1="50.1" y1="420.46" x2="50.1" y2="421.68"/><line class="cls-17" x1="44.5" y1="420.45" x2="44.5" y2="421.67"/><path class="cls-17" d="M45.07,424.25a3.09,3.09,0,0,0,2.22.93h0a3.19,3.19,0,0,0,2.24-.92"/><rect class="cls-15" x="55.15" y="404.8" width="14.93" height="11.99" transform="translate(-348.27 472.83) rotate(-89.92)"/><line class="cls-15" x1="59.11" y1="406.72" x2="66.13" y2="406.73"/><line class="cls-15" x1="59.11" y1="409.44" x2="66.12" y2="409.45"/><line class="cls-15" x1="59.1" y1="412.15" x2="66.12" y2="412.16"/><line class="cls-15" x1="59.1" y1="414.87" x2="66.11" y2="414.88"/><path class="cls-18" d="M38.05,195.79a5.42,5.42,0,0,1,1.18-.12,1.87,1.87,0,0,1,1.28.41,1.23,1.23,0,0,1,.4.94,1.73,1.73,0,0,1-1.28,1.63v0c.39.13.56.55.6,1.13a10.63,10.63,0,0,0,.17,1.56H39.7c0-.11-.08-.71-.12-1.37s-.31-1.1-.85-1.1h-.59l-.44,2.47H37Zm.19,2.57h.59a1.28,1.28,0,0,0,1.38-1.25c0-.61-.43-.88-1-.88a2.41,2.41,0,0,0-.56.05Z"/><path class="cls-18" d="M44,201.14a2.77,2.77,0,0,1-1.28.31c-1,0-1.46-.73-1.46-1.63,0-1.23.86-2.61,2.1-2.61a1,1,0,0,1,1.14,1c0,1.06-1.15,1.34-2.57,1.32a1.63,1.63,0,0,0,.08.77.85.85,0,0,0,.86.54,2,2,0,0,0,1-.28Zm-.14-2.87a.52.52,0,0,0-.59-.52c-.63,0-1.1.65-1.26,1.29,1,0,1.85-.14,1.85-.76Z"/><path class="cls-18" d="M44.84,202.28a1.9,1.9,0,0,0,1,.27c.65,0,1.17-.34,1.39-1.44l.13-.61h0a1.53,1.53,0,0,1-1.34.86A1.26,1.26,0,0,1,44.84,200a2.6,2.6,0,0,1,2.45-2.74,3,3,0,0,1,1.24.28l-.59,3.36a3.18,3.18,0,0,1-.78,1.82,2,2,0,0,1-1.35.45,2.17,2.17,0,0,1-1.16-.29Zm3-4.38a1.6,1.6,0,0,0-.64-.14c-1,0-1.64,1.07-1.64,2.08,0,.45.15,1,.74,1s1.15-.76,1.29-1.55Z"/><path class="cls-18" d="M49,201.36l.73-4.06h.66l-.73,4.06Zm1.23-4.81a.41.41,0,0,1-.39-.45.48.48,0,0,1,.46-.49.41.41,0,0,1,.41.45.46.46,0,0,1-.47.49Z"/><path class="cls-18" d="M50.84,200.67a1.73,1.73,0,0,0,.83.25.69.69,0,0,0,.74-.66c0-.32-.14-.53-.54-.76a1.2,1.2,0,0,1-.7-1,1.3,1.3,0,0,1,1.41-1.26,1.51,1.51,0,0,1,.79.2l-.18.53a1.36,1.36,0,0,0-.66-.19.64.64,0,0,0-.7.62c0,.29.19.48.54.68a1.27,1.27,0,0,1,.72,1.07,1.33,1.33,0,0,1-1.48,1.33,1.66,1.66,0,0,1-1-.27Z"/><path class="cls-18" d="M55.49,196.33l-.18,1h.93l-.11.55h-.92l-.35,2a2.87,2.87,0,0,0-.08.64c0,.25.11.4.36.4a.93.93,0,0,0,.31,0l0,.55a1.49,1.49,0,0,1-.51.07.73.73,0,0,1-.81-.78,3.72,3.72,0,0,1,.09-.77l.37-2.05H54l.1-.55h.55l.13-.75Z"/><path class="cls-18" d="M56.27,201.36l.48-2.62c.09-.53.15-1.06.19-1.44h.58c0,.29-.06.56-.1.88h0a1.42,1.42,0,0,1,1.18-1h.19l-.13.69H58.5c-.57,0-1.08.73-1.24,1.67l-.32,1.79Z"/><path class="cls-18" d="M61.38,201.36c0-.24,0-.63.09-1.05h0a1.68,1.68,0,0,1-1.5,1.14c-.68,0-1.11-.57-1.11-1.34a2.77,2.77,0,0,1,2.67-2.9,3.94,3.94,0,0,1,1,.15l-.4,2.12a9.88,9.88,0,0,0-.15,1.88Zm.42-3.54a1.41,1.41,0,0,0-.45-.06A2.12,2.12,0,0,0,59.53,200c0,.45.15.89.65.89s1.22-.75,1.4-1.83Z"/><path class="cls-18" d="M64.68,196.33l-.17,1h.92l-.1.55H64.4l-.35,2a2.87,2.87,0,0,0-.08.64c0,.25.11.4.37.4a1,1,0,0,0,.31,0l0,.55a1.49,1.49,0,0,1-.51.07.73.73,0,0,1-.82-.78,4.56,4.56,0,0,1,.09-.77l.38-2.05h-.55l.09-.55h.55l.14-.75Z"/><path class="cls-18" d="M65.47,201.36l.73-4.06h.67l-.74,4.06Zm1.24-4.81a.41.41,0,0,1-.39-.45.46.46,0,0,1,.45-.49.42.42,0,0,1,.42.45.48.48,0,0,1-.48.49Z"/><path class="cls-18" d="M68.85,201.45a1.52,1.52,0,0,1-1.51-1.67,2.39,2.39,0,0,1,2.14-2.57A1.52,1.52,0,0,1,71,198.89a2.4,2.4,0,0,1-2.14,2.56Zm.08-.55c.78,0,1.37-1.06,1.37-2,0-.46-.2-1.13-.9-1.13s-1.38,1.07-1.38,2c0,.66.35,1.14.9,1.14Z"/><path class="cls-18" d="M71.47,201.36l.51-2.88c.09-.45.14-.84.18-1.18h.6l-.1.8h0a1.7,1.7,0,0,1,1.44-.89c.45,0,1,.28,1,1.12A3.9,3.9,0,0,1,75,199l-.43,2.37h-.65l.42-2.35a4,4,0,0,0,.05-.52c0-.4-.16-.7-.61-.7s-1.14.59-1.32,1.6l-.35,2Z"/><path class="cls-18" d="M39.88,208.71l-1,5.65H38.2l1-5.65Z"/><path class="cls-18" d="M44.15,208.4l-.85,4.68a12.09,12.09,0,0,0-.16,1.28h-.61l.1-.8h0a1.63,1.63,0,0,1-1.4.89c-.74,0-1.15-.64-1.15-1.47a2.62,2.62,0,0,1,2.39-2.77,1.67,1.67,0,0,1,.68.14l.35-1.95ZM43,210.94a1,1,0,0,0-.63-.18c-.92,0-1.64,1-1.64,2.13,0,.48.16,1,.73,1s1.12-.61,1.29-1.52Z"/><path class="cls-18" d="M47,214.14a2.72,2.72,0,0,1-1.27.31,1.43,1.43,0,0,1-1.47-1.63c0-1.23.86-2.61,2.1-2.61a1,1,0,0,1,1.14,1c0,1.06-1.14,1.34-2.57,1.32a1.76,1.76,0,0,0,.08.77.85.85,0,0,0,.86.54,2,2,0,0,0,1-.28Zm-.14-2.87a.52.52,0,0,0-.59-.52c-.63,0-1.1.65-1.26,1.29,1,0,1.85-.14,1.85-.76Z"/><path class="cls-18" d="M50.41,214.36c0-.24,0-.63.09-1.05h0a1.68,1.68,0,0,1-1.5,1.14c-.68,0-1.11-.57-1.11-1.34a2.77,2.77,0,0,1,2.67-2.9,3.94,3.94,0,0,1,1,.15l-.4,2.12a10.93,10.93,0,0,0-.16,1.88Zm.42-3.54a1.41,1.41,0,0,0-.45-.06A2.12,2.12,0,0,0,48.56,213c0,.45.15.89.65.89s1.22-.75,1.4-1.83Z"/><path class="cls-18" d="M53.57,213.49a1.93,1.93,0,0,0,1.14.36,1.08,1.08,0,0,0,1.16-1.06c0-.43-.22-.74-.79-1S54,210.89,54,210.28a1.7,1.7,0,0,1,1.82-1.66,1.88,1.88,0,0,1,1.1.3l-.23.57a1.68,1.68,0,0,0-.93-.27,1,1,0,0,0-1.07.92c0,.46.27.72.84,1.05a1.67,1.67,0,0,1,1,1.51,1.76,1.76,0,0,1-1.94,1.75,2.08,2.08,0,0,1-1.29-.39Z"/><path class="cls-18" d="M57.17,214.36l1.08-6h.66l-.68,3.74h0a4.81,4.81,0,0,1,.36-.4L60,210.3h.83L59.1,212l1.15,2.39h-.72l-.94-2-.48.46-.28,1.54Z"/><path class="cls-18" d="M63.59,214.14a2.69,2.69,0,0,1-1.27.31,1.44,1.44,0,0,1-1.47-1.63c0-1.23.86-2.61,2.11-2.61a1,1,0,0,1,1.13,1c0,1.06-1.14,1.34-2.57,1.32a1.76,1.76,0,0,0,.08.77.85.85,0,0,0,.86.54,2,2,0,0,0,1-.28Zm-.14-2.87a.52.52,0,0,0-.59-.52c-.63,0-1.1.65-1.26,1.29,1,0,1.85-.14,1.85-.76Z"/><path class="cls-18" d="M66.13,209.33l-.18,1h.93l-.1.55h-.93l-.35,2a2.87,2.87,0,0,0-.08.64c0,.25.11.4.37.4a1,1,0,0,0,.31,0l0,.55a1.42,1.42,0,0,1-.51.07.73.73,0,0,1-.81-.78,3.72,3.72,0,0,1,.09-.77l.37-2.05h-.55l.1-.55h.55l.13-.75Z"/><path class="cls-18" d="M69.57,214.2a2.43,2.43,0,0,1-1.12.25A1.42,1.42,0,0,1,67,212.89a2.53,2.53,0,0,1,2.36-2.68,1.8,1.8,0,0,1,.8.18l-.19.55a1.38,1.38,0,0,0-.65-.15,1.86,1.86,0,0,0-1.64,2c0,.67.33,1.09,1,1.09a1.92,1.92,0,0,0,.89-.22Z"/><path class="cls-18" d="M70.29,214.36l1.08-6H72L71.55,211h0a1.63,1.63,0,0,1,1.38-.8,1,1,0,0,1,1,1.09,3.82,3.82,0,0,1-.07.68l-.43,2.38h-.66l.43-2.35a3.73,3.73,0,0,0,0-.56c0-.37-.17-.66-.6-.66s-1.16.63-1.32,1.53l-.36,2Z"/><path class="cls-18" d="M34.07,221.79a5.59,5.59,0,0,1,1.16-.12,1.69,1.69,0,0,1,1.23.39,1.09,1.09,0,0,1,.39.88,1.52,1.52,0,0,1-1.15,1.41v0a1.24,1.24,0,0,1,.88,1.25,1.66,1.66,0,0,1-.64,1.32,2.79,2.79,0,0,1-1.75.46,6.24,6.24,0,0,1-1.11-.08Zm-.25,5a4.75,4.75,0,0,0,.54,0c.79,0,1.52-.34,1.52-1.25,0-.66-.53-1-1.13-1H34.2Zm.49-2.7h.49c.78,0,1.37-.42,1.37-1.11,0-.54-.39-.77-1-.77a1.92,1.92,0,0,0-.55.05Z"/><path class="cls-18" d="M37.18,227.36l.47-2.62c.09-.53.15-1.06.19-1.44h.58c0,.29-.05.56-.1.88h0a1.44,1.44,0,0,1,1.18-1h.2l-.13.69H39.4c-.56,0-1.07.73-1.24,1.67l-.32,1.79Z"/><path class="cls-18" d="M42.28,227.36c0-.24,0-.63.09-1.05h0c-.43.85-1,1.14-1.5,1.14s-1.11-.57-1.11-1.34a2.77,2.77,0,0,1,2.66-2.9,3.88,3.88,0,0,1,1,.15l-.39,2.12a9.23,9.23,0,0,0-.16,1.88Zm.43-3.54a1.49,1.49,0,0,0-.46-.06A2.12,2.12,0,0,0,40.43,226c0,.45.15.89.66.89s1.21-.75,1.39-1.83Z"/><path class="cls-18" d="M43.89,227.36l.51-2.88c.08-.45.14-.84.18-1.18h.6l-.11.8h0a1.7,1.7,0,0,1,1.44-.89c.45,0,1,.28,1,1.12a3.9,3.9,0,0,1-.07.66L47,227.36h-.66l.43-2.35a4.07,4.07,0,0,0,0-.52c0-.4-.15-.7-.6-.7s-1.14.59-1.32,1.6l-.35,2Z"/><path class="cls-18" d="M52.25,221.4l-.86,4.68c-.07.42-.13.89-.16,1.28h-.6l.1-.8h0a1.62,1.62,0,0,1-1.39.89c-.74,0-1.15-.64-1.15-1.47a2.62,2.62,0,0,1,2.38-2.77,1.76,1.76,0,0,1,.69.14l.34-1.95Zm-1.12,2.54a1,1,0,0,0-.63-.18c-.93,0-1.65,1-1.65,2.13,0,.48.16,1,.73,1s1.13-.61,1.29-1.52Z"/><path class="cls-18" d="M53.8,227.36l1-5.65h.73l1.23,3.2a15,15,0,0,1,.47,1.58h0a14.34,14.34,0,0,1,.23-1.77l.55-3h.62l-1,5.65H57l-1.23-3.19a12.7,12.7,0,0,1-.49-1.63h0c-.06.53-.15,1.1-.28,1.87l-.54,3Z"/><path class="cls-18" d="M61.38,227.36c0-.24,0-.63.09-1.05h0c-.43.85-1,1.14-1.5,1.14s-1.11-.57-1.11-1.34a2.77,2.77,0,0,1,2.66-2.9,3.88,3.88,0,0,1,1,.15l-.39,2.12a9.23,9.23,0,0,0-.16,1.88Zm.43-3.54a1.49,1.49,0,0,0-.46-.06A2.13,2.13,0,0,0,59.53,226c0,.45.16.89.66.89s1.21-.75,1.39-1.83Z"/><path class="cls-18" d="M63,227.36l.52-2.88c.08-.45.13-.84.17-1.18h.59l-.11.76h0a1.59,1.59,0,0,1,1.35-.85.86.86,0,0,1,.9.9,1.67,1.67,0,0,1,1.42-.9,1,1,0,0,1,.94,1.07,4.36,4.36,0,0,1-.07.68l-.43,2.4h-.64l.41-2.34a3,3,0,0,0,.06-.53c0-.43-.15-.7-.58-.7s-1.06.58-1.22,1.49L66,227.36h-.64l.43-2.38a3.13,3.13,0,0,0,0-.5c0-.34-.09-.69-.58-.69s-1.08.67-1.24,1.53l-.36,2Z"/><path class="cls-18" d="M69.42,227.36l.74-4.06h.66l-.74,4.06Zm1.24-4.81a.41.41,0,0,1-.39-.45.48.48,0,0,1,.45-.49.42.42,0,0,1,.42.45.47.47,0,0,1-.47.49Z"/><path class="cls-18" d="M71.26,227.36l.51-2.88c.09-.45.14-.84.18-1.18h.6l-.1.8h0a1.7,1.7,0,0,1,1.44-.89c.45,0,1,.28,1,1.12a3.9,3.9,0,0,1-.07.66l-.43,2.37h-.66l.43-2.35a4,4,0,0,0,0-.52c0-.4-.16-.7-.61-.7s-1.14.59-1.32,1.6l-.35,2Z"/><path class="cls-18" d="M75.55,228.28a1.9,1.9,0,0,0,1,.27c.65,0,1.16-.34,1.39-1.44l.13-.61h0a1.53,1.53,0,0,1-1.34.86A1.26,1.26,0,0,1,75.55,226,2.6,2.6,0,0,1,78,223.21a3.06,3.06,0,0,1,1.24.28l-.6,3.36a3.12,3.12,0,0,1-.77,1.82,2,2,0,0,1-1.35.45,2.17,2.17,0,0,1-1.16-.29Zm3-4.38a1.6,1.6,0,0,0-.64-.14c-1,0-1.64,1.07-1.64,2.08,0,.45.15,1,.74,1s1.14-.76,1.29-1.55Z"/><path class="cls-18" d="M37.41,336.41a8,8,0,0,1,1.33-.11,2.48,2.48,0,0,1,2,.73,2.18,2.18,0,0,1,.51,1.52,3.74,3.74,0,0,1-1.07,2.69,3.56,3.56,0,0,1-2.45.79,9.84,9.84,0,0,1-1.3-.08Zm-.24,5a5.92,5.92,0,0,0,.7,0,2.46,2.46,0,0,0,1.92-.75,3.12,3.12,0,0,0,.73-2.12,1.55,1.55,0,0,0-1.79-1.71,3.36,3.36,0,0,0-.74.06Z"/><path class="cls-18" d="M44.32,341.76a2.64,2.64,0,0,1-1.28.32,1.44,1.44,0,0,1-1.47-1.64c0-1.22.86-2.61,2.11-2.61a1,1,0,0,1,1.13,1.05c0,1.07-1.14,1.34-2.57,1.32a1.93,1.93,0,0,0,.08.77.87.87,0,0,0,.87.55,2.11,2.11,0,0,0,1-.28Zm-.15-2.87c0-.33-.23-.51-.59-.51-.63,0-1.1.64-1.26,1.28,1,0,1.85-.13,1.85-.76Z"/><path class="cls-18" d="M45.19,341.29a1.6,1.6,0,0,0,.83.25.68.68,0,0,0,.73-.66c0-.32-.14-.52-.54-.76a1.2,1.2,0,0,1-.7-1,1.31,1.31,0,0,1,1.41-1.26,1.58,1.58,0,0,1,.8.2l-.19.53a1.3,1.3,0,0,0-.66-.18.63.63,0,0,0-.69.61c0,.29.18.48.53.68a1.27,1.27,0,0,1,.72,1.07A1.34,1.34,0,0,1,46,342.08a1.76,1.76,0,0,1-1-.28Z"/><path class="cls-18" d="M48.12,342l.73-4.06h.67L48.78,342Zm1.24-4.81a.42.42,0,0,1-.39-.46.47.47,0,0,1,.45-.49.42.42,0,0,1,.42.45.48.48,0,0,1-.47.5Z"/><path class="cls-18" d="M50,342.91a1.9,1.9,0,0,0,1,.27c.65,0,1.16-.35,1.39-1.45l.12-.61h0a1.56,1.56,0,0,1-1.34.87A1.26,1.26,0,0,1,50,340.58a2.59,2.59,0,0,1,2.45-2.75,3.06,3.06,0,0,1,1.24.29l-.6,3.35a3.12,3.12,0,0,1-.77,1.83,2,2,0,0,1-1.35.44,2.17,2.17,0,0,1-1.16-.29Zm3-4.38a1.45,1.45,0,0,0-.64-.14c-1,0-1.64,1.06-1.64,2.07,0,.45.15,1,.74,1s1.14-.75,1.29-1.55Z"/><path class="cls-18" d="M54.13,342l.51-2.88c.09-.46.15-.85.19-1.18h.6l-.11.79h0a1.7,1.7,0,0,1,1.44-.89c.45,0,1,.28,1,1.13a3.9,3.9,0,0,1-.07.65L57.25,342h-.66l.42-2.35a2.87,2.87,0,0,0,.05-.52c0-.41-.15-.71-.6-.71s-1.14.6-1.32,1.6l-.35,2Z"/><path class="cls-18" d="M60.87,336.41a8.14,8.14,0,0,1,1.33-.11,2.52,2.52,0,0,1,2,.73,2.23,2.23,0,0,1,.51,1.52,3.71,3.71,0,0,1-1.08,2.69,3.53,3.53,0,0,1-2.44.79,9.73,9.73,0,0,1-1.3-.08Zm-.24,5a5.92,5.92,0,0,0,.7,0,2.46,2.46,0,0,0,1.92-.75,3.13,3.13,0,0,0,.74-2.12,1.56,1.56,0,0,0-1.8-1.71,3.36,3.36,0,0,0-.74.06Z"/><path class="cls-18" d="M65,342l.47-2.62c.09-.53.15-1.07.19-1.44h.58c0,.28,0,.56-.1.88h0a1.42,1.42,0,0,1,1.18-1l.19,0-.12.69-.19,0c-.56,0-1.07.73-1.24,1.67l-.32,1.8Z"/><path class="cls-18" d="M70.1,342a10.33,10.33,0,0,1,.09-1.05h0a1.69,1.69,0,0,1-1.5,1.14c-.68,0-1.11-.57-1.11-1.34a2.78,2.78,0,0,1,2.67-2.91,3.94,3.94,0,0,1,1,.15l-.39,2.13a9.12,9.12,0,0,0-.16,1.88Zm.43-3.55a1.62,1.62,0,0,0-.46-.05,2.12,2.12,0,0,0-1.82,2.22c0,.45.15.9.66.9s1.21-.76,1.39-1.84Z"/><path class="cls-18" d="M71.79,342l.63-3.52h-.51l.1-.54h.52l0-.22a2.4,2.4,0,0,1,.63-1.41,1.33,1.33,0,0,1,.92-.37,1.13,1.13,0,0,1,.53.11l-.14.56a.93.93,0,0,0-.39-.08c-.53,0-.79.54-.9,1.21l0,.2H74l-.1.54h-.86L72.45,342Z"/><path class="cls-18" d="M75.66,337l-.17,1h.92l-.1.54h-.93l-.35,2a3,3,0,0,0-.08.65c0,.24.11.39.37.39a1.42,1.42,0,0,0,.31,0l0,.54a1.47,1.47,0,0,1-.51.08.74.74,0,0,1-.82-.79,3.63,3.63,0,0,1,.09-.76l.37-2.06h-.55l.1-.54h.55l.14-.75Z"/><path class="cls-18" d="M40.56,355l.39-3.06c.07-.54.19-1.37.28-1.91h0c-.25.57-.55,1.24-.84,1.82L38.77,355h-.51l-.39-3c-.08-.66-.14-1.31-.17-1.89h0c-.11.52-.28,1.37-.4,1.91L36.53,355h-.62l1.4-5.66h.84l.43,3.25c.05.48.11,1,.12,1.42h0c.17-.43.4-.94.63-1.4L41,349.33h.87L41.2,355Z"/><path class="cls-18" d="M43.81,355.08a1.52,1.52,0,0,1-1.51-1.67,2.39,2.39,0,0,1,2.14-2.58A1.52,1.52,0,0,1,46,352.52a2.39,2.39,0,0,1-2.13,2.56Zm.08-.56c.78,0,1.37-1,1.37-2,0-.47-.21-1.13-.9-1.13s-1.38,1.06-1.38,2c0,.67.35,1.14.9,1.14Z"/><path class="cls-18" d="M50.52,349l-.85,4.67a12,12,0,0,0-.16,1.29H48.9l.11-.81h0a1.64,1.64,0,0,1-1.4.9c-.74,0-1.14-.65-1.14-1.48a2.62,2.62,0,0,1,2.38-2.77,1.76,1.76,0,0,1,.69.14l.34-1.94Zm-1.11,2.53a1.05,1.05,0,0,0-.63-.17c-.93,0-1.65,1-1.65,2.12,0,.49.16,1,.73,1S49,353.9,49.15,353Z"/><path class="cls-18" d="M50.6,355l.74-4.06H52L51.26,355Zm1.24-4.81a.42.42,0,0,1-.39-.46.47.47,0,0,1,.45-.49.42.42,0,0,1,.42.45.48.48,0,0,1-.47.5Z"/><path class="cls-18" d="M52.52,355l.63-3.52h-.51l.1-.54h.52l0-.22a2.46,2.46,0,0,1,.63-1.41,1.33,1.33,0,0,1,.92-.37,1.1,1.1,0,0,1,.53.11l-.14.56a.93.93,0,0,0-.39-.08c-.53,0-.78.54-.9,1.21l0,.2h.86l-.1.54h-.85L53.19,355Z"/><path class="cls-18" d="M54.68,355l.74-4.06h.66L55.35,355Zm1.24-4.81a.42.42,0,0,1-.39-.46.49.49,0,0,1,.46-.49.42.42,0,0,1,.41.45.48.48,0,0,1-.47.5Z"/><path class="cls-18" d="M59.16,354.83a2.56,2.56,0,0,1-1.12.25,1.43,1.43,0,0,1-1.48-1.57,2.53,2.53,0,0,1,2.36-2.68,1.7,1.7,0,0,1,.81.19l-.2.54a1.48,1.48,0,0,0-.65-.15,1.87,1.87,0,0,0-1.64,2c0,.66.33,1.09,1,1.09a2,2,0,0,0,.9-.23Z"/><path class="cls-18" d="M62.45,355a10.33,10.33,0,0,1,.09-1.05h0c-.43.84-1,1.14-1.5,1.14s-1.11-.57-1.11-1.34a2.78,2.78,0,0,1,2.66-2.91,3.88,3.88,0,0,1,1,.15l-.39,2.13a9.12,9.12,0,0,0-.16,1.88Zm.43-3.55a1.57,1.57,0,0,0-.46-.05,2.12,2.12,0,0,0-1.82,2.22c0,.45.15.9.66.9s1.21-.76,1.39-1.84Z"/><path class="cls-18" d="M65.75,350l-.17,1h.93l-.11.54h-.92l-.36,2a3.84,3.84,0,0,0-.08.65.34.34,0,0,0,.37.39,1.42,1.42,0,0,0,.31,0l0,.54a1.47,1.47,0,0,1-.51.08.73.73,0,0,1-.81-.79,4.37,4.37,0,0,1,.08-.76l.38-2.06h-.55l.09-.54h.55l.14-.75Z"/><path class="cls-18" d="M66.54,355l.74-4.06h.66L67.21,355Zm1.24-4.81a.42.42,0,0,1-.39-.46.48.48,0,0,1,.45-.49.42.42,0,0,1,.42.45.48.48,0,0,1-.47.5Z"/><path class="cls-18" d="M69.93,355.08a1.52,1.52,0,0,1-1.51-1.67,2.39,2.39,0,0,1,2.14-2.58,1.52,1.52,0,0,1,1.51,1.69,2.39,2.39,0,0,1-2.14,2.56Zm.08-.56c.78,0,1.37-1,1.37-2,0-.47-.21-1.13-.9-1.13s-1.38,1.06-1.38,2c0,.67.35,1.14.9,1.14Z"/><path class="cls-18" d="M72.54,355l.51-2.88c.09-.46.14-.85.18-1.18h.6l-.1.79h0a1.68,1.68,0,0,1,1.43-.89c.46,0,1,.28,1,1.13a4,4,0,0,1-.08.65L75.65,355H75l.42-2.35a2.87,2.87,0,0,0,0-.52c0-.41-.15-.71-.61-.71s-1.14.6-1.31,1.6l-.36,2Z"/><path class="cls-18" d="M39.06,367.11a2,2,0,0,0,1.15.36,1.07,1.07,0,0,0,1.16-1.05c0-.43-.22-.74-.79-1.06s-1.07-.85-1.07-1.45a1.69,1.69,0,0,1,1.82-1.66,2,2,0,0,1,1.1.29l-.24.57a1.62,1.62,0,0,0-.92-.27,1,1,0,0,0-1.07.92c0,.47.27.73.84,1.05a1.68,1.68,0,0,1,1,1.51,1.76,1.76,0,0,1-1.94,1.76,2.14,2.14,0,0,1-1.29-.4Z"/><path class="cls-18" d="M42.67,368l.73-4.06h.67L43.33,368Zm1.24-4.81a.41.41,0,0,1-.39-.46.47.47,0,0,1,.45-.49.42.42,0,0,1,.42.45.48.48,0,0,1-.48.5Z"/><path class="cls-18" d="M44.5,368l.51-2.88c.08-.46.14-.85.18-1.18h.58l-.1.76h0a1.63,1.63,0,0,1,1.36-.86.86.86,0,0,1,.9.91,1.64,1.64,0,0,1,1.41-.91,1,1,0,0,1,1,1.07,4.6,4.6,0,0,1-.07.69l-.43,2.4h-.65l.42-2.35a3,3,0,0,0,.05-.52c0-.43-.15-.71-.58-.71s-1,.59-1.21,1.5L47.47,368h-.64l.43-2.39a2.15,2.15,0,0,0,.05-.49c0-.35-.09-.7-.57-.7s-1.09.67-1.24,1.54l-.36,2Z"/><path class="cls-18" d="M54.71,363.93l-.52,2.87c-.08.46-.14.85-.17,1.19h-.6l.11-.77h0a1.71,1.71,0,0,1-1.37.86c-.49,0-1-.25-1-1.18a3.75,3.75,0,0,1,.08-.68l.42-2.29h.65l-.4,2.26a3.57,3.57,0,0,0-.07.6c0,.42.16.7.62.7s1.1-.59,1.26-1.48l.37-2.08Z"/><path class="cls-18" d="M55.14,368l1.08-6h.66l-1.08,6Z"/><path class="cls-18" d="M59.53,368a10.33,10.33,0,0,1,.09-1.05h0a1.7,1.7,0,0,1-1.5,1.14c-.68,0-1.11-.57-1.11-1.34a2.78,2.78,0,0,1,2.67-2.91,3.94,3.94,0,0,1,1,.15l-.4,2.13a10.78,10.78,0,0,0-.16,1.88Zm.42-3.55a1.49,1.49,0,0,0-.45-.05,2.12,2.12,0,0,0-1.82,2.22c0,.45.15.9.65.9s1.22-.76,1.4-1.84Z"/><path class="cls-18" d="M62.83,363l-.17,1h.92l-.1.54h-.93l-.35,2a3,3,0,0,0-.08.65c0,.24.11.39.37.39a1.42,1.42,0,0,0,.31,0l0,.54a1.47,1.47,0,0,1-.51.08.74.74,0,0,1-.82-.79,3.63,3.63,0,0,1,.09-.76l.38-2.06h-.55l.09-.54H62l.14-.75Z"/><path class="cls-18" d="M63.62,368l.73-4.06H65L64.28,368Zm1.24-4.81a.42.42,0,0,1-.39-.46.47.47,0,0,1,.45-.49.42.42,0,0,1,.42.45.48.48,0,0,1-.48.5Z"/><path class="cls-18" d="M67,368.08a1.53,1.53,0,0,1-1.51-1.67,2.4,2.4,0,0,1,2.14-2.58,1.52,1.52,0,0,1,1.52,1.69A2.4,2.4,0,0,1,67,368.08Zm.08-.56c.78,0,1.37-1,1.37-2,0-.47-.2-1.13-.9-1.13s-1.38,1.06-1.38,2c0,.67.35,1.14.9,1.14Z"/><path class="cls-18" d="M69.62,368l.51-2.88c.09-.46.14-.85.18-1.18h.6l-.1.79h0a1.7,1.7,0,0,1,1.44-.89c.45,0,1,.28,1,1.13a3.9,3.9,0,0,1-.07.65L72.73,368h-.66l.43-2.35a4.17,4.17,0,0,0,0-.52c0-.41-.16-.71-.61-.71s-1.14.6-1.32,1.6l-.35,2Z"/><path class="cls-18" d="M44.71,478.31a5.37,5.37,0,0,1,1.16-.12,1.88,1.88,0,0,1,1.32.44,1.34,1.34,0,0,1,.39,1,1.92,1.92,0,0,1-.65,1.46,2.45,2.45,0,0,1-1.62.55,4.29,4.29,0,0,1-.55,0l-.41,2.26h-.66Zm.15,2.72a2.38,2.38,0,0,0,.53.05,1.4,1.4,0,0,0,1.52-1.38c0-.68-.45-.94-1.07-.94a2.62,2.62,0,0,0-.58.05Z"/><path class="cls-18" d="M47.71,483.88l.47-2.61c.1-.53.16-1.07.2-1.45H49c0,.29-.06.56-.11.88h0a1.41,1.41,0,0,1,1.18-1l.19,0-.13.68h-.18c-.57,0-1.08.73-1.24,1.67l-.32,1.79Z"/><path class="cls-18" d="M51.81,484a1.52,1.52,0,0,1-1.51-1.67,2.38,2.38,0,0,1,2.14-2.58A1.52,1.52,0,0,1,54,481.42,2.4,2.4,0,0,1,51.81,484Zm.08-.56c.78,0,1.37-1.05,1.37-2,0-.47-.21-1.14-.9-1.14s-1.38,1.07-1.38,2c0,.66.35,1.14.9,1.14Z"/><path class="cls-18" d="M58.52,477.92l-.85,4.68a12.09,12.09,0,0,0-.16,1.28H56.9l.11-.8h0a1.64,1.64,0,0,1-1.4.9c-.74,0-1.15-.65-1.15-1.48a2.63,2.63,0,0,1,2.39-2.77,1.76,1.76,0,0,1,.69.14l.34-1.95Zm-1.11,2.54a1.08,1.08,0,0,0-.64-.18c-.92,0-1.64,1-1.64,2.13,0,.48.16,1,.73,1s1.12-.62,1.29-1.53Z"/><path class="cls-18" d="M62.37,479.82l-.52,2.88c-.08.45-.14.85-.17,1.18h-.6l.11-.76h0a1.71,1.71,0,0,1-1.36.86c-.5,0-1-.26-1-1.18a4,4,0,0,1,.08-.69l.42-2.29h.65l-.4,2.27a3.47,3.47,0,0,0-.07.59c0,.42.16.71.62.71s1.1-.6,1.26-1.49l.37-2.08Z"/><path class="cls-18" d="M65.44,483.72a2.36,2.36,0,0,1-1.11.26,1.43,1.43,0,0,1-1.49-1.57,2.53,2.53,0,0,1,2.36-2.68,1.86,1.86,0,0,1,.81.18l-.19.55a1.38,1.38,0,0,0-.65-.15,1.86,1.86,0,0,0-1.64,2c0,.67.33,1.1,1,1.1a1.91,1.91,0,0,0,.89-.23Z"/><path class="cls-18" d="M67.88,478.85l-.18,1h.93l-.11.55H67.6l-.35,2a2.87,2.87,0,0,0-.08.64c0,.25.11.4.36.4a1.35,1.35,0,0,0,.31,0l0,.54a1.47,1.47,0,0,1-.51.08.73.73,0,0,1-.81-.79,3.8,3.8,0,0,1,.09-.77l.37-2.05H66.4l.1-.55h.55l.13-.74Z"/></g></g></svg>